<svg width="347" height="337" viewBox="0 0 347 337" fill="none" xmlns="http://www.w3.org/2000/svg">
<g clip-path="url(#clip0_1_528)">
<path d="M3.19086 155.097L0.00686455 166.386L11.2965 169.57L14.4805 158.281L3.19086 155.097Z" fill="#6BCCE2"/>
<path d="M6.37064 143.802L3.18665 155.092L14.4762 158.276L17.6602 146.986L6.37064 143.802Z" fill="#6BCCE2"/>
<path d="M9.55733 132.52L6.37333 143.809L17.6629 146.993L20.8469 135.704L9.55733 132.52Z" fill="#6BCCE2"/>
<path d="M12.7344 121.244L9.55311 132.524L20.8427 135.708L24.024 124.428L12.7344 121.244Z" fill="#6BCCE2"/>
<path d="M15.9238 109.952L12.7398 121.242L24.0294 124.426L27.2134 113.136L15.9238 109.952Z" fill="#6BCCE2"/>
<path d="M19.1009 98.6672L15.9169 109.957L27.2065 113.141L30.3904 101.851L19.1009 98.6672Z" fill="#6BCCE2"/>
<path d="M22.2906 87.3724L19.1066 98.662L30.3962 101.846L33.5802 90.5564L22.2906 87.3724Z" fill="#6BCCE2"/>
<path d="M25.4773 76.0999L22.2933 87.3895L33.5829 90.5735L36.7669 79.2839L25.4773 76.0999Z" fill="#6BCCE2"/>
<path d="M8.10921 180.854L4.92521 192.143L16.2148 195.327L19.3988 184.038L8.10921 180.854Z" fill="#6BCCE2"/>
<path d="M11.2863 169.569L8.10226 180.858L19.3919 184.042L22.5759 172.753L11.2863 169.569Z" fill="#6BCCE2"/>
<path d="M18.6475 159.423L15.4635 170.713L26.7531 173.897L29.9371 162.607L18.6475 159.423Z" fill="#BDE5EB"/>
<path d="M21.2996 149.952L18.1156 161.241L29.4052 164.425L32.5892 153.136L21.2996 149.952Z" fill="#BDE5EB"/>
<path d="M24.4794 138.667L21.2954 149.956L32.585 153.14L35.769 141.851L24.4794 138.667Z" fill="#BDE5EB"/>
<path d="M27.6634 127.394L24.4821 138.674L35.7717 141.858L38.953 130.578L27.6634 127.394Z" fill="#BDE5EB"/>
<path d="M30.8459 116.09L27.6619 127.379L38.9515 130.563L42.1355 119.274L30.8459 116.09Z" fill="#BDE5EB"/>
<path d="M34.0229 104.804L30.8389 116.094L42.1285 119.278L45.3125 107.988L34.0229 104.804Z" fill="#BDE5EB"/>
<path d="M37.2196 93.5319L34.0356 104.822L45.3252 108.005L48.5092 96.7159L37.2196 93.5319Z" fill="#BDE5EB"/>
<path d="M39.7862 84.4973L36.6022 95.7869L47.8919 98.9709L51.0758 87.6813L39.7862 84.4973Z" fill="#BDE5EB"/>
<path d="M39.9395 67.9918L36.7555 79.2814L48.0451 82.4654L51.2291 71.1758L39.9395 67.9918Z" fill="#6BCCE2"/>
<path d="M43.1289 56.6997L39.9449 67.9893L51.2345 71.1733L54.4185 59.8837L43.1289 56.6997Z" fill="#6BCCE2"/>
<path d="M13.0275 206.601L9.84354 217.89L21.1331 221.074L24.3171 209.785L13.0275 206.601Z" fill="#6BCCE2"/>
<path d="M16.2046 195.326L13.0206 206.615L24.3102 209.799L27.4942 198.51L16.2046 195.326Z" fill="#6BCCE2"/>
<path d="M19.3944 184.031L16.2104 195.321L27.5 198.505L30.684 187.215L19.3944 184.031Z" fill="#BDE5EB"/>
<path d="M22.5811 172.748L19.3971 184.038L30.6867 187.222L33.8706 175.932L22.5811 172.748Z" fill="#BDE5EB"/>
<path d="M25.7608 161.454L22.5768 172.743L33.8664 175.927L37.0504 164.638L25.7608 161.454Z" fill="#BDE5EB"/>
<path d="M28.9379 150.179L25.7539 161.468L37.0435 164.652L40.2275 153.363L28.9379 150.179Z" fill="#BDE5EB"/>
<path d="M32.1346 138.896L28.9506 150.186L40.2402 153.37L43.4242 142.08L32.1346 138.896Z" fill="#BDE5EB"/>
<path d="M35.3116 127.611L32.1304 138.891L43.42 142.075L46.6012 130.795L35.3116 127.611Z" fill="#BDE5EB"/>
<path d="M38.501 116.319L35.317 127.608L46.6066 130.792L49.7906 119.503L38.501 116.319Z" fill="#BDE5EB"/>
<path d="M41.6808 105.034L38.4968 116.324L49.7864 119.508L52.9704 108.218L41.6808 105.034Z" fill="#BDE5EB"/>
<path d="M44.8579 93.7488L41.6739 105.038L52.9635 108.222L56.1475 96.9328L44.8579 93.7488Z" fill="#BDE5EB"/>
<path d="M51.0714 87.6743L47.8874 98.9639L59.177 102.148L62.361 90.8583L51.0714 87.6743Z" fill="#BDE5EB"/>
<path d="M54.2608 76.3923L51.0768 87.6819L62.3664 90.8659L65.5504 79.5763L54.2608 76.3923Z" fill="#BDE5EB"/>
<path d="M57.4379 65.1071L54.2539 76.3967L65.5435 79.5807L68.7275 68.2911L57.4379 65.1071Z" fill="#BDE5EB"/>
<path d="M57.5912 48.6016L54.4072 59.8912L65.6968 63.0752L68.8808 51.7856L57.5912 48.6016Z" fill="#6BCCE2"/>
<path d="M60.7779 37.3192L57.5939 48.6088L68.8835 51.7928L72.0675 40.5032L60.7779 37.3192Z" fill="#6BCCE2"/>
<path d="M21.1329 221.073L17.9489 232.362L29.2385 235.546L32.4225 224.257L21.1329 221.073Z" fill="#6BCCE2"/>
<path d="M24.3127 209.788L21.1287 221.078L32.4183 224.262L35.6023 212.972L24.3127 209.788Z" fill="#BDE5EB"/>
<path d="M27.4898 198.503L24.3058 209.792L35.5954 212.976L38.7794 201.687L27.4898 198.503Z" fill="#BDE5EB"/>
<path d="M30.6765 187.22L27.4925 198.51L38.7821 201.694L41.966 190.404L30.6765 187.22Z" fill="#BDE5EB"/>
<path d="M33.8662 175.926L30.6822 187.215L41.9718 190.399L45.1558 179.11L33.8662 175.926Z" fill="#BDE5EB"/>
<path d="M37.0433 164.65L33.8593 175.94L45.1489 179.124L48.3329 167.834L37.0433 164.65Z" fill="#BDE5EB"/>
<path d="M40.2327 153.358L37.0487 164.648L48.3383 167.832L51.5223 156.542L40.2327 153.358Z" fill="#BDE5EB"/>
<path d="M43.4098 142.073L40.2258 153.363L51.5153 156.547L54.6993 145.257L43.4098 142.073Z" fill="#BDE5EB"/>
<path d="M46.5868 130.788L43.4055 142.068L54.6951 145.252L57.8764 133.972L46.5868 130.788Z" fill="#BDE5EB"/>
<path d="M49.7762 119.506L46.5922 130.795L57.8818 133.979L61.0658 122.69L49.7762 119.506Z" fill="#BDE5EB"/>
<path d="M52.9633 108.221L49.7793 119.51L61.0689 122.694L64.2529 111.405L52.9633 108.221Z" fill="#BDE5EB"/>
<path d="M56.1527 96.9286L52.9687 108.218L64.2583 111.402L67.4423 100.113L56.1527 96.9286Z" fill="#BDE5EB"/>
<path d="M59.3297 85.6434L56.1457 96.933L67.4353 100.117L70.6193 88.8274L59.3297 85.6434Z" fill="#BDE5EB"/>
<path d="M62.5095 74.3586L59.3255 85.6482L70.6151 88.8322L73.7991 77.5426L62.5095 74.3586Z" fill="#BDE5EB"/>
<path d="M68.723 68.2842L65.539 79.5738L76.8287 82.7578L80.0126 71.4681L68.723 68.2842Z" fill="#BDE5EB"/>
<path d="M71.9097 57.0017L68.7257 68.2913L80.0153 71.4753L83.1993 60.1857L71.9097 57.0017Z" fill="#BDE5EB"/>
<path d="M75.0895 45.7169L71.9055 57.0065L83.1951 60.1905L86.3791 48.9009L75.0895 45.7169Z" fill="#BDE5EB"/>
<path d="M75.2401 29.2211L72.0561 40.5107L83.3457 43.6946L86.5297 32.4051L75.2401 29.2211Z" fill="#6BCCE2"/>
<path d="M29.2283 235.545L26.0443 246.834L37.3339 250.018L40.5179 238.729L29.2283 235.545Z" fill="#6BCCE2"/>
<path d="M32.4081 224.26L29.2241 235.549L40.5137 238.733L43.6977 227.444L32.4081 224.26Z" fill="#BDE5EB"/>
<path d="M35.6048 212.977L32.4208 224.267L43.7104 227.451L46.8944 216.161L35.6048 212.977Z" fill="#BDE5EB"/>
<path d="M38.7846 201.683L35.6006 212.972L46.8902 216.156L50.0742 204.867L38.7846 201.683Z" fill="#BDE5EB"/>
<path d="M41.9616 190.397L38.7776 201.687L50.0672 204.871L53.2512 193.581L41.9616 190.397Z" fill="#BDE5EB"/>
<path d="M45.1387 179.122L41.9547 190.412L53.2443 193.596L56.4283 182.306L45.1387 179.122Z" fill="#BDE5EB"/>
<path d="M48.3381 167.83L45.1541 179.12L56.4437 182.304L59.6277 171.014L48.3381 167.83Z" fill="#BDE5EB"/>
<path d="M51.5151 156.545L48.3311 167.835L59.6207 171.019L62.8047 159.729L51.5151 156.545Z" fill="#BDE5EB"/>
<path d="M54.6949 145.25L51.5109 156.54L62.8005 159.724L65.9845 148.434L54.6949 145.25Z" fill="#BDE5EB"/>
<path d="M57.8789 133.987L54.6976 145.267L65.9872 148.451L69.1685 137.171L57.8789 133.987Z" fill="#BDE5EB"/>
<path d="M61.0614 122.683L57.8774 133.973L69.167 137.157L72.351 125.867L61.0614 122.683Z" fill="#BDE5EB"/>
<path d="M64.2481 111.4L61.0641 122.69L72.3537 125.874L75.5377 114.584L64.2481 111.4Z" fill="#BDE5EB"/>
<path d="M67.4351 100.115L64.2511 111.405L75.5407 114.589L78.7247 103.299L67.4351 100.115Z" fill="#BDE5EB"/>
<path d="M70.6149 88.8305L67.4309 100.12L78.7205 103.304L81.9045 92.0145L70.6149 88.8305Z" fill="#BDE5EB"/>
<path d="M73.8016 77.548L70.6176 88.8376L81.9072 92.0216L85.0912 80.732L73.8016 77.548Z" fill="#BDE5EB"/>
<path d="M76.9814 66.2532L73.7974 77.5428L85.087 80.7268L88.271 69.4372L76.9814 66.2532Z" fill="#BDE5EB"/>
<path d="M80.1684 54.9681L76.9844 66.2577L88.274 69.4417L91.458 58.1521L80.1684 54.9681Z" fill="#BDE5EB"/>
<path d="M86.372 48.9036L83.188 60.1932L94.4776 63.3772L97.6616 52.0876L86.372 48.9036Z" fill="#BDE5EB"/>
<path d="M89.5614 37.6115L86.3774 48.9011L97.667 52.0851L100.851 40.7955L89.5614 37.6115Z" fill="#BDE5EB"/>
<path d="M89.7119 21.1157L86.5279 32.4053L97.8175 35.5892L101.002 24.2997L89.7119 21.1157Z" fill="#6BCCE2"/>
<path d="M37.3364 250.007L34.1524 261.296L45.442 264.48L48.626 253.191L37.3364 250.007Z" fill="#6BCCE2"/>
<path d="M40.5135 238.732L37.3295 250.021L48.6191 253.205L51.8031 241.916L40.5135 238.732Z" fill="#BDE5EB"/>
<path d="M43.7002 227.449L40.5162 238.739L51.8058 241.923L54.9898 230.633L43.7002 227.449Z" fill="#BDE5EB"/>
<path d="M46.88 216.154L43.696 227.444L54.9856 230.628L58.1696 219.338L46.88 216.154Z" fill="#BDE5EB"/>
<path d="M50.067 204.869L46.883 216.159L58.1726 219.343L61.3566 208.053L50.067 204.869Z" fill="#BDE5EB"/>
<path d="M53.2564 193.587L50.0724 204.877L61.362 208.061L64.546 196.771L53.2564 193.587Z" fill="#BDE5EB"/>
<path d="M56.4335 182.302L53.2495 193.592L64.5391 196.776L67.7231 185.486L56.4335 182.302Z" fill="#BDE5EB"/>
<path d="M59.6132 171.007L56.4292 182.297L67.7189 185.481L70.9029 174.191L59.6132 171.007Z" fill="#BDE5EB"/>
<path d="M62.8099 159.725L59.6259 171.014L70.9155 174.198L74.0995 162.909L62.8099 159.725Z" fill="#BDE5EB"/>
<path d="M65.987 148.45L62.803 159.739L74.0926 162.923L77.2766 151.634L65.987 148.45Z" fill="#BDE5EB"/>
<path d="M69.1641 137.164L65.9828 148.444L77.2724 151.628L80.4537 140.348L69.1641 137.164Z" fill="#BDE5EB"/>
<path d="M72.3535 125.872L69.1695 137.162L80.4591 140.346L83.6431 129.056L72.3535 125.872Z" fill="#BDE5EB"/>
<path d="M75.5332 114.578L72.3492 125.867L83.6388 129.051L86.8228 117.762L75.5332 114.578Z" fill="#BDE5EB"/>
<path d="M78.7103 103.302L75.5263 114.592L86.8159 117.776L89.9999 106.486L78.7103 103.302Z" fill="#BDE5EB"/>
<path d="M81.9097 92.0103L78.7257 103.3L90.0153 106.484L93.1993 95.1943L81.9097 92.0103Z" fill="#BDE5EB"/>
<path d="M85.0868 80.7251L81.9028 92.0147L93.1924 95.1987L96.3764 83.9091L85.0868 80.7251Z" fill="#BDE5EB"/>
<path d="M88.2638 69.4399L85.0798 80.7295L96.3694 83.9135L99.5534 72.6239L88.2638 69.4399Z" fill="#BDE5EB"/>
<path d="M91.4532 58.1579L88.2692 69.4474L99.5588 72.6314L102.743 61.3418L91.4532 58.1579Z" fill="#BDE5EB"/>
<path d="M94.6403 46.8727L91.4563 58.1623L102.746 61.3463L105.93 50.0567L94.6403 46.8727Z" fill="#BDE5EB"/>
<path d="M100.844 40.7982L97.6598 52.0878L108.949 55.2718L112.133 43.9822L100.844 40.7982Z" fill="#BDE5EB"/>
<path d="M104.024 29.5134L100.84 40.803L112.129 43.987L115.313 32.6974L104.024 29.5134Z" fill="#BDE5EB"/>
<path d="M104.184 13.0203L101 24.3099L112.289 27.4939L115.473 16.2043L104.184 13.0203Z" fill="#6BCCE2"/>
<path d="M45.4318 264.479L42.2478 275.768L53.5374 278.952L56.7214 267.663L45.4318 264.479Z" fill="#6BCCE2"/>
<path d="M48.6089 253.204L45.4249 264.493L56.7145 267.677L59.8985 256.388L48.6089 253.204Z" fill="#BDE5EB"/>
<path d="M51.8083 241.911L48.6243 253.201L59.9139 256.385L63.0979 245.095L51.8083 241.911Z" fill="#BDE5EB"/>
<path d="M54.9854 230.626L51.8014 241.916L63.0909 245.1L66.2749 233.81L54.9854 230.626Z" fill="#BDE5EB"/>
<path d="M58.1651 219.331L54.9811 230.621L66.2707 233.805L69.4547 222.515L58.1651 219.331Z" fill="#BDE5EB"/>
<path d="M61.3518 208.059L58.1678 219.349L69.4574 222.533L72.6414 211.243L61.3518 208.059Z" fill="#BDE5EB"/>
<path d="M64.5389 196.774L61.3549 208.063L72.6445 211.247L75.8285 199.958L64.5389 196.774Z" fill="#BDE5EB"/>
<path d="M67.7186 185.479L64.5346 196.769L75.8243 199.953L79.0083 188.663L67.7186 185.479Z" fill="#BDE5EB"/>
<path d="M70.9053 174.197L67.7213 185.486L79.0109 188.67L82.1949 177.381L70.9053 174.197Z" fill="#BDE5EB"/>
<path d="M74.0851 162.912L70.9011 174.201L82.1907 177.385L85.3747 166.096L74.0851 162.912Z" fill="#BDE5EB"/>
<path d="M77.2722 151.627L74.0882 162.916L85.3778 166.1L88.5618 154.811L77.2722 151.627Z" fill="#BDE5EB"/>
<path d="M80.4588 140.344L77.2776 151.624L88.5672 154.808L91.7485 143.528L80.4588 140.344Z" fill="#BDE5EB"/>
<path d="M83.6386 129.049L80.4546 140.339L91.7442 143.523L94.9282 132.233L83.6386 129.049Z" fill="#BDE5EB"/>
<path d="M86.8253 117.777L83.6413 129.067L94.9309 132.251L98.1149 120.961L86.8253 117.777Z" fill="#BDE5EB"/>
<path d="M90.0051 106.482L86.8211 117.772L98.1107 120.956L101.295 109.666L90.0051 106.482Z" fill="#BDE5EB"/>
<path d="M93.1822 95.197L89.9982 106.487L101.288 109.671L104.472 98.381L93.1822 95.197Z" fill="#BDE5EB"/>
<path d="M96.3719 83.9022L93.1879 95.1918L104.478 98.3758L107.662 87.0862L96.3719 83.9022Z" fill="#BDE5EB"/>
<path d="M99.5586 72.6297L96.3746 83.9193L107.664 87.1033L110.848 75.8137L99.5586 72.6297Z" fill="#BDE5EB"/>
<path d="M102.736 61.3445L99.5517 72.6341L110.841 75.8181L114.025 64.5285L102.736 61.3445Z" fill="#BDE5EB"/>
<path d="M105.915 50.0497L102.731 61.3393L114.021 64.5233L117.205 53.2337L105.915 50.0497Z" fill="#BDE5EB"/>
<path d="M109.112 38.7673L105.928 50.0569L117.218 53.2409L120.402 41.9513L109.112 38.7673Z" fill="#BDE5EB"/>
<path d="M115.316 32.7028L112.132 43.9924L123.421 47.1764L126.605 35.8868L115.316 32.7028Z" fill="#BDE5EB"/>
<path d="M118.495 21.408L115.311 32.6976L126.601 35.8816L129.785 24.592L118.495 21.408Z" fill="#BDE5EB"/>
<path d="M118.656 4.91486L115.474 16.1948L126.764 19.3788L129.945 8.09886L118.656 4.91486Z" fill="#6BCCE2"/>
<path d="M56.7266 267.668L53.5426 278.958L64.8322 282.142L68.0162 270.852L56.7266 267.668Z" fill="#6BCCE2"/>
<path d="M59.9037 256.383L56.7197 267.673L68.0093 270.857L71.1933 259.567L59.9037 256.383Z" fill="#BDE5EB"/>
<path d="M63.0807 245.098L59.8968 256.388L71.1863 259.572L74.3703 248.282L63.0807 245.098Z" fill="#BDE5EB"/>
<path d="M66.2705 233.803L63.0865 245.093L74.3761 248.277L77.5601 236.987L66.2705 233.803Z" fill="#BDE5EB"/>
<path d="M69.4572 222.531L66.2732 233.82L77.5628 237.004L80.7468 225.715L69.4572 222.531Z" fill="#BDE5EB"/>
<path d="M72.637 211.236L69.453 222.526L80.7426 225.71L83.9266 214.42L72.637 211.236Z" fill="#BDE5EB"/>
<path d="M75.814 199.951L72.63 211.241L83.9197 214.425L87.1036 203.135L75.814 199.951Z" fill="#BDE5EB"/>
<path d="M79.0134 188.659L75.8294 199.948L87.119 203.132L90.303 191.843L79.0134 188.659Z" fill="#BDE5EB"/>
<path d="M82.1905 177.384L79.0065 188.673L90.2961 191.857L93.4801 180.568L82.1905 177.384Z" fill="#BDE5EB"/>
<path d="M85.3676 166.098L82.1836 177.388L93.4732 180.572L96.6572 169.282L85.3676 166.098Z" fill="#BDE5EB"/>
<path d="M88.557 154.806L85.373 166.096L96.6626 169.28L99.8466 157.99L88.557 154.806Z" fill="#BDE5EB"/>
<path d="M91.7313 143.531L88.55 154.811L99.8396 157.995L103.021 146.715L91.7313 143.531Z" fill="#BDE5EB"/>
<path d="M94.9234 132.239L91.7394 143.529L103.029 146.713L106.213 135.423L94.9234 132.239Z" fill="#BDE5EB"/>
<path d="M98.1105 120.954L94.9265 132.244L106.216 135.428L109.4 124.138L98.1105 120.954Z" fill="#BDE5EB"/>
<path d="M101.288 109.669L98.1036 120.958L109.393 124.142L112.577 112.853L101.288 109.669Z" fill="#BDE5EB"/>
<path d="M104.477 98.3767L101.293 109.666L112.583 112.85L115.767 101.561L104.477 98.3767Z" fill="#BDE5EB"/>
<path d="M107.654 87.1016L104.47 98.3912L115.76 101.575L118.944 90.2856L107.654 87.1016Z" fill="#BDE5EB"/>
<path d="M110.844 75.8068L107.66 87.0964L118.949 90.2804L122.133 78.9908L110.844 75.8068Z" fill="#BDE5EB"/>
<path d="M114.03 64.5243L110.846 75.8139L122.136 78.9979L125.32 67.7083L114.03 64.5243Z" fill="#BDE5EB"/>
<path d="M117.21 53.2295L114.026 64.5191L125.316 67.7031L128.5 56.4135L117.21 53.2295Z" fill="#BDE5EB"/>
<path d="M120.387 41.9543L117.203 53.244L128.493 56.428L131.677 45.1383L120.387 41.9543Z" fill="#BDE5EB"/>
<path d="M123.584 30.6719L120.4 41.9615L131.69 45.1455L134.874 33.8559L123.584 30.6719Z" fill="#BDE5EB"/>
<path d="M129.788 24.5974L126.604 35.887L137.893 39.071L141.077 27.7814L129.788 24.5974Z" fill="#BDE5EB"/>
<path d="M129.938 8.10155L126.757 19.3815L138.046 22.5655L141.228 11.2855L129.938 8.10155Z" fill="#6BCCE2"/>
<path d="M64.8193 282.14L61.638 293.42L72.9276 296.604L76.1089 285.324L64.8193 282.14Z" fill="#6BCCE2"/>
<path d="M68.0091 270.855L64.8251 282.145L76.1147 285.329L79.2987 274.039L68.0091 270.855Z" fill="#BDE5EB"/>
<path d="M71.1888 259.56L68.0048 270.85L79.2945 274.034L82.4785 262.744L71.1888 259.56Z" fill="#BDE5EB"/>
<path d="M74.3755 248.278L71.1915 259.568L82.4811 262.752L85.6651 251.462L74.3755 248.278Z" fill="#BDE5EB"/>
<path d="M77.5553 236.993L74.3713 248.283L85.6609 251.467L88.8449 240.177L77.5553 236.993Z" fill="#BDE5EB"/>
<path d="M80.7424 225.708L77.5584 236.998L88.848 240.182L92.032 228.892L80.7424 225.708Z" fill="#BDE5EB"/>
<path d="M83.9291 214.425L80.7451 225.715L92.0347 228.899L95.2187 217.609L83.9291 214.425Z" fill="#BDE5EB"/>
<path d="M87.1088 203.131L83.9248 214.42L95.2144 217.604L98.3984 206.315L87.1088 203.131Z" fill="#BDE5EB"/>
<path d="M90.2859 191.856L87.1019 203.145L98.3915 206.329L101.575 195.04L90.2859 191.856Z" fill="#BDE5EB"/>
<path d="M93.4853 180.563L90.3013 191.853L101.591 195.037L104.775 183.747L93.4853 180.563Z" fill="#BDE5EB"/>
<path d="M96.6624 169.278L93.4784 180.568L104.768 183.752L107.952 172.462L96.6624 169.278Z" fill="#BDE5EB"/>
<path d="M99.8421 157.983L96.6581 169.273L107.948 172.457L111.132 161.167L99.8421 157.983Z" fill="#BDE5EB"/>
<path d="M103.026 146.721L99.8448 158.001L111.134 161.185L114.316 149.905L103.026 146.721Z" fill="#BDE5EB"/>
<path d="M106.206 135.426L103.022 146.715L114.311 149.899L117.495 138.61L106.206 135.426Z" fill="#BDE5EB"/>
<path d="M109.386 124.131L106.202 135.421L117.491 138.605L120.675 127.315L109.386 124.131Z" fill="#BDE5EB"/>
<path d="M112.582 112.849L109.398 124.138L120.688 127.322L123.872 116.033L112.582 112.849Z" fill="#BDE5EB"/>
<path d="M115.762 101.564L112.578 112.853L123.868 116.037L127.052 104.748L115.762 101.564Z" fill="#BDE5EB"/>
<path d="M118.939 90.2786L115.755 101.568L127.045 104.752L130.229 93.4626L118.939 90.2786Z" fill="#BDE5EB"/>
<path d="M122.126 78.9962L118.942 90.2858L130.231 93.4698L133.415 82.1802L122.126 78.9962Z" fill="#BDE5EB"/>
<path d="M125.316 67.7014L122.132 78.991L133.421 82.175L136.605 70.8854L125.316 67.7014Z" fill="#BDE5EB"/>
<path d="M128.493 56.4262L125.309 67.7158L136.598 70.8998L139.782 59.6102L128.493 56.4262Z" fill="#BDE5EB"/>
<path d="M131.682 45.1341L128.498 56.4237L139.788 59.6077L142.972 48.3181L131.682 45.1341Z" fill="#BDE5EB"/>
<path d="M134.859 33.849L131.675 45.1385L142.965 48.3225L146.149 37.033L134.859 33.849Z" fill="#BDE5EB"/>
<path d="M141.073 27.7845L137.889 39.0741L149.178 42.2581L152.362 30.9685L141.073 27.7845Z" fill="#BDE5EB"/>
<path d="M144.25 16.4993L141.068 27.7793L152.358 30.9633L155.539 19.6833L144.25 16.4993Z" fill="#BDE5EB"/>
<path d="M144.413 -0.00346272L141.229 11.2861L152.518 14.4701L155.702 3.18053L144.413 -0.00346272Z" fill="#6BCCE2"/>
<path d="M76.1045 285.327L72.9232 296.607L84.2032 299.788L87.3845 288.508L76.1045 285.327Z" fill="#6BCCE2"/>
<path d="M79.2939 274.035L76.1099 285.325L87.3899 288.506L90.5739 277.216L79.2939 274.035Z" fill="#BDE5EB"/>
<path d="M82.4809 262.75L79.2969 274.039L90.5769 277.221L93.7609 265.931L82.4809 262.75Z" fill="#BDE5EB"/>
<path d="M85.6607 251.455L82.4767 262.745L93.7567 265.926L96.9407 254.636L85.6607 251.455Z" fill="#BDE5EB"/>
<path d="M88.8378 240.18L85.6538 251.469L96.9337 254.651L100.118 243.361L88.8378 240.18Z" fill="#BDE5EB"/>
<path d="M92.0245 228.897L88.8405 240.187L100.12 243.368L103.304 232.079L92.0245 228.897Z" fill="#BDE5EB"/>
<path d="M95.2042 217.603L92.0202 228.892L103.3 232.073L106.484 220.784L95.2042 217.603Z" fill="#BDE5EB"/>
<path d="M98.3913 206.317L95.2073 217.607L106.487 220.788L109.671 209.499L98.3913 206.317Z" fill="#BDE5EB"/>
<path d="M101.581 195.035L98.3967 206.325L109.677 209.506L112.861 198.217L101.581 195.035Z" fill="#BDE5EB"/>
<path d="M104.758 183.75L101.574 195.04L112.854 198.221L116.038 186.931L104.758 183.75Z" fill="#BDE5EB"/>
<path d="M107.938 172.455L104.754 183.745L116.034 186.926L119.218 175.637L107.938 172.455Z" fill="#BDE5EB"/>
<path d="M111.134 161.173L107.95 172.462L119.23 175.644L122.414 164.354L111.134 161.173Z" fill="#BDE5EB"/>
<path d="M114.311 149.898L111.13 161.178L122.41 164.359L125.591 153.079L114.311 149.898Z" fill="#BDE5EB"/>
<path d="M117.501 138.606L114.317 149.895L125.597 153.077L128.781 141.787L117.501 138.606Z" fill="#BDE5EB"/>
<path d="M120.678 127.32L117.494 138.61L128.774 141.791L131.958 130.502L120.678 127.32Z" fill="#BDE5EB"/>
<path d="M127.054 104.753L123.87 116.043L135.15 119.224L138.334 107.934L127.054 104.753Z" fill="#A1DBE1"/>
<path d="M130.234 93.4584L127.05 104.748L138.33 107.929L141.514 96.6397L130.234 93.4584Z" fill="#A1DBE1"/>
<path d="M123.858 116.026L120.674 127.315L131.953 130.497L135.137 119.207L123.858 116.026Z" fill="#A1DBE1"/>
<path d="M124.37 114.251L121.186 125.541L132.466 128.722L135.65 117.433L124.37 114.251Z" fill="#A1D9E1"/>
<path d="M124.873 112.477L121.689 123.766L132.969 126.948L136.153 115.658L124.873 112.477Z" fill="#A1D8E0"/>
<path d="M125.378 110.683L122.194 121.972L133.474 125.154L136.658 113.864L125.378 110.683Z" fill="#A2D7E0"/>
<path d="M125.871 108.906L122.687 120.195L133.967 123.377L137.151 112.087L125.871 108.906Z" fill="#A2D7E0"/>
<path d="M126.373 107.121L123.189 118.411L134.469 121.592L137.653 110.303L126.373 107.121Z" fill="#A2D6E0"/>
<path d="M126.876 105.347L123.692 116.637L134.972 119.818L138.156 108.528L126.876 105.347Z" fill="#A2D5E0"/>
<path d="M127.381 103.553L124.197 114.843L135.477 118.024L138.661 106.734L127.381 103.553Z" fill="#A2D5E0"/>
<path d="M127.894 101.779L124.71 113.068L135.99 116.249L139.174 104.96L127.894 101.779Z" fill="#A2D4E0"/>
<path d="M128.387 100.001L125.203 111.291L136.483 114.472L139.667 103.183L128.387 100.001Z" fill="#A2D3E0"/>
<path d="M128.889 98.2171L125.705 109.507L136.985 112.688L140.169 101.398L128.889 98.2171Z" fill="#A2D3E0"/>
<path d="M129.394 96.433L126.21 107.723L137.49 110.904L140.674 99.6143L129.394 96.433Z" fill="#A2D2E0"/>
<path d="M129.897 94.6486L126.713 105.938L137.993 109.12L141.177 97.8299L129.897 94.6486Z" fill="#A2D2E0"/>
<path d="M130.39 92.8715L127.206 104.161L138.486 107.342L141.67 96.0528L130.39 92.8715Z" fill="#A2D1E0"/>
<path d="M130.895 91.0775L127.711 102.367L138.991 105.548L142.175 94.2588L130.895 91.0775Z" fill="#A2D1E0"/>
<path d="M131.408 89.3031L128.224 100.593L139.504 103.774L142.688 92.4844L131.408 89.3031Z" fill="#A2D0E0"/>
<path d="M131.91 87.5187L128.726 98.8083L140.006 101.99L143.19 90.7L131.91 87.5187Z" fill="#A2CFE0"/>
<path d="M132.413 85.7443L129.229 97.0339L140.509 100.215L143.693 88.9256L132.413 85.7443Z" fill="#A3CFE0"/>
<path d="M132.908 83.9576L129.724 95.2472L141.004 98.4285L144.188 87.1389L132.908 83.9576Z" fill="#A3CEDF"/>
<path d="M133.411 82.1732L130.227 93.4628L141.507 96.6441L144.691 85.3545L133.411 82.1732Z" fill="#A3CEDF"/>
<path d="M136.588 70.8881L133.404 82.1777L144.684 85.3589L147.868 74.0693L136.588 70.8881Z" fill="#BDE5EB"/>
<path d="M139.787 59.606L136.604 70.8956L147.883 74.0769L151.067 62.7873L139.787 59.606Z" fill="#BDE5EB"/>
<path d="M142.965 48.3208L139.781 59.6104L151.061 62.7917L154.245 51.5021L142.965 48.3208Z" fill="#BDE5EB"/>
<path d="M146.144 37.026L142.96 48.3156L154.24 51.4969L157.424 40.2073L146.144 37.026Z" fill="#BDE5EB"/>
<path d="M149.331 25.7436L146.147 37.0332L157.427 40.2144L160.611 28.9248L149.331 25.7436Z" fill="#BDE5EB"/>
<path d="M151.278 18.552L148.097 29.832L159.377 33.0133L162.558 21.7333L151.278 18.552Z" fill="#BDE5EB"/>
<path d="M155.707 3.1763L152.523 14.4659L163.803 17.6472L166.987 6.35758L155.707 3.1763Z" fill="#6BCCE2"/>
<path d="M87.3869 288.514L84.2056 299.794L95.4953 302.978L98.6765 291.698L87.3869 288.514Z" fill="#BDE5EB"/>
<path d="M90.5763 277.222L87.3923 288.511L98.6819 291.695L101.866 280.406L90.5763 277.222Z" fill="#BDE5EB"/>
<path d="M93.7561 265.927L90.5721 277.216L101.862 280.4L105.046 269.111L93.7561 265.927Z" fill="#BDE5EB"/>
<path d="M96.9332 254.642L93.7492 265.931L105.039 269.115L108.223 257.826L96.9332 254.642Z" fill="#BDE5EB"/>
<path d="M100.133 243.36L96.9486 254.649L108.238 257.833L111.422 246.544L100.133 243.36Z" fill="#BDE5EB"/>
<path d="M103.31 232.074L100.126 243.364L111.415 246.548L114.599 235.258L103.31 232.074Z" fill="#BDE5EB"/>
<path d="M106.487 220.789L103.303 232.079L114.592 235.263L117.776 223.973L106.487 220.789Z" fill="#BDE5EB"/>
<path d="M109.676 209.497L106.492 220.787L117.782 223.971L120.966 212.681L109.676 209.497Z" fill="#BDE5EB"/>
<path d="M112.863 198.222L109.679 209.512L120.969 212.696L124.153 201.406L112.863 198.222Z" fill="#BDE5EB"/>
<path d="M116.043 186.927L112.859 198.217L124.149 201.401L127.333 190.111L116.043 186.927Z" fill="#BDE5EB"/>
<path d="M119.23 175.645L116.046 186.934L127.335 190.118L130.519 178.829L119.23 175.645Z" fill="#BDE5EB"/>
<path d="M122.409 164.35L119.225 175.64L130.515 178.824L133.699 167.534L122.409 164.35Z" fill="#BDE5EB"/>
<path d="M125.594 153.084L122.412 164.364L133.702 167.548L136.883 156.268L125.594 153.084Z" fill="#BDE5EB"/>
<path d="M128.783 141.792L125.599 153.082L136.889 156.266L140.073 144.976L128.783 141.792Z" fill="#A1DBE1"/>
<path d="M128.942 141.196L125.758 152.485L137.047 155.669L140.231 144.38L128.942 141.196Z" fill="#A1D9E1"/>
<path d="M129.11 140.602L125.926 151.892L137.216 155.076L140.4 143.786L129.11 140.602Z" fill="#A1D8E0"/>
<path d="M129.288 140.008L126.104 151.298L137.394 154.482L140.578 143.192L129.288 140.008Z" fill="#A2D7E0"/>
<path d="M129.444 139.411L126.26 150.701L137.55 153.885L140.734 142.595L129.444 139.411Z" fill="#A2D7E0"/>
<path d="M129.613 138.818L126.429 150.107L137.718 153.291L140.902 142.002L129.613 138.818Z" fill="#A2D6E0"/>
<path d="M129.781 138.221L126.597 149.511L137.887 152.695L141.071 141.405L129.781 138.221Z" fill="#A2D5E0"/>
<path d="M129.95 137.627L126.766 148.917L138.055 152.101L141.239 140.811L129.95 137.627Z" fill="#A2D5E0"/>
<path d="M130.125 137.043L126.941 148.333L138.231 151.517L141.415 140.227L130.125 137.043Z" fill="#A2D4E0"/>
<path d="M130.284 136.447L127.1 147.736L138.389 150.92L141.573 139.631L130.284 136.447Z" fill="#A2D3E0"/>
<path d="M130.452 135.853L127.268 147.143L138.558 150.327L141.742 139.037L130.452 135.853Z" fill="#A2D3E0"/>
<path d="M130.621 135.247L127.437 146.536L138.726 149.72L141.91 138.431L130.621 135.247Z" fill="#A2D2E0"/>
<path d="M130.786 134.662L127.602 145.952L138.892 149.136L142.076 137.846L130.786 134.662Z" fill="#A2D2E0"/>
<path d="M130.965 134.069L127.781 145.358L139.07 148.542L142.254 137.253L130.965 134.069Z" fill="#A2D1E0"/>
<path d="M131.123 133.472L127.939 144.762L139.229 147.946L142.413 136.656L131.123 133.472Z" fill="#A2D1E0"/>
<path d="M131.292 132.878L128.108 144.168L139.397 147.352L142.581 136.062L131.292 132.878Z" fill="#A2D0E0"/>
<path d="M131.458 132.292L128.274 143.581L139.563 146.765L142.747 135.476L131.458 132.292Z" fill="#A3CFE0"/>
<path d="M131.626 131.698L128.442 142.987L139.732 146.171L142.916 134.882L131.626 131.698Z" fill="#A3CFE0"/>
<path d="M131.794 131.094L128.61 142.384L139.9 145.568L143.084 134.278L131.794 131.094Z" fill="#A3CEE0"/>
<path d="M131.963 130.498L128.779 141.787L140.068 144.971L143.252 133.682L131.963 130.498Z" fill="#A3CEE0"/>
<path d="M135.14 119.222L131.956 130.512L143.246 133.696L146.43 122.406L135.14 119.222Z" fill="#719AD1"/>
<path d="M138.329 107.93L135.145 119.22L146.435 122.404L149.619 111.114L138.329 107.93Z" fill="#719AD1"/>
<path d="M141.516 96.6451L138.332 107.935L149.622 111.119L152.806 99.8291L141.516 96.6451Z" fill="#719AD1"/>
<path d="M144.693 85.3599L141.509 96.6495L152.799 99.8335L155.983 88.5439L144.693 85.3599Z" fill="#719AD1"/>
<path d="M95.495 302.976L92.311 314.266L103.601 317.45L106.785 306.16L95.495 302.976Z" fill="#6BCCE2"/>
<path d="M98.6817 291.693L95.5004 302.973L106.79 306.157L109.971 294.877L98.6817 291.693Z" fill="#BDE5EB"/>
<path d="M101.861 280.399L98.6775 291.688L109.967 294.872L113.151 283.583L101.861 280.399Z" fill="#BDE5EB"/>
<path d="M105.039 269.113L101.855 280.403L113.144 283.587L116.328 272.297L105.039 269.113Z" fill="#BDE5EB"/>
<path d="M108.228 257.831L105.044 269.121L116.334 272.305L119.518 261.015L108.228 257.831Z" fill="#BDE5EB"/>
<path d="M111.405 246.546L108.221 257.836L119.511 261.02L122.695 249.73L111.405 246.546Z" fill="#BDE5EB"/>
<path d="M114.595 235.251L111.411 246.541L122.7 249.725L125.884 238.435L114.595 235.251Z" fill="#BDE5EB"/>
<path d="M117.781 223.969L114.597 235.259L125.887 238.443L129.071 227.153L117.781 223.969Z" fill="#BDE5EB"/>
<path d="M120.961 212.684L117.777 223.974L129.067 227.158L132.251 215.868L120.961 212.684Z" fill="#BDE5EB"/>
<path d="M124.138 201.399L120.954 212.689L132.244 215.873L135.428 204.583L124.138 201.399Z" fill="#BDE5EB"/>
<path d="M127.335 190.117L124.151 201.406L135.441 204.59L138.625 193.301L127.335 190.117Z" fill="#BDE5EB"/>
<path d="M130.515 178.822L127.331 190.111L138.62 193.295L141.804 182.006L130.515 178.822Z" fill="#BDE5EB"/>
<path d="M133.692 167.547L130.508 178.836L141.797 182.02L144.981 170.731L133.692 167.547Z" fill="#BDE5EB"/>
<path d="M136.879 156.264L133.697 167.544L144.987 170.728L148.168 159.448L136.879 156.264Z" fill="#A1DBE1"/>
<path d="M140.058 144.969L136.874 156.259L148.164 159.443L151.348 148.153L140.058 144.969Z" fill="#719AD1"/>
<path d="M143.255 133.697L140.071 144.987L151.361 148.171L154.545 136.881L143.255 133.697Z" fill="#719AD1"/>
<path d="M106.78 306.156L103.596 317.445L114.885 320.629L118.069 309.34L106.78 306.156Z" fill="#6BCCE2"/>
<path d="M109.954 294.88L106.773 306.16L118.062 309.344L121.244 298.064L109.954 294.88Z" fill="#BDE5EB"/>
<path d="M113.146 283.578L109.962 294.868L121.252 298.052L124.436 286.762L113.146 283.578Z" fill="#BDE5EB"/>
<path d="M116.333 272.303L113.149 283.593L124.439 286.777L127.623 275.487L116.333 272.303Z" fill="#BDE5EB"/>
<path d="M119.513 261.008L116.329 272.298L127.619 275.482L130.803 264.192L119.513 261.008Z" fill="#BDE5EB"/>
<path d="M122.7 249.726L119.516 261.016L130.805 264.2L133.989 252.91L122.7 249.726Z" fill="#BDE5EB"/>
<path d="M125.877 238.441L122.693 249.73L133.982 252.914L137.166 241.625L125.877 238.441Z" fill="#BDE5EB"/>
<path d="M129.067 227.156L125.883 238.446L137.172 241.63L140.356 230.34L129.067 227.156Z" fill="#BDE5EB"/>
<path d="M132.253 215.874L129.069 227.163L140.359 230.347L143.543 219.058L132.253 215.874Z" fill="#BDE5EB"/>
<path d="M135.433 204.579L132.249 215.868L143.539 219.052L146.723 207.763L135.433 204.579Z" fill="#BDE5EB"/>
<path d="M138.61 193.294L135.426 204.583L146.716 207.767L149.9 196.478L138.61 193.294Z" fill="#BDE5EB"/>
<path d="M141.8 182.009L138.616 193.298L149.906 196.482L153.09 185.193L141.8 182.009Z" fill="#BDE5EB"/>
<path d="M144.987 170.726L141.803 182.016L153.092 185.2L156.276 173.91L144.987 170.726Z" fill="#A1DBE1"/>
<path d="M148.161 159.451L144.98 170.731L156.269 173.915L159.451 162.635L148.161 159.451Z" fill="#719AD1"/>
<path d="M118.065 309.333L114.881 320.622L126.171 323.806L129.355 312.517L118.065 309.333Z" fill="#6BCCE2"/>
<path d="M121.249 298.06L118.068 309.34L129.357 312.524L132.539 301.244L121.249 298.06Z" fill="#BDE5EB"/>
<path d="M124.429 286.775L121.245 298.065L132.534 301.249L135.718 289.959L124.429 286.775Z" fill="#BDE5EB"/>
<path d="M127.609 275.48L124.425 286.77L135.714 289.954L138.898 278.664L127.609 275.48Z" fill="#BDE5EB"/>
<path d="M130.805 264.198L127.621 275.487L138.911 278.671L142.095 267.382L130.805 264.198Z" fill="#BDE5EB"/>
<path d="M133.985 252.903L130.801 264.193L142.091 267.377L145.275 256.087L133.985 252.903Z" fill="#BDE5EB"/>
<path d="M137.162 241.628L133.978 252.918L145.268 256.102L148.452 244.812L137.162 241.628Z" fill="#BDE5EB"/>
<path d="M140.351 230.336L137.167 241.625L148.457 244.809L151.641 233.52L140.351 230.336Z" fill="#BDE5EB"/>
<path d="M143.539 219.051L140.355 230.34L151.644 233.524L154.828 222.235L143.539 219.051Z" fill="#BDE5EB"/>
<path d="M146.716 207.766L143.532 219.055L154.821 222.239L158.005 210.949L146.716 207.766Z" fill="#BDE5EB"/>
<path d="M149.905 196.483L146.721 207.773L158.011 210.957L161.195 199.667L149.905 196.483Z" fill="#BDE5EB"/>
<path d="M153.082 185.198L149.898 196.488L161.188 199.672L164.372 188.382L153.082 185.198Z" fill="#A1DBE1"/>
<path d="M156.272 173.903L153.088 185.193L164.377 188.377L167.561 177.087L156.272 173.903Z" fill="#719AD1"/>
<path d="M129.357 312.522L126.173 323.812L137.463 326.996L140.647 315.706L129.357 312.522Z" fill="#6BCCE2"/>
<path d="M132.534 301.247L129.353 312.527L140.642 315.711L143.824 304.431L132.534 301.247Z" fill="#BDE5EB"/>
<path d="M135.714 289.952L132.53 301.242L143.82 304.426L147.004 293.136L135.714 289.952Z" fill="#BDE5EB"/>
<path d="M138.901 278.67L135.717 289.959L147.006 293.143L150.19 281.854L138.901 278.67Z" fill="#BDE5EB"/>
<path d="M142.08 267.375L138.896 278.665L150.186 281.849L153.37 270.559L142.08 267.375Z" fill="#BDE5EB"/>
<path d="M145.267 256.1L142.083 267.389L153.373 270.573L156.557 259.284L145.267 256.1Z" fill="#BDE5EB"/>
<path d="M148.457 244.808L145.273 256.097L156.562 259.281L159.746 247.992L148.457 244.808Z" fill="#BDE5EB"/>
<path d="M151.634 233.523L148.45 244.812L159.74 247.996L162.923 236.707L151.634 233.523Z" fill="#BDE5EB"/>
<path d="M154.814 222.228L151.63 233.517L162.919 236.701L166.103 225.412L154.814 222.228Z" fill="#BDE5EB"/>
<path d="M158.01 210.955L154.826 222.245L166.116 225.429L169.3 214.139L158.01 210.955Z" fill="#BDE5EB"/>
<path d="M161.187 199.67L158.003 210.96L169.293 214.144L172.477 202.854L161.187 199.67Z" fill="#BDE5EB"/>
<path d="M164.367 188.375L161.183 199.665L172.473 202.849L175.657 191.559L164.367 188.375Z" fill="#719AD1"/>
<path d="M140.642 315.709L137.458 326.999L148.748 330.183L151.932 318.893L140.642 315.709Z" fill="#6BCCE2"/>
<path d="M143.817 304.434L140.635 315.714L151.925 318.898L155.106 307.618L143.817 304.434Z" fill="#BDE5EB"/>
<path d="M147.009 293.132L143.825 304.422L155.114 307.606L158.298 296.316L147.009 293.132Z" fill="#BDE5EB"/>
<path d="M150.186 281.847L147.002 293.136L158.291 296.32L161.475 285.031L150.186 281.847Z" fill="#BDE5EB"/>
<path d="M153.375 270.565L150.191 281.854L161.481 285.038L164.665 273.749L153.375 270.565Z" fill="#BDE5EB"/>
<path d="M156.552 259.28L153.368 270.569L164.658 273.753L167.842 262.464L156.552 259.28Z" fill="#BDE5EB"/>
<path d="M159.739 247.994L156.555 259.284L167.845 262.468L171.029 251.178L159.739 247.994Z" fill="#BDE5EB"/>
<path d="M162.919 236.7L159.735 247.989L171.025 251.173L174.209 239.884L162.919 236.7Z" fill="#BDE5EB"/>
<path d="M166.106 225.427L162.922 236.717L174.211 239.901L177.395 228.611L166.106 225.427Z" fill="#BDE5EB"/>
<path d="M169.286 214.132L166.102 225.422L177.391 228.606L180.575 217.316L169.286 214.132Z" fill="#BDE5EB"/>
<path d="M172.473 202.847L169.289 214.137L180.578 217.321L183.762 206.031L172.473 202.847Z" fill="#BDE5EB"/>
<path d="M175.662 191.555L172.478 202.845L183.768 206.029L186.952 194.739L175.662 191.555Z" fill="#719AD1"/>
<path d="M151.917 318.886L148.733 330.176L160.023 333.36L163.207 322.07L151.917 318.886Z" fill="#6BCCE2"/>
<path d="M155.101 307.613L151.92 318.893L163.21 322.077L166.391 310.797L155.101 307.613Z" fill="#BDE5EB"/>
<path d="M158.281 296.319L155.097 307.608L166.387 310.792L169.571 299.503L158.281 296.319Z" fill="#BDE5EB"/>
<path d="M161.481 285.037L158.297 296.326L169.586 299.51L172.77 288.221L161.481 285.037Z" fill="#BDE5EB"/>
<path d="M164.658 273.751L161.474 285.041L172.763 288.225L175.947 276.935L164.658 273.751Z" fill="#BDE5EB"/>
<path d="M167.837 262.457L164.653 273.746L175.943 276.93L179.127 265.641L167.837 262.457Z" fill="#BDE5EB"/>
<path d="M171.024 251.174L167.84 262.464L179.13 265.648L182.314 254.358L171.024 251.174Z" fill="#BDE5EB"/>
<path d="M174.214 239.889L171.03 251.179L182.319 254.363L185.503 243.073L174.214 239.889Z" fill="#BDE5EB"/>
<path d="M177.391 228.604L174.207 239.894L185.497 243.078L188.681 231.788L177.391 228.604Z" fill="#BDE5EB"/>
<path d="M180.578 217.322L177.394 228.611L188.683 231.795L191.867 220.506L180.578 217.322Z" fill="#BDE5EB"/>
<path d="M183.757 206.027L180.573 217.317L191.863 220.501L195.047 209.211L183.757 206.027Z" fill="#719AD1"/>
<path d="M84.2126 299.779L81.0286 311.069L92.3182 314.253L95.5022 302.963L84.2126 299.779Z" fill="#6BCCE2"/>
<path d="M85.1757 300.059L81.9917 311.349L93.2813 314.533L96.4653 303.243L85.1757 300.059Z" fill="#6CCBE1"/>
<path d="M86.1612 300.332L82.9772 311.621L94.2668 314.805L97.4508 303.516L86.1612 300.332Z" fill="#6CCAE1"/>
<path d="M87.1344 300.611L83.9504 311.901L95.24 315.085L98.424 303.795L87.1344 300.611Z" fill="#6CC9E0"/>
<path d="M88.1099 300.884L84.9259 312.174L96.2155 315.358L99.3995 304.068L88.1099 300.884Z" fill="#6DC8E0"/>
<path d="M89.0831 301.164L85.8991 312.454L97.1887 315.638L100.373 304.348L89.0831 301.164Z" fill="#6DC7E0"/>
<path d="M90.0586 301.437L86.8746 312.726L98.1642 315.91L101.348 304.621L90.0586 301.437Z" fill="#6DC7DF"/>
<path d="M91.0317 301.716L87.8477 313.006L99.1373 316.19L102.321 304.9L91.0317 301.716Z" fill="#6DC6DF"/>
<path d="M92.0072 301.989L88.8232 313.279L100.113 316.463L103.297 305.173L92.0072 301.989Z" fill="#6DC5DF"/>
<path d="M92.9804 302.269L89.7964 313.559L101.086 316.743L104.27 305.453L92.9804 302.269Z" fill="#6DC5DF"/>
<path d="M93.9659 302.542L90.7819 313.831L102.071 317.015L105.255 305.726L93.9659 302.542Z" fill="#6DC4DE"/>
<path d="M94.9387 302.814L91.7547 314.104L103.044 317.288L106.228 305.998L94.9387 302.814Z" fill="#6DC4DE"/>
<path d="M95.9145 303.084L92.7305 314.374L104.02 317.558L107.204 306.268L95.9145 303.084Z" fill="#6DC3DE"/>
<path d="M96.89 303.357L93.706 314.647L104.996 317.831L108.18 306.541L96.89 303.357Z" fill="#6DC2DE"/>
<path d="M97.8632 303.637L94.6792 314.926L105.969 318.11L109.153 306.821L97.8632 303.637Z" fill="#6DC2DE"/>
<path d="M98.8387 303.91L95.6547 315.199L106.944 318.383L110.128 307.094L98.8387 303.91Z" fill="#6EC1DD"/>
<path d="M99.8119 304.189L96.6279 315.479L107.917 318.663L111.101 307.373L99.8119 304.189Z" fill="#6EC1DD"/>
<path d="M100.797 304.462L97.6134 315.752L108.903 318.936L112.087 307.646L100.797 304.462Z" fill="#6EC0DD"/>
<path d="M101.761 304.742L98.5765 316.031L109.866 319.215L113.05 307.926L101.761 304.742Z" fill="#6EBFDD"/>
<path d="M102.746 305.015L99.562 316.304L110.852 319.488L114.036 308.199L102.746 305.015Z" fill="#6EBFDD"/>
<path d="M103.709 305.294L100.525 316.584L111.815 319.768L114.999 308.478L103.709 305.294Z" fill="#6EBEDC"/>
<path d="M104.695 305.567L101.511 316.857L112.8 320.041L115.984 308.751L104.695 305.567Z" fill="#6EBEDC"/>
<path d="M105.658 305.847L102.474 317.136L113.763 320.32L116.947 309.031L105.658 305.847Z" fill="#6EBDDC"/>
<path d="M106.643 306.12L103.459 317.409L114.749 320.593L117.933 309.304L106.643 306.12Z" fill="#6EBDDC"/>
<path d="M107.619 306.38L104.435 317.669L115.725 320.853L118.909 309.564L107.619 306.38Z" fill="#6EBCDC"/>
<path d="M108.592 306.662L105.408 317.952L116.698 321.136L119.882 309.846L108.592 306.662Z" fill="#6EBBDB"/>
<path d="M109.568 306.932L106.384 318.222L117.673 321.406L120.857 310.116L109.568 306.932Z" fill="#6EBBDB"/>
<path d="M110.541 307.215L107.357 318.504L118.646 321.688L121.83 310.399L110.541 307.215Z" fill="#6EBADB"/>
<path d="M111.517 307.485L108.333 318.774L119.622 321.958L122.806 310.669L111.517 307.485Z" fill="#6EB9DB"/>
<path d="M112.489 307.767L109.305 319.057L120.595 322.241L123.779 310.951L112.489 307.767Z" fill="#6EB9DB"/>
<path d="M113.465 308.037L110.281 319.327L121.571 322.511L124.755 311.221L113.465 308.037Z" fill="#6EB8DA"/>
<path d="M114.448 308.32L111.264 319.609L122.554 322.793L125.738 311.504L114.448 308.32Z" fill="#6EB8DA"/>
<path d="M115.414 308.59L112.23 319.879L123.519 323.063L126.703 311.774L115.414 308.59Z" fill="#6EB7DA"/>
<path d="M116.397 308.872L113.213 320.162L124.502 323.346L127.686 312.056L116.397 308.872Z" fill="#6EB7DA"/>
<path d="M117.363 309.142L114.179 320.432L125.468 323.616L128.652 312.326L117.363 309.142Z" fill="#6FB6DA"/>
<path d="M118.345 309.425L115.161 320.714L126.451 323.898L129.635 312.609L118.345 309.425Z" fill="#6FB5D9"/>
<path d="M119.311 309.695L116.127 320.984L127.417 324.168L130.601 312.879L119.311 309.695Z" fill="#6FB5D9"/>
<path d="M120.297 309.957L117.113 321.247L128.402 324.431L131.586 313.141L120.297 309.957Z" fill="#6FB4D9"/>
<path d="M121.279 310.24L118.095 321.529L129.385 324.713L132.569 313.424L121.279 310.24Z" fill="#6FB4D9"/>
<path d="M122.245 310.51L119.061 321.8L130.351 324.984L133.535 313.694L122.245 310.51Z" fill="#6FB3D9"/>
<path d="M123.228 310.792L120.044 322.082L131.334 325.266L134.518 313.976L123.228 310.792Z" fill="#6FB2D8"/>
<path d="M124.194 311.062L121.01 322.352L132.3 325.536L135.484 314.246L124.194 311.062Z" fill="#6FB2D8"/>
<path d="M125.177 311.345L121.993 322.634L133.282 325.818L136.466 314.529L125.177 311.345Z" fill="#6FB1D8"/>
<path d="M126.143 311.615L122.959 322.905L134.248 326.089L137.432 314.799L126.143 311.615Z" fill="#6FB1D8"/>
<path d="M127.125 311.897L123.941 323.187L135.231 326.371L138.415 315.081L127.125 311.897Z" fill="#6FB0D7"/>
<path d="M128.101 312.167L124.917 323.457L136.207 326.641L139.391 315.351L128.101 312.167Z" fill="#6FAFD7"/>
<path d="M129.074 312.45L125.89 323.74L137.18 326.923L140.364 315.634L129.074 312.45Z" fill="#6FAFD7"/>
<path d="M130.05 312.72L126.866 324.01L138.156 327.194L141.34 315.904L130.05 312.72Z" fill="#6FAED7"/>
<path d="M131.023 313.002L127.839 324.292L139.128 327.476L142.312 316.186L131.023 313.002Z" fill="#6FAED7"/>
<path d="M131.999 313.273L128.815 324.562L140.104 327.746L143.288 316.456L131.999 313.273Z" fill="#6FADD6"/>
<path d="M132.974 313.535L129.79 324.825L141.08 328.009L144.264 316.719L132.974 313.535Z" fill="#6FACD6"/>
<path d="M133.947 313.815L130.763 325.105L142.053 328.289L145.237 316.999L133.947 313.815Z" fill="#6FACD6"/>
<path d="M134.933 314.088L131.749 325.377L143.038 328.561L146.222 317.272L134.933 314.088Z" fill="#6FABD6"/>
<path d="M135.896 314.367L132.712 325.657L144.002 328.841L147.186 317.551L135.896 314.367Z" fill="#70ABD6"/>
<path d="M136.881 314.64L133.697 325.93L144.987 329.114L148.171 317.824L136.881 314.64Z" fill="#70AAD5"/>
<path d="M137.845 314.92L134.661 326.21L145.95 329.394L149.134 318.104L137.845 314.92Z" fill="#70A9D5"/>
<path d="M138.83 315.193L135.646 326.482L146.936 329.666L150.12 318.377L138.83 315.193Z" fill="#70A9D5"/>
<path d="M139.793 315.472L136.609 326.762L147.899 329.946L151.083 318.656L139.793 315.472Z" fill="#70A8D5"/>
<path d="M140.779 315.745L137.595 327.035L148.884 330.219L152.068 318.929L140.779 315.745Z" fill="#70A8D4"/>
<path d="M141.752 316.025L138.568 327.315L149.858 330.499L153.042 319.209L141.752 316.025Z" fill="#70A7D4"/>
<path d="M142.727 316.298L139.543 327.587L150.833 330.771L154.017 319.482L142.727 316.298Z" fill="#70A6D4"/>
<path d="M143.703 316.568L140.519 327.857L151.809 331.041L154.993 319.752L143.703 316.568Z" fill="#70A6D4"/>
<path d="M144.676 316.85L141.492 328.14L152.782 331.324L155.966 320.034L144.676 316.85Z" fill="#70A5D4"/>
<path d="M145.652 317.11L142.468 328.4L153.758 331.584L156.942 320.294L145.652 317.11Z" fill="#70A5D3"/>
<path d="M146.625 317.393L143.441 328.682L154.73 331.866L157.914 320.577L146.625 317.393Z" fill="#70A4D3"/>
<path d="M147.61 317.666L144.426 328.955L155.716 332.139L158.9 320.85L147.61 317.666Z" fill="#70A3D3"/>
<path d="M148.583 317.945L145.399 329.235L156.689 332.419L159.873 321.129L148.583 317.945Z" fill="#70A3D3"/>
<path d="M149.559 318.218L146.375 329.508L157.664 332.692L160.848 321.402L149.559 318.218Z" fill="#70A2D3"/>
<path d="M150.532 318.498L147.348 329.787L158.638 332.971L161.822 321.682L150.532 318.498Z" fill="#70A2D2"/>
<path d="M151.508 318.771L148.324 330.06L159.613 333.244L162.797 321.955L151.508 318.771Z" fill="#70A1D2"/>
<path d="M152.481 319.05L149.297 330.34L160.586 333.524L163.77 322.234L152.481 319.05Z" fill="#70A0D2"/>
<path d="M153.456 319.323L150.272 330.613L161.562 333.797L164.746 322.507L153.456 319.323Z" fill="#70A0D2"/>
<path d="M154.429 319.603L151.245 330.892L162.535 334.076L165.719 322.787L154.429 319.603Z" fill="#709FD2"/>
<path d="M155.415 319.876L152.231 331.165L163.52 334.349L166.704 323.06L155.415 319.876Z" fill="#709FD1"/>
<path d="M156.381 320.146L153.197 331.435L164.486 334.619L167.67 323.33L156.381 320.146Z" fill="#709ED1"/>
<path d="M157.364 320.428L154.18 331.718L165.469 334.902L168.653 323.612L157.364 320.428Z" fill="#709DD1"/>
<path d="M158.329 320.688L155.145 331.978L166.435 335.162L169.619 323.872L158.329 320.688Z" fill="#709DD1"/>
<path d="M159.312 320.971L156.128 332.26L167.418 335.444L170.602 324.155L159.312 320.971Z" fill="#709CD1"/>
<path d="M160.278 321.241L157.094 332.53L168.384 335.714L171.568 324.425L160.278 321.241Z" fill="#719CD1"/>
<path d="M161.261 321.523L158.077 332.813L169.366 335.997L172.55 324.707L161.261 321.523Z" fill="#719BD1"/>
<path d="M162.237 321.793L159.053 333.083L170.342 336.267L173.526 324.977L162.237 321.793Z" fill="#719AD1"/>
<path d="M163.21 322.076L160.026 333.365L171.315 336.549L174.499 325.26L163.21 322.076Z" fill="#719AD1"/>
<path d="M166.387 310.791L163.205 322.07L174.495 325.254L177.676 313.975L166.387 310.791Z" fill="#BDE5EB"/>
<path d="M169.576 299.508L166.392 310.798L177.682 313.982L180.866 302.692L169.576 299.508Z" fill="#BDE5EB"/>
<path d="M172.756 288.214L169.572 299.503L180.861 302.687L184.045 291.398L172.756 288.214Z" fill="#BDE5EB"/>
<path d="M175.943 276.928L172.759 288.218L184.048 291.402L187.232 280.112L175.943 276.928Z" fill="#BDE5EB"/>
<path d="M179.129 265.646L175.945 276.936L187.235 280.12L190.419 268.83L179.129 265.646Z" fill="#BDE5EB"/>
<path d="M182.309 254.361L179.125 265.651L190.415 268.835L193.599 257.545L182.309 254.361Z" fill="#BDE5EB"/>
<path d="M185.486 243.076L182.302 254.366L193.592 257.55L196.776 246.26L185.486 243.076Z" fill="#BDE5EB"/>
<path d="M188.686 231.784L185.502 243.074L196.791 246.258L199.975 234.968L188.686 231.784Z" fill="#BDE5EB"/>
<path d="M191.863 220.499L188.679 231.788L199.968 234.972L203.152 223.683L191.863 220.499Z" fill="#BDE5EB"/>
<path d="M195.043 209.214L191.859 220.504L203.148 223.688L206.332 212.398L195.043 209.214Z" fill="#719AD1"/>
<path d="M177.681 313.98L174.5 325.26L185.79 328.444L188.971 317.164L177.681 313.98Z" fill="#719AD1"/>
<path d="M180.861 302.686L177.677 313.975L188.967 317.159L192.151 305.87L180.861 302.686Z" fill="#BDE5EB"/>
<path d="M184.038 291.4L180.854 302.69L192.144 305.874L195.328 294.584L184.038 291.4Z" fill="#BDE5EB"/>
<path d="M187.228 280.108L184.044 291.398L195.333 294.582L198.517 283.292L187.228 280.108Z" fill="#BDE5EB"/>
<path d="M190.415 268.833L187.231 280.123L198.52 283.307L201.704 272.017L190.415 268.833Z" fill="#BDE5EB"/>
<path d="M193.594 257.538L190.41 268.828L201.7 272.012L204.884 260.722L193.594 257.538Z" fill="#BDE5EB"/>
<path d="M196.781 246.256L193.597 257.545L204.887 260.729L208.071 249.44L196.781 246.256Z" fill="#BDE5EB"/>
<path d="M199.958 234.971L196.774 246.26L208.064 249.444L211.248 238.155L199.958 234.971Z" fill="#BDE5EB"/>
<path d="M203.148 223.686L199.964 234.975L211.254 238.159L214.438 226.87L203.148 223.686Z" fill="#BDE5EB"/>
<path d="M206.335 212.403L203.151 223.693L214.44 226.877L217.624 215.587L206.335 212.403Z" fill="#719AD1"/>
<path d="M188.964 317.167L185.783 328.447L197.072 331.631L200.253 320.351L188.964 317.167Z" fill="#719AD1"/>
<path d="M192.153 305.875L188.969 317.164L200.259 320.348L203.443 309.059L192.153 305.875Z" fill="#BDE5EB"/>
<path d="M195.333 294.58L192.149 305.87L203.439 309.054L206.623 297.764L195.333 294.58Z" fill="#BDE5EB"/>
<path d="M198.51 283.305L195.326 294.594L206.616 297.778L209.8 286.489L198.51 283.305Z" fill="#BDE5EB"/>
<path d="M201.709 272.013L198.525 283.302L209.815 286.486L212.999 275.197L201.709 272.013Z" fill="#BDE5EB"/>
<path d="M204.887 260.728L201.703 272.017L212.992 275.201L216.176 263.912L204.887 260.728Z" fill="#BDE5EB"/>
<path d="M208.066 249.433L204.882 260.722L216.172 263.906L219.356 252.617L208.066 249.433Z" fill="#BDE5EB"/>
<path d="M211.253 238.16L208.069 249.45L219.359 252.634L222.543 241.344L211.253 238.16Z" fill="#BDE5EB"/>
<path d="M214.43 226.875L211.246 238.165L222.536 241.349L225.72 230.059L214.43 226.875Z" fill="#BDE5EB"/>
<path d="M217.62 215.58L214.436 226.87L225.725 230.054L228.909 218.764L217.62 215.58Z" fill="#719AD1"/>
<path d="M203.428 309.052L200.244 320.342L211.534 323.526L214.718 312.236L203.428 309.052Z" fill="#719AD1"/>
<path d="M206.618 297.767L203.434 309.057L214.724 312.241L217.908 300.951L206.618 297.767Z" fill="#BDE5EB"/>
<path d="M209.805 286.485L206.621 297.774L217.91 300.958L221.094 289.669L209.805 286.485Z" fill="#BDE5EB"/>
<path d="M212.982 275.2L209.798 286.489L221.087 289.673L224.271 278.384L212.982 275.2Z" fill="#BDE5EB"/>
<path d="M216.162 263.905L212.978 275.194L224.267 278.378L227.451 267.089L216.162 263.905Z" fill="#BDE5EB"/>
<path d="M219.358 252.632L216.174 263.922L227.464 267.106L230.648 255.816L219.358 252.632Z" fill="#BDE5EB"/>
<path d="M222.538 241.337L219.354 252.627L230.644 255.811L233.828 244.521L222.538 241.337Z" fill="#BDE5EB"/>
<path d="M225.715 230.052L222.531 241.342L233.821 244.526L237.005 233.236L225.715 230.052Z" fill="#BDE5EB"/>
<path d="M228.905 218.76L225.721 230.05L237.01 233.234L240.194 221.944L228.905 218.76Z" fill="#719AD1"/>
<path d="M214.723 312.242L211.539 323.531L222.819 326.713L226.003 315.423L214.723 312.242Z" fill="#719AD1"/>
<path d="M217.9 300.957L214.716 312.246L225.996 315.427L229.18 304.138L217.9 300.957Z" fill="#BDE5EB"/>
<path d="M221.09 289.662L217.906 300.951L229.186 304.133L232.37 292.843L221.09 289.662Z" fill="#BDE5EB"/>
<path d="M224.267 278.377L221.083 289.666L232.363 292.847L235.547 281.558L224.267 278.377Z" fill="#BDE5EB"/>
<path d="M227.454 267.094L224.27 278.384L235.55 281.565L238.734 270.275L227.454 267.094Z" fill="#BDE5EB"/>
<path d="M230.634 255.809L227.45 267.099L238.73 270.28L241.914 258.991L230.634 255.809Z" fill="#BDE5EB"/>
<path d="M233.821 244.524L230.637 255.814L241.917 258.995L245.101 247.705L233.821 244.524Z" fill="#BDE5EB"/>
<path d="M237.01 233.232L233.826 244.522L245.106 247.703L248.29 236.413L237.01 233.232Z" fill="#BDE5EB"/>
<path d="M240.187 221.947L237.003 233.237L248.283 236.418L251.467 225.128L240.187 221.947Z" fill="#BDE5EB"/>
<path d="M243.367 210.662L240.183 221.952L251.463 225.133L254.647 213.843L243.367 210.662Z" fill="#719AD1"/>
<path d="M229.185 304.134L226.001 315.423L237.291 318.607L240.475 307.318L229.185 304.134Z" fill="#719AD1"/>
<path d="M232.362 292.848L229.178 304.138L240.468 307.322L243.652 296.032L232.362 292.848Z" fill="#BDE5EB"/>
<path d="M235.562 281.556L232.378 292.846L243.667 296.03L246.851 284.74L235.562 281.556Z" fill="#BDE5EB"/>
<path d="M238.739 270.281L235.555 281.571L246.845 284.755L250.029 273.465L238.739 270.281Z" fill="#BDE5EB"/>
<path d="M241.916 258.996L238.732 270.286L250.022 273.47L253.206 262.18L241.916 258.996Z" fill="#BDE5EB"/>
<path d="M245.105 247.704L241.921 258.994L253.211 262.178L256.395 250.888L245.105 247.704Z" fill="#BDE5EB"/>
<path d="M248.292 236.419L245.108 247.708L256.398 250.892L259.582 239.603L248.292 236.419Z" fill="#BDE5EB"/>
<path d="M251.472 225.134L248.288 236.424L259.578 239.608L262.762 228.318L251.472 225.134Z" fill="#BDE5EB"/>
<path d="M254.659 213.852L251.475 225.141L262.765 228.325L265.949 217.036L254.659 213.852Z" fill="#719AD1"/>
<path d="M243.657 296.028L240.473 307.318L251.763 310.502L254.947 299.212L243.657 296.028Z" fill="#719AD1"/>
<path d="M246.834 284.753L243.65 296.043L254.94 299.227L258.124 287.937L246.834 284.753Z" fill="#BDE5EB"/>
<path d="M250.024 273.458L246.84 284.748L258.13 287.932L261.314 276.642L250.024 273.458Z" fill="#BDE5EB"/>
<path d="M253.211 262.176L250.027 273.465L261.316 276.649L264.5 265.36L253.211 262.176Z" fill="#BDE5EB"/>
<path d="M256.388 250.891L253.204 262.18L264.493 265.364L267.677 254.075L256.388 250.891Z" fill="#BDE5EB"/>
<path d="M259.568 239.606L256.384 250.895L267.673 254.079L270.857 242.79L259.568 239.606Z" fill="#BDE5EB"/>
<path d="M262.764 228.323L259.58 239.613L270.87 242.797L274.054 231.507L262.764 228.323Z" fill="#BDE5EB"/>
<path d="M265.944 217.029L262.76 228.318L274.05 231.502L277.234 220.213L265.944 217.029Z" fill="#BDE5EB"/>
<path d="M269.121 205.743L265.937 217.033L277.227 220.217L280.411 208.927L269.121 205.743Z" fill="#719AD1"/>
<path d="M258.129 287.933L254.945 299.222L266.235 302.406L269.419 291.117L258.129 287.933Z" fill="#719AD1"/>
<path d="M261.306 276.648L258.122 287.937L269.412 291.121L272.596 279.832L261.306 276.648Z" fill="#BDE5EB"/>
<path d="M264.496 265.353L261.312 276.642L272.602 279.826L275.786 268.537L264.496 265.353Z" fill="#BDE5EB"/>
<path d="M267.683 254.08L264.499 265.37L275.788 268.554L278.972 257.264L267.683 254.08Z" fill="#BDE5EB"/>
<path d="M270.862 242.786L267.678 254.075L278.968 257.259L282.152 245.97L270.862 242.786Z" fill="#BDE5EB"/>
<path d="M274.039 231.5L270.855 242.79L282.145 245.974L285.329 234.684L274.039 231.5Z" fill="#BDE5EB"/>
<path d="M277.236 220.218L274.052 231.508L285.342 234.692L288.526 223.402L277.236 220.218Z" fill="#BDE5EB"/>
<path d="M280.416 208.933L277.232 220.223L288.522 223.407L291.706 212.117L280.416 208.933Z" fill="#BDE5EB"/>
<path d="M283.59 197.658L280.409 208.938L291.699 212.122L294.88 200.842L283.59 197.658Z" fill="#719AD1"/>
<path d="M272.591 279.825L269.407 291.114L280.697 294.298L283.881 283.009L272.591 279.825Z" fill="#719AD1"/>
<path d="M275.778 268.552L272.594 279.842L283.884 283.026L287.068 271.736L275.778 268.552Z" fill="#719AD1"/>
<path d="M278.968 257.257L275.784 268.547L287.073 271.731L290.257 260.441L278.968 257.257Z" fill="#BDE5EB"/>
<path d="M282.145 245.972L278.961 257.262L290.25 260.446L293.434 249.156L282.145 245.972Z" fill="#BDE5EB"/>
<path d="M285.334 234.68L282.15 245.97L293.44 249.154L296.624 237.864L285.334 234.68Z" fill="#BDE5EB"/>
<path d="M288.511 223.405L285.327 234.695L296.617 237.879L299.801 226.589L288.511 223.405Z" fill="#BDE5EB"/>
<path d="M291.701 212.11L288.517 223.4L299.807 226.584L302.991 215.294L291.701 212.11Z" fill="#BDE5EB"/>
<path d="M294.885 200.837L291.704 212.117L302.993 215.301L306.175 204.021L294.885 200.837Z" fill="#BDE5EB"/>
<path d="M298.065 189.543L294.881 200.832L306.17 204.016L309.354 192.727L298.065 189.543Z" fill="#6BCCE2"/>
<path d="M301.245 178.258L298.061 189.547L309.35 192.731L312.534 181.442L301.245 178.258Z" fill="#6BCCE2"/>
<path d="M290.243 260.435L287.059 271.724L298.349 274.908L301.533 263.619L290.243 260.435Z" fill="#719AD1"/>
<path d="M293.44 249.152L290.256 260.442L301.545 263.626L304.729 252.336L293.44 249.152Z" fill="#719AD1"/>
<path d="M296.617 237.877L293.433 249.167L304.722 252.35L307.906 241.061L296.617 237.877Z" fill="#BDE5EB"/>
<path d="M299.797 226.582L296.613 237.872L307.902 241.056L311.086 229.766L299.797 226.582Z" fill="#BDE5EB"/>
<path d="M302.983 215.3L299.799 226.589L311.089 229.773L314.273 218.484L302.983 215.3Z" fill="#BDE5EB"/>
<path d="M306.16 204.014L302.979 215.294L314.269 218.478L317.45 207.198L306.16 204.014Z" fill="#BDE5EB"/>
<path d="M309.36 192.732L306.176 204.022L317.465 207.206L320.649 195.916L309.36 192.732Z" fill="#BDE5EB"/>
<path d="M312.537 181.447L309.353 192.737L320.642 195.921L323.826 184.631L312.537 181.447Z" fill="#BDE5EB"/>
<path d="M315.717 170.152L312.533 181.442L323.822 184.626L327.006 173.336L315.717 170.152Z" fill="#719AD1"/>
<path d="M301.231 178.216L298.047 189.506L309.336 192.69L312.52 181.4L301.231 178.216Z" fill="#719AD1"/>
<path d="M298.067 189.474L294.883 200.763L306.173 203.947L309.357 192.658L298.067 189.474Z" fill="#719AD1"/>
<path d="M307.902 241.054L304.718 252.344L316.007 255.528L319.191 244.238L307.902 241.054Z" fill="#719AD1"/>
<path d="M311.089 229.772L307.905 241.061L319.194 244.245L322.378 232.956L311.089 229.772Z" fill="#719AD1"/>
<path d="M314.268 218.477L311.084 229.766L322.374 232.95L325.558 221.661L314.268 218.477Z" fill="#719AD1"/>
<path d="M317.452 207.214L314.271 218.494L325.561 221.678L328.742 210.398L317.452 207.214Z" fill="#719AD1"/>
<path d="M320.635 195.909L317.451 207.199L328.74 210.383L331.924 199.093L320.635 195.909Z" fill="#719AD1"/>
<path d="M323.822 184.624L320.638 195.914L331.928 199.098L335.112 187.808L323.822 184.624Z" fill="#719AD1"/>
<path d="M327.011 173.332L323.827 184.622L335.117 187.806L338.301 176.516L327.011 173.332Z" fill="#719AD1"/>
<path d="M330.185 162.072L327.001 173.362L338.29 176.546L341.474 165.256L330.185 162.072Z" fill="#719AD1"/>
<path d="M346.76 218.39H338.22V214.53H334.95V210.66H331.08L331.07 207.19L327.2 207.2V200.45H323.3V207.19L319.43 207.2L319.44 210.72H315.56V214.53H311.91V218.39H305.69V222.28H311.91V226.18H315.64V229.97H319.44L319.45 233.78L323.3 233.76V241.1H327.2V233.77L331.08 233.76L331.07 230.03H334.88V226.18H338.22V222.28H346.76V218.39Z" fill="#FEE991"/>
</g>
<defs>
<clipPath id="clip0_1_528">
<rect width="346.76" height="336.58" fill="white"/>
</clipPath>
</defs>
</svg>
