<svg width="104" height="119" viewBox="0 0 104 119" fill="none" xmlns="http://www.w3.org/2000/svg">
<path d="M43.3774 18.7777C45.4041 16.0686 45.7844 11.9528 44.6799 8.81122C42.6793 3.22624 35.8127 0.49627 30.6237 3.44506C27.5759 5.25288 27.3467 8.34234 27.0445 11.5672C26.9715 12.4217 26.9247 13.2761 26.8778 14.1305V13.9898C26.8413 26.009 27.1018 43.4933 27.1331 55.7001L27.4248 97.4103L23.8925 97.452C23.7623 86.2612 23.1371 74.9349 25.1012 63.8171C25.9921 59.2272 27.4196 54.3038 30.7956 50.8236C35.5678 45.8378 44.3413 45.9837 47.983 52.2251C51.1506 57.982 51.2183 69.3708 51.4267 76.0342C51.4579 77.7014 51.4788 81.0878 51.484 82.7601C51.4579 83.823 51.4423 84.9014 51.5153 85.959C51.583 86.9958 51.7132 88.0117 51.932 88.9912C52.1144 89.8768 52.3749 90.7052 52.9063 91.4189C54.3911 93.5654 57.3868 94.3261 59.825 93.4664C62.8832 92.3567 63.5657 89.981 64.1075 87.0635C64.764 83.8646 64.8942 80.4991 65.2693 77.2533C65.7122 73.7679 66.4311 70.2981 67.9316 67.0732C69.8227 62.9366 73.2769 59.7273 78.0752 59.8523C81.7742 59.7533 84.9939 61.5039 86.9215 64.6454C88.9169 67.7453 89.5109 71.3714 89.7818 74.9401C90.0214 78.0765 89.9433 81.1555 89.8026 84.2658C89.7661 86.6311 89.5942 89.1526 90.209 91.4033C90.6466 92.8204 91.6104 94.0916 92.7253 95.045C93.8819 95.988 95.4293 96.3735 96.8932 96.1026C100.988 95.3159 103.822 90.1373 103.541 86.1778C104.057 89.4809 102.629 93.159 100.233 95.467C97.9873 97.6604 94.4446 98.1241 91.8292 96.2746C90.3392 95.2013 89.0941 93.7373 88.4064 92.0285C87.479 89.5017 87.4686 86.8968 87.3123 84.2918C87.2185 81.2858 87.0674 78.238 86.6037 75.2996C86.2964 73.2261 85.7962 71.1525 85.1189 69.1988C84.0665 65.9479 82.0972 63.4159 78.4659 63.3898C73.6103 63.0512 71.2815 67.3962 70.0416 71.4599C69.2757 73.9867 68.8589 76.6542 68.6036 79.2852C68.4682 80.9106 68.3327 82.7133 68.1191 84.3335C67.8065 86.6519 67.447 89.0276 66.676 91.2574C65.7538 93.8103 63.5709 95.9568 60.9816 96.806C57.1263 98.1814 52.3905 96.8893 50.0252 93.4508C49.2333 92.3619 48.7488 91.0386 48.4935 89.7518C47.9725 87.4178 47.8892 85.0785 47.9569 82.7133C47.9465 78.4255 47.8996 73.7471 47.6808 69.4854C47.4359 65.2133 47.1233 60.7641 46.0032 56.6847C45.7219 55.7053 45.3676 54.7571 44.93 53.9964C43.5858 51.6572 40.8402 50.4954 38.1415 50.8809C31.775 51.7614 29.6598 58.9458 28.5814 64.4683C27.404 70.9181 27.2633 77.493 27.2477 84.0782C27.2477 88.4962 27.3623 92.935 27.4352 97.3895L23.9029 97.4311C23.8092 83.5833 23.5591 48.2395 23.4653 34.8606C23.4132 27.8846 23.3872 20.9086 23.283 13.9325C23.3611 12.9948 23.4861 12.057 23.6424 11.1244C24.0644 8.7487 24.4448 6.24276 25.8879 4.17444C26.7579 2.88239 28.0239 1.78832 29.4098 1.12146C36.8495 -2.43688 46.0501 2.8876 46.0345 11.2442C45.9928 13.9273 45.2634 16.7667 43.3931 18.7621L43.3774 18.7777Z" fill="#6190A2"/>
<path d="M0 40.0496C4.67325 35.2096 12.5818 35.7775 18.0366 38.992C20.9124 40.6435 23.658 42.9567 24.9553 46.1139C26.289 49.2502 26.4349 52.819 25.2522 55.8355L24.898 55.8095C24.4812 54.2569 24.0957 52.8242 23.5903 51.4749C22.6265 48.8074 21.1833 46.5307 19.4849 44.3061C17.8073 42.0502 15.4056 40.3466 12.7746 39.3202C9.77893 38.1063 6.31958 37.7364 3.20928 38.7732C2.76644 38.8982 2.34444 39.1118 1.92244 39.289C1.74531 39.3775 1.35978 39.5963 1.18264 39.6849C0.859631 39.8725 0.55746 40.0965 0.239658 40.3049L0.00521496 40.0392L0 40.0496Z" fill="#6190A2"/>
<path d="M40.2722 107.893C40.2722 108.262 40.0586 108.549 39.6262 108.752C39.2875 108.919 38.9072 108.997 38.4852 108.997C38.1049 108.997 37.6516 108.914 37.1359 108.742C36.495 108.523 36.1772 108.268 36.1772 107.976C36.1772 107.866 36.2189 107.773 36.2971 107.695C36.3752 107.616 36.469 107.575 36.5784 107.575C36.7399 107.575 36.8962 107.642 37.0369 107.773C37.2765 107.971 37.4016 108.08 37.4172 108.101C37.6308 108.221 38.0111 108.283 38.5686 108.283C39.0583 108.283 39.3084 108.169 39.3084 107.945C39.3084 107.757 39.0791 107.497 38.6155 107.163C38.2925 106.955 37.9694 106.752 37.6516 106.543C37.2401 106.262 36.9379 106.001 36.7503 105.751C36.5003 105.423 36.3752 105.048 36.3752 104.621C36.3752 104.084 36.5419 103.61 36.8702 103.188C37.2244 102.724 37.6621 102.495 38.183 102.495C38.6311 102.495 39.0114 102.62 39.324 102.865C39.6314 103.11 39.8294 103.454 39.9179 103.902C39.9388 104.074 39.97 104.324 40.0273 104.657C40.0534 104.756 40.0638 104.829 40.0638 104.876C40.0638 105.095 40.0273 105.282 39.9544 105.433C39.8606 105.642 39.72 105.746 39.5272 105.746C39.4178 105.746 39.3136 105.694 39.2146 105.595C39.1156 105.496 39.0635 105.387 39.0635 105.277C39.0635 105.199 39.0844 105.079 39.1156 104.923C39.1521 104.767 39.1729 104.652 39.1729 104.569C39.1729 103.745 38.8968 103.334 38.3498 103.334C38.0476 103.334 37.7923 103.464 37.5839 103.725C37.3755 103.985 37.2765 104.266 37.2765 104.579C37.2765 105.017 37.537 105.444 38.058 105.855C38.5373 106.179 39.0218 106.502 39.5064 106.825C40.0221 107.194 40.2826 107.554 40.2826 107.893H40.2722Z" fill="#DCBC60"/>
<path d="M44.0026 106.991C44.0026 107.538 43.8671 108.007 43.591 108.393C43.2732 108.836 42.8564 109.06 42.3302 109.06C41.804 109.06 41.3924 108.877 41.1163 108.513C40.8662 108.19 40.7412 107.752 40.7412 107.2C40.7412 106.647 40.8767 106.137 41.1528 105.652C41.4706 105.074 41.877 104.787 42.3823 104.787C42.5386 104.787 42.7366 104.855 42.9762 104.996C43.6587 105.402 43.9974 106.069 43.9974 106.991H44.0026ZM43.2003 106.976C43.2003 106.043 42.9762 105.579 42.523 105.579C42.2 105.579 41.9603 105.777 41.7936 106.173C41.6738 106.47 41.6113 106.809 41.6113 107.184C41.6113 107.992 41.8509 108.398 42.3302 108.398C42.6376 108.398 42.8721 108.231 43.0231 107.898C43.1378 107.642 43.1951 107.335 43.1951 106.976H43.2003Z" fill="#DCBC60"/>
<path d="M47.8318 108.726C47.738 108.867 47.6286 108.935 47.4931 108.935C47.3889 108.935 47.217 108.872 46.9826 108.752V108.643C46.9826 108.507 46.9826 108.309 46.993 108.049C46.9982 107.788 47.0034 107.596 47.0034 107.476C47.0034 106.173 46.8106 105.522 46.4251 105.522C46.3157 105.522 46.1907 105.605 46.0552 105.777C45.628 106.298 45.4092 106.929 45.4092 107.663C45.4092 107.768 45.43 107.919 45.4665 108.122C45.5029 108.325 45.5238 108.481 45.5238 108.58C45.5238 108.664 45.4821 108.737 45.404 108.789C45.3258 108.841 45.2425 108.872 45.1487 108.872C44.784 108.872 44.6017 108.643 44.6017 108.179V106.272C44.6017 106.225 44.6069 106.152 44.6225 106.059C44.6381 105.965 44.6433 105.892 44.6433 105.845C44.6433 105.772 44.6329 105.668 44.6121 105.527C44.5912 105.387 44.5808 105.282 44.5808 105.215C44.5808 105.116 44.6381 105.027 44.7475 104.939C44.8621 104.85 44.9611 104.808 45.0549 104.808C45.1904 104.808 45.3258 104.886 45.4665 105.038L45.4404 105.402C45.6645 105.043 45.9406 104.866 46.2688 104.866C46.4824 104.866 46.7064 104.939 46.9409 105.084C47.1805 105.23 47.3525 105.397 47.4619 105.579C47.7119 106.043 47.837 106.647 47.837 107.403V108.726H47.8318Z" fill="#DCBC60"/>
<path d="M51.5882 105.288C51.5309 105.59 51.4788 105.892 51.4319 106.189C51.3694 106.543 51.3433 106.84 51.3433 107.09V109.57C51.3433 110.018 51.2131 110.362 50.9578 110.602C50.7025 110.841 50.343 110.956 49.895 110.956C49.6032 110.956 49.2802 110.878 48.9312 110.727C48.5144 110.55 48.3008 110.336 48.3008 110.091C48.3008 110.008 48.3373 109.935 48.405 109.878C48.4727 109.82 48.5509 109.789 48.6394 109.789C48.6915 109.789 48.827 109.872 49.0302 110.034C49.2334 110.195 49.473 110.279 49.7439 110.279C50.0826 110.279 50.3118 110.154 50.4264 109.904C50.5098 109.732 50.5567 109.461 50.5567 109.08C50.5567 108.94 50.5567 108.825 50.5462 108.731C50.3483 108.867 50.119 108.935 49.8742 108.935C49.4157 108.935 49.0666 108.768 48.8166 108.44C48.5925 108.143 48.4779 107.762 48.4779 107.299C48.4779 107.252 48.5092 106.486 48.5665 105.001C48.7488 104.923 48.8947 104.881 49.0041 104.881C49.1239 104.881 49.3063 104.954 49.5407 105.1C49.3949 105.465 49.3219 106.194 49.3219 107.288C49.3219 107.986 49.4991 108.335 49.8481 108.335C50.1086 108.335 50.3118 108.117 50.4525 107.679C50.5567 107.361 50.6088 107.033 50.6088 106.694V105.585C50.6088 105.585 50.5983 105.491 50.5827 105.282C50.8328 105.163 51.0151 105.1 51.1402 105.1C51.2652 105.1 51.4215 105.157 51.5986 105.272L51.5882 105.288Z" fill="#DCBC60"/>
<path d="M55.2506 107.241C55.2506 108.023 55.2246 108.58 55.1777 108.898C55.1464 109.086 55.0214 109.179 54.7922 109.179C54.4535 109.179 54.3024 109.007 54.3337 108.669C54.0315 108.815 53.7137 108.888 53.3855 108.888C53.0573 108.888 52.7707 108.81 52.4842 108.648C52.1455 108.46 51.9736 108.221 51.9736 107.929C51.9736 107.637 52.1664 107.377 52.5571 107.127C52.9114 106.903 53.2396 106.788 53.5522 106.788H54.3285V106.569C54.3337 105.934 54.1461 105.621 53.7606 105.621C53.2813 105.621 53.0417 105.845 53.0417 106.288C53.0417 106.439 52.9583 106.512 52.7864 106.512C52.6822 106.512 52.5728 106.465 52.4634 106.371C52.3487 106.278 52.2966 106.179 52.2966 106.074C52.2966 105.736 52.4165 105.454 52.6613 105.236C52.9062 105.017 53.198 104.907 53.5366 104.907C54.6776 104.907 55.2506 105.684 55.2506 107.231V107.241ZM54.3285 107.57C54.3285 107.45 54.2347 107.387 54.0524 107.387C53.2917 107.387 52.9114 107.564 52.9114 107.924C52.9114 108.117 53.0781 108.216 53.4115 108.216C53.6199 108.216 53.8127 108.158 53.9951 108.044C54.2139 107.913 54.3233 107.757 54.3233 107.57H54.3285Z" fill="#DCBC60"/>
<path d="M61.836 103.126C61.7683 103.24 61.6537 103.396 61.487 103.584C61.3202 103.777 61.2056 103.923 61.1483 104.027C61.091 104.131 60.7263 105.069 60.049 106.845C59.476 108.361 59.0956 109.117 58.9081 109.117C58.7414 109.117 58.6007 109.07 58.4809 108.981C58.3402 108.882 58.2725 108.757 58.2725 108.601C58.2725 108.502 58.3246 108.382 58.434 108.236C58.5434 108.091 58.6632 107.83 58.7987 107.46C58.8977 107.179 58.9914 106.903 59.0904 106.621C58.7257 106.33 58.4027 105.882 58.1266 105.282C57.6421 104.256 57.3972 103.532 57.3972 103.11C57.3972 102.756 57.5535 102.578 57.8713 102.578C58.236 102.578 58.4183 102.787 58.4183 103.209C58.4183 103.251 58.4131 103.318 58.3975 103.407C58.3819 103.495 58.3767 103.563 58.3767 103.61C58.3767 103.865 58.4965 104.266 58.7309 104.814C58.981 105.392 59.205 105.72 59.403 105.809C59.4812 105.694 59.6531 105.345 59.924 104.761C60.2157 104.115 60.445 103.657 60.6065 103.376C60.8826 102.917 61.1066 102.693 61.289 102.693C61.4244 102.693 61.5443 102.735 61.6485 102.818C61.7527 102.901 61.8152 103.006 61.836 103.131V103.126Z" fill="#DCBC60"/>
<path d="M64.0137 107.986C64.0137 108.289 63.8053 108.528 63.3937 108.7C63.0707 108.836 62.732 108.898 62.383 108.898C61.4452 108.898 60.9763 108.367 60.9763 107.304C60.9763 106.866 61.0805 106.382 61.2941 105.845C61.5546 105.189 61.8724 104.86 62.2423 104.86C62.5757 104.86 62.9352 105.011 63.3208 105.308C63.7063 105.605 63.899 105.918 63.899 106.236C63.899 106.637 63.7219 106.955 63.3624 107.194C63.0446 107.408 62.6695 107.512 62.2319 107.512C62.1485 107.512 62.0079 107.46 61.8203 107.356C61.8464 107.934 62.0131 108.221 62.3309 108.221C62.5966 108.221 62.8623 108.143 63.1176 107.992C63.3729 107.84 63.5396 107.762 63.6125 107.762C63.873 107.762 64.0033 107.835 64.0033 107.981L64.0137 107.986ZM63.0186 106.262C63.0186 106.111 62.9769 105.965 62.8883 105.829C62.7998 105.694 62.6852 105.626 62.5393 105.626C62.3413 105.626 62.185 105.715 62.0756 105.892C61.987 106.043 61.9401 106.225 61.9401 106.429C61.9401 106.543 61.9818 106.637 62.06 106.71C62.1381 106.783 62.2371 106.819 62.3621 106.819C62.805 106.819 63.029 106.632 63.029 106.262H63.0186Z" fill="#DCBC60"/>
<path d="M67.4208 108.935C67.3062 109.049 67.1551 109.106 66.9623 109.106C66.8321 109.106 66.7018 109.028 66.5716 108.867V107.627C66.5716 106.278 66.3788 105.605 65.9881 105.605C65.5973 105.605 65.3837 106.147 65.3837 107.236V107.762C65.3837 107.851 65.3993 107.992 65.4306 108.179C65.4619 108.367 65.4775 108.502 65.4775 108.596C65.4775 108.674 65.4306 108.747 65.3368 108.809C65.243 108.872 65.1545 108.903 65.0763 108.903C64.9252 108.903 64.795 108.841 64.6908 108.716C64.5866 108.591 64.5293 108.455 64.5293 108.299L64.5658 103.021V102.886C64.5658 102.667 64.6856 102.558 64.9305 102.558C65.0451 102.558 65.1805 102.61 65.3316 102.719C65.4827 102.829 65.5608 102.933 65.5608 103.042C65.5608 103.178 65.5296 103.376 65.4723 103.636C65.415 103.897 65.3837 104.095 65.3837 104.23C65.3837 104.402 65.3889 104.673 65.4046 105.043C65.54 104.965 65.6494 104.923 65.7432 104.923C65.9828 104.923 66.2381 104.98 66.5195 105.095C66.8789 105.246 67.129 105.491 67.2697 105.835C67.3739 106.09 67.426 106.444 67.426 106.892V108.924L67.4208 108.935Z" fill="#DCBC60"/>
<path d="M26.0911 112.581V116.374H25.5076V112.581H26.0911ZM26.6746 116.374V116.958H26.0911V116.374H26.6746ZM28.4251 116.958V117.541H26.6746V116.958H28.4251ZM29.0086 116.958H28.4251V116.374H29.0086V116.958ZM29.5921 112.581V116.374H29.0086V112.581H29.5921Z" fill="#DCBC60"/>
<path d="M30.811 112.581H31.3945V117.541H30.811V112.581Z" fill="#DCBC60"/>
<path d="M33.0723 117.249V118.708H32.4888V117.249H33.0723ZM33.6558 115.499V117.249H33.0723V115.499H33.6558ZM34.2393 113.748V115.499H33.6558V113.748H34.2393ZM34.8228 112.29V113.748H34.2393V112.29H34.8228Z" fill="#DCBC60"/>
<path d="M36.594 112.581V116.374H36.0105V112.581H36.594ZM37.1775 116.374V116.958H36.594V116.374H37.1775ZM38.928 116.958V117.541H37.1775V116.958H38.928ZM39.5115 116.958H38.928V116.374H39.5115V116.958ZM40.095 112.581V116.374H39.5115V112.581H40.095Z" fill="#DCBC60"/>
<path d="M41.752 112.581V113.457H41.1685V112.581H41.752ZM41.752 117.541H41.1685V116.666H41.752V117.541ZM42.3355 113.457V114.04H41.752V113.457H42.3355ZM42.3355 116.666H41.752V116.082H42.3355V116.666ZM42.919 114.04V114.624H42.3355V114.04H42.919ZM42.919 116.082H42.3355V115.499H42.919V116.082ZM43.5025 114.624V115.499H42.919V114.624H43.5025ZM43.5025 114.04H44.086V114.624H43.5025V114.04ZM43.5025 115.499H44.086V116.082H43.5025V115.499ZM44.6695 113.457V114.04H44.086V113.457H44.6695ZM44.086 116.082H44.6695V116.666H44.086V116.082ZM45.253 112.581V113.457H44.6695V112.581H45.253ZM44.6695 116.666H45.253V117.541H44.6695V116.666Z" fill="#DCBC60"/>
<path d="M47.9412 112.581H51.1504V113.165H48.5247V116.958H51.1504V117.541H47.9412V112.581ZM51.7339 113.165V113.748H51.1504V113.165H51.7339ZM51.7339 116.958H51.1504V116.374H51.7339V116.958ZM52.3175 113.748V116.374H51.7339V113.748H52.3175Z" fill="#DCBC60"/>
<path d="M53.8596 114.624V115.499H55.9019V114.624H56.4854V116.082H53.8596V116.958H53.2761V114.624H53.8596ZM53.8596 114.04H55.9019V114.624H53.8596V114.04ZM55.9019 116.958V117.541H53.8596V116.958H55.9019ZM55.9019 116.374H56.4854V116.958H55.9019V116.374Z" fill="#DCBC60"/>
<path d="M57.8608 115.207H57.2773V114.624H57.8608V115.207ZM57.8608 116.374V116.958H57.2773V116.374H57.8608ZM57.8608 114.04H59.6114V114.624H57.8608V114.04ZM58.7361 115.207V115.791H57.8608V115.207H58.7361ZM57.8608 116.958H59.6114V117.541H57.8608V116.958ZM59.6114 115.791V116.374H58.7361V115.791H59.6114ZM60.1949 114.624V115.207H59.6114V114.624H60.1949ZM60.1949 116.374V116.958H59.6114V116.374H60.1949Z" fill="#DCBC60"/>
<path d="M61.0911 112.873H61.6746V113.457H61.0911V112.873ZM61.0911 114.04H61.6746V117.541H61.0911V114.04Z" fill="#DCBC60"/>
<path d="M62.7424 114.624H63.3259V116.958H62.7424V114.624ZM62.7424 117.541H63.3259V118.417H62.7424V117.541ZM63.3259 114.04H64.7847V114.624H63.3259V114.04ZM63.3259 116.958H64.7847V117.541H63.3259V116.958ZM63.3259 118.417H65.3682V119H63.3259V118.417ZM65.9517 114.04V118.417H65.3682V116.958H64.7847V116.374H65.3682V115.207H64.7847V114.624H65.3682V114.04H65.9517Z" fill="#DCBC60"/>
<path d="M66.9729 114.04H67.5564V114.624H68.1399V115.207H67.5564V117.541H66.9729V114.04ZM68.1399 114.04H69.3069V114.624H68.1399V114.04ZM69.8904 114.624V117.541H69.3069V114.624H69.8904Z" fill="#DCBC60"/>
<path d="M71.4116 114.624V115.499H73.4539V114.624H74.0374V116.082H71.4116V116.958H70.8281V114.624H71.4116ZM71.4116 114.04H73.4539V114.624H71.4116V114.04ZM73.4539 116.958V117.541H71.4116V116.958H73.4539ZM73.4539 116.374H74.0374V116.958H73.4539V116.374Z" fill="#DCBC60"/>
<path d="M75.0325 114.04H75.616V114.624H76.1995V115.207H75.616V117.541H75.0325V114.04ZM76.1995 114.04H77.0747V114.624H76.1995V114.04Z" fill="#DCBC60"/>
</svg>
