<svg width="53" height="66" viewBox="0 0 53 66" fill="none" xmlns="http://www.w3.org/2000/svg">
<path d="M17.0512 51.0296L17.0231 56.8473L14.1081 56.8332L14.1362 51.0135L17.0512 51.0276L17.0512 51.0296ZM11.241 45.1797L11.2129 51.0014L14.1362 51.0155L14.1643 45.1917L11.2411 45.1776L11.241 45.1797ZM8.36861 39.3254L8.34043 45.1657L11.241 45.1797L11.2692 39.3394L8.36861 39.3254ZM5.45132 36.3798L5.43717 39.3113L8.36861 39.3254L8.38276 36.394L5.45132 36.3798ZM11.3115 30.5862L11.3256 27.6609L2.56208 27.6186L2.51989 36.3636L5.45133 36.3778L5.47941 30.558L11.3115 30.5862ZM14.1754 33.513L14.1332 42.2498L17.0996 42.2641L17.2825 4.35887L14.3182 4.34457L14.1915 30.598L11.3135 30.5841L11.2995 33.4971L14.1754 33.511L14.1754 33.513ZM23.1286 1.47202L17.2925 1.44386L17.2784 4.36091L23.1125 4.38906L23.1266 1.47201L23.1286 1.47202ZM23.0442 18.9661L22.9878 30.6651L25.9007 30.6792L25.9572 18.9781L31.7851 19.0062L31.7992 16.0933L25.9712 16.0652L26.0275 4.40312L23.1146 4.38907L23.0442 18.9661ZM31.7288 30.6847L34.6438 30.6988L34.6862 21.9106L40.5367 21.9388L40.5506 19.0506L31.7851 19.0083L31.7287 30.6868L31.7288 30.6847ZM40.4803 33.6399L43.3932 33.654L43.4354 24.9152L46.3483 24.9292L46.3626 21.967L40.5367 21.9388L40.4803 33.6399ZM49.237 27.8438L49.251 24.9432L46.3483 24.9292L46.3343 27.8298L49.237 27.8438ZM49.2513 27.8439L49.1528 48.2653L52.0616 48.2794L52.1602 27.858L49.2513 27.8439ZM46.1956 57.0004L49.1127 57.0144L49.1549 48.2653L46.2378 48.2513L46.1956 57.0004ZM43.2527 62.7772L19.9101 62.6646L19.9381 56.8634L17.0231 56.8493L16.9808 65.619L46.1513 65.7597L46.1935 57.0045L43.2785 56.9904L43.2506 62.7813L43.2506 62.7772L43.2527 62.7772Z" fill="black"/>
<path d="M23.1145 4.38904L17.2783 4.36088L17.0251 56.8493L22.8612 56.8775L23.1145 4.38904Z" fill="black"/>
<path d="M31.7849 19.0309L25.9487 19.0027L25.7379 62.6906L31.5741 62.7188L31.7849 19.0309Z" fill="black"/>
<path d="M25.9067 30.6792L20.0706 30.6511L19.9161 62.6646L25.7522 62.6928L25.9067 30.6792Z" fill="black"/>
<path d="M37.571 30.7355L31.7349 30.7073L31.5804 62.7209L37.4166 62.749L37.571 30.7355Z" fill="black"/>
<path d="M40.5325 21.9388L34.6963 21.9106L34.4993 62.735L40.3355 62.7631L40.5325 21.9388Z" fill="black"/>
<path d="M43.393 33.654L37.5569 33.6258L37.4164 62.7408L43.2526 62.769L43.393 33.654Z" fill="black"/>
<path d="M49.2532 27.885L43.417 27.8569L43.3187 48.2372L49.1548 48.2653L49.2532 27.885Z" fill="black"/>
<path d="M46.2939 36.5933L40.4578 36.5652L40.3594 56.9455L46.1956 56.9736L46.2939 36.5933Z" fill="black"/>
<path d="M46.3482 24.9395L43.4312 24.9254L43.3328 45.3057L46.2499 45.3198L46.3482 24.9395Z" fill="black"/>
<path d="M17.0956 42.2641L14.1333 42.2498L14.0912 50.9824L17.0534 50.9967L17.0956 42.2641Z" fill="black"/>
<path d="M14.1754 33.511L11.2974 33.4971L11.2412 45.1447L14.1192 45.1586L14.1754 33.511Z" fill="black"/>
<path d="M11.3093 30.5841L8.41284 30.5701L8.3706 39.3254L11.2671 39.3394L11.3093 30.5841Z" fill="black"/>
<path d="M8.41299 30.5701L5.47949 30.556L5.4514 36.3777L8.3849 36.3919L8.41299 30.5701Z" fill="black"/>
<path d="M20.7727 1.7831L14.9365 1.75494L14.6733 56.3169L20.5094 56.345L20.7727 1.7831Z" fill="white"/>
<path d="M29.4389 17.2679L23.6028 17.2398L23.377 64.0284L29.2132 64.0566L29.4389 17.2679Z" fill="white"/>
<path d="M23.5532 30.1468L17.717 30.1186L17.5626 62.1322L23.3987 62.1603L23.5532 30.1468Z" fill="white"/>
<path d="M35.2192 30.203L29.3831 30.1749L29.2286 62.1884L35.0647 62.2166L35.2192 30.203Z" fill="white"/>
<path d="M38.1787 21.4063L32.3425 21.3782L32.1455 62.2025L37.9817 62.2307L38.1787 21.4063Z" fill="white"/>
<path d="M43.8689 33.1352L35.2053 33.0934L35.0648 62.2084L43.7284 62.2502L43.8689 33.1352Z" fill="white"/>
<path d="M49.03 27.3178L41.0654 27.2794L40.9669 47.7047L48.9314 47.7431L49.03 27.3178Z" fill="white"/>
<path d="M43.9421 36.0608L38.106 36.0327L38.0076 56.413L43.8438 56.4412L43.9421 36.0608Z" fill="white"/>
<path d="M43.9988 23.8861L41.0818 23.872L40.9809 44.7733L43.898 44.7873L43.9988 23.8861Z" fill="white"/>
<path d="M14.7437 41.7316L11.8279 41.7175L11.7747 52.7493L14.6905 52.7633L14.7437 41.7316Z" fill="white"/>
<path d="M16.4652 32.2942L7.89795 32.2528L7.83815 44.6465L16.4054 44.6879L16.4652 32.2942Z" fill="white"/>
<path d="M12.951 30.0709L6.05908 30.0377L6.01684 38.7929L12.9087 38.8262L12.951 30.0709Z" fill="white"/>
<path d="M8.46002 30.0493L3.12769 30.0235L3.09959 35.8453L8.43193 35.871L8.46002 30.0493Z" fill="white"/>
<rect x="14" y="30" width="24" height="26" fill="white"/>
<rect x="18" y="37" width="23" height="25" fill="white"/>
<path d="M14.6993 50.4971L14.6713 56.3148L11.7563 56.3007L11.7844 50.481L14.6994 50.4951L14.6993 50.4971ZM8.88923 44.6472L8.86114 50.469L11.7844 50.4831L11.8125 44.6592L8.88924 44.6451L8.88923 44.6472ZM6.01681 38.7929L5.98862 44.6332L8.88923 44.6472L8.91741 38.8069L6.01681 38.7929ZM3.09951 35.8473L3.08536 38.7788L6.01681 38.7929L6.03095 35.8615L3.09951 35.8473ZM8.95964 30.0537L8.97376 27.1284L0.210276 27.0862L0.16808 35.8311L3.09952 35.8453L3.1276 30.0256L8.95964 30.0537ZM11.8236 32.9805L11.7814 41.7173L14.7478 41.7316L14.9307 3.82639L11.9664 3.81209L11.8397 30.0656L8.96171 30.0517L8.94766 32.9646L11.8236 32.9785L11.8236 32.9805ZM20.7768 0.939538L14.9407 0.911378L14.9266 3.82843L20.7607 3.85658L20.7748 0.939528L20.7768 0.939538ZM20.6924 18.4336L20.636 30.1327L23.5489 30.1467L23.6054 18.4456L29.4333 18.4737L29.4474 15.5608L23.6194 15.5327L23.6757 3.87065L20.7628 3.85659L20.6924 18.4336ZM29.377 30.1522L32.2919 30.1663L32.3344 21.3781L38.1849 21.4064L38.1988 18.5181L29.4333 18.4758L29.3769 30.1543L29.377 30.1522ZM38.1284 33.1075L41.0414 33.1215L41.0835 24.3827L43.9965 24.3968L44.0108 21.4345L38.1849 21.4064L38.1284 33.1075ZM46.8851 27.3114L46.8991 24.4108L43.9965 24.3968L43.9825 27.2974L46.8851 27.3114ZM46.8995 27.3114L46.801 47.7329L49.7098 47.7469L49.8084 27.3255L46.8995 27.3114ZM43.8438 56.4679L46.7608 56.482L46.8031 47.7329L43.886 47.7188L43.8438 56.4679ZM40.9009 62.2448L17.5583 62.1321L17.5863 56.3309L14.6713 56.3168L14.629 65.0865L43.7995 65.2273L43.8417 56.472L40.9267 56.4579L40.8988 62.2489L40.8988 62.2447L40.9009 62.2448Z" fill="#CEABFF"/>
</svg>
