<?xml version="1.0" encoding="UTF-8"?>
<svg xmlns="http://www.w3.org/2000/svg" version="1.1" viewBox="0 0 595.28 841.89">
  <defs>
    <style>
      .cls-1 {
        fill: #010101;
      }
    </style>
  </defs>
  <!-- Generator: Adobe Illustrator 28.7.1, SVG Export Plug-In . SVG Version: 1.2.0 Build 142)  -->
  <g>
    <g id="Layer_1">
      <g>
        <rect class="cls-1" x="349.39" y="343.93" width="3.89" height="3.89" transform="translate(-141.68 346.17) rotate(-44.59)"/>
        <rect class="cls-1" x="352.12" y="346.7" width="3.89" height="3.89" transform="translate(-142.84 348.89) rotate(-44.59)"/>
        <rect class="cls-1" x="354.86" y="349.48" width="3.89" height="3.89" transform="translate(-144 351.61) rotate(-44.59)"/>
        <rect class="cls-1" x="349.35" y="349.44" width="3.89" height="3.89" transform="translate(-145.56 347.73) rotate(-44.59)"/>
        <rect class="cls-1" x="352.08" y="352.21" width="3.89" height="3.89" transform="translate(-146.72 350.45) rotate(-44.59)"/>
        <rect class="cls-1" x="343.85" y="349.4" width="3.89" height="3.89" transform="translate(-147.12 343.85) rotate(-44.59)"/>
        <rect class="cls-1" x="349.31" y="354.94" width="3.89" height="3.89" transform="translate(-149.43 349.29) rotate(-44.59)"/>
        <rect class="cls-1" x="338.34" y="349.36" width="3.89" height="3.89" transform="translate(-148.67 339.98) rotate(-44.59)"/>
        <rect class="cls-1" x="332.84" y="349.32" width="3.89" height="3.89" transform="translate(-150.23 336.1) rotate(-44.59)"/>
      </g>
    </g>
  </g>
</svg>