<?xml version="1.0" encoding="UTF-8"?>
<svg xmlns="http://www.w3.org/2000/svg" version="1.1" viewBox="0 0 595.28 841.89">
  <defs>
    <style>
      .cls-1 {
        fill: #f2f2f3;
      }

      .cls-2 {
        fill: #fff;
      }

      .cls-3 {
        fill: #ebf6f7;
      }

      .cls-4 {
        fill: #bfe6f2;
      }

      .cls-5 {
        fill: #ebeff7;
      }

      .cls-6 {
        fill: #d3dcf0;
      }

      .cls-7 {
        fill: #a5dced;
      }
    </style>
  </defs>
  <!-- Generator: Adobe Illustrator 28.7.1, SVG Export Plug-In . SVG Version: 1.2.0 Build 142)  -->
  <g>
    <g id="Layer_1">
      <g>
        <g>
          <rect class="cls-7" x="344.33" y="194.85" width="3.89" height="3.89"/>
          <rect class="cls-7" x="348.22" y="194.85" width="3.89" height="3.89"/>
          <rect class="cls-7" x="352.11" y="194.85" width="3.89" height="3.89"/>
          <rect class="cls-7" x="356.01" y="194.85" width="3.89" height="3.89"/>
          <rect class="cls-7" x="359.9" y="194.85" width="3.89" height="3.89"/>
          <rect class="cls-7" x="363.79" y="194.85" width="3.89" height="3.89"/>
          <rect class="cls-7" x="367.68" y="194.85" width="3.89" height="3.89"/>
          <rect class="cls-7" x="371.58" y="194.85" width="3.89" height="3.89"/>
          <rect class="cls-7" x="336.54" y="198.74" width="3.89" height="3.89"/>
          <rect class="cls-7" x="340.44" y="198.74" width="3.89" height="3.89"/>
          <rect class="cls-7" x="375.47" y="198.74" width="3.89" height="3.89"/>
          <rect class="cls-7" x="379.36" y="198.74" width="3.89" height="3.89"/>
          <rect class="cls-7" x="328.76" y="202.63" width="3.89" height="3.89"/>
          <rect class="cls-7" x="332.65" y="202.63" width="3.89" height="3.89"/>
          <rect class="cls-7" x="383.25" y="202.63" width="3.89" height="3.89"/>
          <rect class="cls-7" x="387.15" y="202.63" width="3.89" height="3.89"/>
          <rect class="cls-7" x="324.87" y="206.53" width="3.89" height="3.89"/>
          <rect class="cls-7" x="391.04" y="206.53" width="3.89" height="3.89"/>
          <rect class="cls-7" x="320.97" y="210.42" width="3.89" height="3.89"/>
          <rect class="cls-7" x="394.93" y="210.42" width="3.89" height="3.89"/>
          <rect class="cls-7" x="317.08" y="214.31" width="3.89" height="3.89"/>
          <rect class="cls-7" x="398.82" y="214.31" width="3.89" height="3.89"/>
          <rect class="cls-7" x="313.19" y="218.2" width="3.89" height="3.89"/>
          <rect class="cls-7" x="402.72" y="218.2" width="3.89" height="3.89"/>
          <rect class="cls-7" x="313.19" y="222.1" width="3.89" height="3.89"/>
          <rect class="cls-7" x="402.72" y="222.1" width="3.89" height="3.89"/>
          <rect class="cls-7" x="309.3" y="225.99" width="3.89" height="3.89"/>
          <rect class="cls-7" x="406.61" y="225.99" width="3.89" height="3.89"/>
          <rect class="cls-7" x="309.3" y="229.88" width="3.89" height="3.89"/>
          <rect class="cls-7" x="406.61" y="229.88" width="3.89" height="3.89"/>
          <rect class="cls-7" x="305.4" y="233.77" width="3.89" height="3.89"/>
          <rect class="cls-7" x="410.5" y="233.77" width="3.89" height="3.89"/>
          <rect class="cls-7" x="305.4" y="237.67" width="3.89" height="3.89"/>
          <rect class="cls-7" x="410.5" y="237.67" width="3.89" height="3.89"/>
          <rect class="cls-7" x="305.4" y="241.56" width="3.89" height="3.89"/>
          <rect class="cls-7" x="410.5" y="241.56" width="3.89" height="3.89"/>
          <rect class="cls-7" x="305.4" y="245.45" width="3.89" height="3.89"/>
          <rect class="cls-7" x="410.5" y="245.45" width="3.89" height="3.89"/>
          <rect class="cls-7" x="305.4" y="249.34" width="3.89" height="3.89"/>
          <rect class="cls-7" x="410.5" y="249.34" width="3.89" height="3.89"/>
          <rect class="cls-7" x="305.4" y="253.24" width="3.89" height="3.89"/>
          <rect class="cls-7" x="410.5" y="253.24" width="3.89" height="3.89"/>
          <rect class="cls-7" x="305.4" y="257.13" width="3.89" height="3.89"/>
          <rect class="cls-7" x="410.5" y="257.13" width="3.89" height="3.89"/>
          <rect class="cls-7" x="305.4" y="261.02" width="3.89" height="3.89"/>
          <rect class="cls-7" x="410.5" y="261.02" width="3.89" height="3.89"/>
          <rect class="cls-7" x="309.3" y="264.91" width="3.89" height="3.89"/>
          <rect class="cls-7" x="406.61" y="264.91" width="3.89" height="3.89"/>
          <rect class="cls-7" x="309.3" y="268.81" width="3.89" height="3.89"/>
          <rect class="cls-7" x="406.61" y="268.81" width="3.89" height="3.89"/>
          <rect class="cls-7" x="313.19" y="272.7" width="3.89" height="3.89"/>
          <rect class="cls-7" x="402.72" y="272.7" width="3.89" height="3.89"/>
          <rect class="cls-7" x="313.19" y="276.59" width="3.89" height="3.89"/>
          <rect class="cls-7" x="402.72" y="276.59" width="3.89" height="3.89"/>
          <rect class="cls-7" x="317.08" y="280.48" width="3.89" height="3.89"/>
          <rect class="cls-7" x="398.82" y="280.48" width="3.89" height="3.89"/>
          <rect class="cls-7" x="320.97" y="284.38" width="3.89" height="3.89"/>
          <rect class="cls-7" x="394.93" y="284.38" width="3.89" height="3.89"/>
          <rect class="cls-7" x="324.87" y="288.27" width="3.89" height="3.89"/>
          <rect class="cls-7" x="391.04" y="288.27" width="3.89" height="3.89"/>
          <rect class="cls-7" x="371.58" y="299.95" width="3.89" height="3.89"/>
          <rect class="cls-7" x="367.68" y="299.95" width="3.89" height="3.89"/>
          <rect class="cls-7" x="363.79" y="299.95" width="3.89" height="3.89"/>
          <rect class="cls-7" x="359.9" y="299.95" width="3.89" height="3.89"/>
          <rect class="cls-7" x="356.01" y="299.95" width="3.89" height="3.89"/>
          <rect class="cls-7" x="352.11" y="299.95" width="3.89" height="3.89"/>
          <rect class="cls-7" x="348.22" y="299.95" width="3.89" height="3.89"/>
          <rect class="cls-7" x="344.33" y="299.95" width="3.89" height="3.89"/>
          <rect class="cls-7" x="379.36" y="296.05" width="3.89" height="3.89"/>
          <rect class="cls-7" x="375.47" y="296.05" width="3.89" height="3.89"/>
          <rect class="cls-7" x="340.44" y="296.05" width="3.89" height="3.89"/>
          <rect class="cls-7" x="336.54" y="296.05" width="3.89" height="3.89"/>
          <rect class="cls-7" x="387.15" y="292.16" width="3.89" height="3.89"/>
          <rect class="cls-7" x="383.25" y="292.16" width="3.89" height="3.89"/>
          <rect class="cls-7" x="332.65" y="292.16" width="3.89" height="3.89"/>
          <rect class="cls-7" x="328.76" y="292.16" width="3.89" height="3.89"/>
          <rect class="cls-7" x="391.04" y="288.27" width="3.89" height="3.89"/>
          <rect class="cls-7" x="324.87" y="288.27" width="3.89" height="3.89"/>
          <rect class="cls-7" x="394.93" y="284.38" width="3.89" height="3.89"/>
          <rect class="cls-7" x="320.97" y="284.38" width="3.89" height="3.89"/>
          <rect class="cls-7" x="398.82" y="280.48" width="3.89" height="3.89"/>
          <rect class="cls-7" x="317.08" y="280.48" width="3.89" height="3.89"/>
          <rect class="cls-7" x="402.72" y="276.59" width="3.89" height="3.89"/>
          <rect class="cls-7" x="313.19" y="276.59" width="3.89" height="3.89"/>
          <rect class="cls-7" x="402.72" y="272.7" width="3.89" height="3.89"/>
          <rect class="cls-7" x="313.19" y="272.7" width="3.89" height="3.89"/>
          <rect class="cls-7" x="406.61" y="268.81" width="3.89" height="3.89"/>
          <rect class="cls-7" x="309.3" y="268.81" width="3.89" height="3.89"/>
          <rect class="cls-7" x="406.61" y="264.91" width="3.89" height="3.89"/>
          <rect class="cls-7" x="309.3" y="264.91" width="3.89" height="3.89"/>
          <rect class="cls-7" x="410.5" y="261.02" width="3.89" height="3.89"/>
          <rect class="cls-7" x="305.4" y="261.02" width="3.89" height="3.89"/>
          <rect class="cls-7" x="410.5" y="257.13" width="3.89" height="3.89"/>
          <rect class="cls-7" x="305.4" y="257.13" width="3.89" height="3.89"/>
          <rect class="cls-7" x="410.5" y="253.24" width="3.89" height="3.89"/>
          <rect class="cls-7" x="305.4" y="253.24" width="3.89" height="3.89"/>
          <rect class="cls-7" x="410.5" y="249.34" width="3.89" height="3.89"/>
          <rect class="cls-7" x="305.4" y="249.34" width="3.89" height="3.89"/>
          <rect class="cls-7" x="410.5" y="245.45" width="3.89" height="3.89"/>
          <rect class="cls-7" x="305.4" y="245.45" width="3.89" height="3.89"/>
          <rect class="cls-7" x="410.5" y="241.56" width="3.89" height="3.89"/>
          <rect class="cls-7" x="305.4" y="241.56" width="3.89" height="3.89"/>
          <rect class="cls-7" x="410.5" y="237.67" width="3.89" height="3.89"/>
          <rect class="cls-7" x="305.4" y="237.67" width="3.89" height="3.89"/>
          <rect class="cls-7" x="410.5" y="233.77" width="3.89" height="3.89"/>
          <rect class="cls-7" x="305.4" y="233.77" width="3.89" height="3.89"/>
          <rect class="cls-7" x="406.61" y="229.88" width="3.89" height="3.89"/>
          <rect class="cls-7" x="309.3" y="229.88" width="3.89" height="3.89"/>
          <rect class="cls-7" x="406.61" y="225.99" width="3.89" height="3.89"/>
          <rect class="cls-2" x="313.19" y="225.99" width="3.89" height="3.89"/>
          <rect class="cls-7" x="309.3" y="225.99" width="3.89" height="3.89"/>
          <rect class="cls-7" x="402.72" y="222.1" width="3.89" height="3.89"/>
          <rect class="cls-7" x="313.19" y="222.1" width="3.89" height="3.89"/>
          <rect class="cls-7" x="402.72" y="218.2" width="3.89" height="3.89"/>
          <rect class="cls-7" x="313.19" y="218.2" width="3.89" height="3.89"/>
          <rect class="cls-7" x="398.82" y="214.31" width="3.89" height="3.89"/>
          <rect class="cls-7" x="317.08" y="214.31" width="3.89" height="3.89"/>
          <rect class="cls-7" x="394.93" y="210.42" width="3.89" height="3.89"/>
          <rect class="cls-7" x="320.97" y="210.42" width="3.89" height="3.89"/>
          <rect class="cls-7" x="391.04" y="206.53" width="3.89" height="3.89"/>
          <rect class="cls-7" x="324.87" y="206.53" width="3.89" height="3.89"/>
        </g>
        <polyline class="cls-4" points="317.08 264.91 317.08 268.81 313.19 268.81 313.19 264.91"/>
        <rect class="cls-4" x="313.19" y="268.81" width="3.89" height="3.89"/>
        <rect class="cls-4" x="317.08" y="276.59" width="3.89" height="3.89"/>
        <rect class="cls-4" x="320.97" y="280.48" width="3.89" height="3.89"/>
        <rect class="cls-4" x="324.87" y="284.37" width="3.89" height="3.89"/>
        <polyline class="cls-4" points="344.33 296.05 340.44 296.05 340.44 292.16 344.33 292.16"/>
        <rect class="cls-4" x="336.54" y="292.16" width="3.89" height="3.89"/>
        <rect class="cls-4" x="332.65" y="288.27" width="3.89" height="3.89"/>
        <rect class="cls-4" x="328.76" y="288.27" width="3.89" height="3.89"/>
        <rect class="cls-4" x="309.3" y="261.02" width="3.89" height="3.89"/>
        <rect class="cls-4" x="344.33" y="296.05" width="31.14" height="3.89"/>
        <rect class="cls-4" x="348.22" y="296.05" width="3.89" height="3.89"/>
        <rect class="cls-4" x="352.11" y="296.05" width="3.89" height="3.89"/>
        <rect class="cls-4" x="317.08" y="272.7" width="3.89" height="3.89"/>
        <rect class="cls-4" x="313.19" y="268.81" width="3.89" height="3.89"/>
        <polyline class="cls-4" points="317.08 264.91 317.08 268.81 313.19 268.81 313.19 264.91"/>
        <polyline class="cls-3" points="320.97 264.91 320.97 268.81 317.08 268.81 317.08 264.91"/>
        <rect class="cls-3" x="317.08" y="268.81" width="3.89" height="3.89"/>
        <rect class="cls-3" x="320.97" y="276.59" width="3.89" height="3.89"/>
        <rect class="cls-3" x="324.87" y="280.48" width="3.89" height="3.89"/>
        <rect class="cls-3" x="328.76" y="284.37" width="3.89" height="3.89"/>
        <polyline class="cls-3" points="348.22 296.05 344.33 296.05 344.33 292.16 348.22 292.16"/>
        <rect class="cls-3" x="340.44" y="292.16" width="3.89" height="3.89"/>
        <rect class="cls-3" x="336.54" y="288.27" width="3.89" height="3.89"/>
        <rect class="cls-3" x="332.65" y="288.27" width="3.89" height="3.89"/>
        <rect class="cls-3" x="309.3" y="247.4" width="3.89" height="17.52"/>
        <rect class="cls-3" x="348.22" y="292.16" width="7.78" height="3.89"/>
        <rect class="cls-3" x="356.01" y="292.16" width="7.78" height="3.89"/>
        <rect class="cls-3" x="363.79" y="292.16" width="7.78" height="3.89"/>
        <rect class="cls-3" x="320.97" y="272.7" width="3.89" height="3.89"/>
        <rect class="cls-3" x="317.08" y="268.81" width="3.89" height="3.89"/>
        <polyline class="cls-3" points="320.97 264.91 320.97 268.81 317.08 268.81 317.08 264.91"/>
        <polyline class="cls-3" points="317.08 261.02 317.08 264.91 313.19 264.91 313.19 261.02"/>
        <polyline class="cls-6" points="402.67 233.82 402.68 229.93 406.57 229.94 406.56 233.83"/>
        <rect class="cls-6" x="402.69" y="226.04" width="3.89" height="3.89" transform="translate(175.4 631.92) rotate(-89.82)"/>
        <rect class="cls-6" x="398.82" y="218.25" width="3.89" height="3.89" transform="translate(179.34 620.28) rotate(-89.82)"/>
        <rect class="cls-6" x="394.94" y="214.34" width="3.89" height="3.89" transform="translate(179.37 612.5) rotate(-89.82)"/>
        <rect class="cls-6" x="391.06" y="210.44" width="3.89" height="3.89" transform="translate(179.41 604.73) rotate(-89.82)"/>
        <polyline class="cls-6" points="375.52 202.6 379.41 202.61 379.4 206.5 375.5 206.49"/>
        <rect class="cls-6" x="379.4" y="202.61" width="3.89" height="3.89" transform="translate(175.61 585.28) rotate(-89.82)"/>
        <rect class="cls-6" x="383.28" y="206.52" width="3.89" height="3.89" transform="translate(175.58 593.05) rotate(-89.82)"/>
        <rect class="cls-6" x="387.18" y="206.53" width="3.89" height="3.89" transform="translate(179.45 596.96) rotate(-89.82)"/>
        <rect class="cls-6" x="406.55" y="233.84" width="3.89" height="3.89" transform="translate(171.46 643.56) rotate(-89.82)"/>
        <rect class="cls-6" x="371.63" y="198.7" width="3.89" height="3.89" transform="translate(171.78 573.6) rotate(-89.82)"/>
        <rect class="cls-6" x="367.74" y="198.69" width="3.89" height="3.89" transform="translate(167.91 569.7) rotate(-89.82)"/>
        <rect class="cls-6" x="354.09" y="188.89" width="3.89" height="23.41" transform="translate(154.35 556.01) rotate(-89.82)"/>
        <rect class="cls-6" x="398.81" y="222.14" width="3.89" height="3.89" transform="translate(175.43 624.15) rotate(-89.82)"/>
        <rect class="cls-6" x="402.69" y="226.04" width="3.89" height="3.89" transform="translate(175.4 631.92) rotate(-89.82)"/>
        <polyline class="cls-6" points="402.67 233.82 402.68 229.93 406.57 229.94 406.56 233.83"/>
        <polyline class="cls-5" points="402.66 237.71 402.67 233.82 406.56 233.83 406.55 237.73"/>
        <rect class="cls-5" x="402.68" y="229.94" width="3.89" height="3.89" transform="translate(171.49 635.79) rotate(-89.82)"/>
        <rect class="cls-5" x="398.81" y="222.14" width="3.89" height="3.89" transform="translate(175.43 624.15) rotate(-89.82)"/>
        <rect class="cls-5" x="394.93" y="218.23" width="3.89" height="3.89" transform="translate(175.47 616.37) rotate(-89.82)"/>
        <rect class="cls-5" x="391.05" y="214.33" width="3.89" height="3.89" transform="translate(175.51 608.6) rotate(-89.82)"/>
        <polyline class="cls-5" points="375.5 206.49 379.4 206.5 379.39 210.39 375.49 210.38"/>
        <rect class="cls-5" x="379.39" y="206.51" width="3.89" height="3.89" transform="translate(171.71 589.15) rotate(-89.82)"/>
        <rect class="cls-5" x="383.27" y="210.41" width="3.89" height="3.89" transform="translate(171.67 596.92) rotate(-89.82)"/>
        <rect class="cls-5" x="387.16" y="210.42" width="3.89" height="3.89" transform="translate(175.54 600.83) rotate(-89.82)"/>
        <rect class="cls-5" x="399.74" y="244.51" width="17.45" height="3.89" transform="translate(160.75 654.16) rotate(-89.82)"/>
        <rect class="cls-5" x="371.62" y="202.59" width="3.89" height="3.89" transform="translate(167.88 577.47) rotate(-89.82)"/>
        <rect class="cls-5" x="367.73" y="202.58" width="3.89" height="3.89" transform="translate(164.01 573.57) rotate(-89.82)"/>
        <rect class="cls-5" x="356.03" y="194.74" width="3.89" height="19.5" transform="translate(152.38 561.83) rotate(-89.82)"/>
        <rect class="cls-5" x="398.79" y="226.03" width="3.89" height="3.89" transform="translate(171.53 628.01) rotate(-89.82)"/>
        <rect class="cls-1" x="384.75" y="224.1" width="3.89" height="3.89" transform="translate(159.46 612.05) rotate(-89.82)"/>
        <rect class="cls-1" x="380.89" y="220.21" width="3.89" height="3.89" transform="translate(159.49 604.3) rotate(-89.82)"/>
        <rect class="cls-1" x="377" y="216.31" width="3.89" height="3.89" transform="translate(159.53 596.53) rotate(-89.82)"/>
        <rect class="cls-1" x="380.87" y="224.1" width="3.89" height="3.89" transform="translate(155.59 608.17) rotate(-89.82)"/>
        <rect class="cls-1" x="384.75" y="228.01" width="3.89" height="3.89" transform="translate(155.56 615.94) rotate(-89.82)"/>
        <rect class="cls-1" x="388.66" y="228.01" width="3.89" height="3.89" transform="translate(159.45 619.85) rotate(-89.82)"/>
        <rect class="cls-1" x="388.66" y="231.91" width="3.89" height="3.89" transform="translate(155.54 623.74) rotate(-89.82)"/>
        <rect class="cls-1" x="389.13" y="239.61" width="3.89" height="3.89" transform="translate(148.31 631.89) rotate(-89.82)"/>
        <rect class="cls-1" x="380.87" y="224.1" width="3.89" height="3.89" transform="translate(155.59 608.17) rotate(-89.82)"/>
        <rect class="cls-1" x="376.99" y="220.2" width="3.89" height="3.89" transform="translate(155.63 600.4) rotate(-89.82)"/>
        <rect class="cls-1" x="373.11" y="216.3" width="3.89" height="3.89" transform="translate(155.66 592.63) rotate(-89.82)"/>
        <rect class="cls-5" x="402.67" y="229.94" width="3.89" height="3.89" transform="translate(171.49 635.79) rotate(-89.82)"/>
        <polyline class="cls-5" points="402.66 237.71 402.67 233.82 406.56 233.83 406.55 237.73"/>
        <polyline class="cls-5" points="402.66 241.61 402.67 237.71 406.56 237.73 406.55 241.62"/>
      </g>
    </g>
  </g>
</svg>