<?xml version="1.0" encoding="UTF-8"?>
<svg xmlns="http://www.w3.org/2000/svg" version="1.1" viewBox="0 0 595.28 841.89">
  <defs>
    <style>
      .cls-1 {
        fill: #cb8c2a;
      }

      .cls-2 {
        fill: #31a05f;
      }

      .cls-3 {
        fill: #2079bb;
      }

      .cls-4 {
        fill: #f3a71d;
      }

      .cls-5 {
        fill: #f69a9c;
      }
    </style>
  </defs>
  <!-- Generator: Adobe Illustrator 28.7.1, SVG Export Plug-In . SVG Version: 1.2.0 Build 142)  -->
  <g>
    <g id="Layer_1">
      <g>
        <rect class="cls-4" x="158.14" y="489.44" width="42.92" height="21.46"/>
        <rect class="cls-4" x="136.68" y="467.98" width="21.46" height="21.46"/>
        <rect class="cls-4" x="136.68" y="253.37" width="21.46" height="42.92"/>
        <polygon class="cls-4" points="179.6 446.52 179.6 425.06 136.68 425.06 136.68 403.6 158.14 403.6 158.14 382.13 136.68 382.13 136.68 296.29 115.22 296.29 115.22 382.13 93.75 382.13 93.75 403.6 115.22 403.6 115.22 425.06 93.75 425.06 93.75 446.52 115.22 446.52 115.22 467.98 136.68 467.98 136.68 446.52 179.6 446.52"/>
        <polygon class="cls-4" points="179.6 231.9 222.52 231.9 222.52 253.37 243.98 253.37 243.98 231.9 222.52 231.9 222.52 210.44 179.6 210.44 179.6 231.9 158.14 231.9 158.14 253.37 179.6 253.37 179.6 231.9"/>
        <rect class="cls-4" x="243.98" y="253.37" width="21.46" height="21.46"/>
        <rect class="cls-1" x="179.6" y="274.83" width="42.92" height="21.46"/>
        <rect class="cls-4" x="394.21" y="489.44" width="42.92" height="21.46"/>
        <rect class="cls-4" x="437.14" y="467.98" width="21.46" height="21.46"/>
        <rect class="cls-4" x="437.14" y="253.37" width="21.46" height="42.92"/>
        <polygon class="cls-4" points="501.52 403.6 501.52 382.13 480.06 382.13 480.06 296.29 458.6 296.29 458.6 382.13 437.14 382.13 437.14 403.6 458.6 403.6 458.6 425.06 415.68 425.06 415.68 446.52 458.6 446.52 458.6 467.98 480.06 467.98 480.06 446.52 501.52 446.52 501.52 425.06 480.06 425.06 480.06 403.6 501.52 403.6"/>
        <polygon class="cls-4" points="372.75 231.9 415.68 231.9 415.68 253.37 437.14 253.37 437.14 231.9 415.68 231.9 415.68 210.44 372.75 210.44 372.75 231.9 351.29 231.9 351.29 253.37 372.75 253.37 372.75 231.9"/>
        <rect class="cls-4" x="329.83" y="253.37" width="21.46" height="21.46"/>
        <rect class="cls-4" x="201.06" y="510.9" width="193.15" height="21.46"/>
        <rect class="cls-1" x="372.75" y="274.83" width="42.92" height="21.46"/>
        <rect class="cls-3" x="201.06" y="339.21" width="42.92" height="64.38"/>
        <rect class="cls-5" x="286.91" y="403.6" width="21.46" height="21.46"/>
        <rect class="cls-4" x="265.45" y="274.83" width="64.38" height="21.46"/>
        <rect class="cls-2" x="351.29" y="339.21" width="42.92" height="64.38"/>
      </g>
    </g>
  </g>
</svg>