<svg width="130" height="102" viewBox="0 0 130 102" fill="none" xmlns="http://www.w3.org/2000/svg">
<g id="Cat">
<g id="Cat_layer">
<g id="Cat_2">
<path id="Vector" d="M34.001 88.4008H20.4019V95.2004H34.001V88.4008Z" fill="#F3A71D"/>
<path id="Vector_2" d="M20.4019 81.6013H13.6023V88.4008H20.4019V81.6013Z" fill="#F3A71D"/>
<path id="Vector_3" d="M20.4019 13.6023H13.6023V27.2015H20.4019V13.6023Z" fill="#F3A71D"/>
<path id="Vector_4" d="M27.2015 74.8017V68.0021H13.6023V61.2025H20.4019V54.3998H13.6023V27.2015H6.80275V54.3998H0V61.2025H6.80275V68.0021H0V74.8017H6.80275V81.6013H13.6023V74.8017H27.2015Z" fill="#F3A71D"/>
<path id="Vector_5" d="M27.2014 6.79957H40.8006V13.6023H47.6002V6.79957H40.8006V0H27.2014V6.79957H20.4019V13.6023H27.2014V6.79957Z" fill="#F3A71D"/>
<path id="Vector_6" d="M54.3997 13.6023H47.6001V20.4019H54.3997V13.6023Z" fill="#F3A71D"/>
<path id="Vector_7" d="M40.8006 20.4019H27.2014V27.2015H40.8006V20.4019Z" fill="#CB8C2A"/>
<path id="Vector_8" d="M108.8 88.4008H95.2004V95.2004H108.8V88.4008Z" fill="#F3A71D"/>
<path id="Vector_9" d="M115.602 81.6013H108.803V88.4008H115.602V81.6013Z" fill="#F3A71D"/>
<path id="Vector_10" d="M115.602 13.6023H108.803V27.2015H115.602V13.6023Z" fill="#F3A71D"/>
<path id="Vector_11" d="M129.201 61.2025V54.3998H122.402V27.2015H115.602V54.3998H108.803V61.2025H115.602V68.0021H102.003V74.8017H115.602V81.6013H122.402V74.8017H129.201V68.0021H122.402V61.2025H129.201Z" fill="#F3A71D"/>
<path id="Vector_12" d="M88.4009 6.79957H102.003V13.6023H108.803V6.79957H102.003V0H88.4009V6.79957H81.6013V13.6023H88.4009V6.79957Z" fill="#F3A71D"/>
<path id="Vector_13" d="M81.6013 13.6023H74.8018V20.4019H81.6013V13.6023Z" fill="#F3A71D"/>
<path id="Vector_14" d="M95.2003 95.2004H34.001V102H95.2003V95.2004Z" fill="#F3A71D"/>
<path id="Vector_15" d="M102 20.4019H88.4009V27.2015H102V20.4019Z" fill="#CB8C2A"/>
<path id="Vector_16" d="M47.6001 40.8006H34.001V61.1994H47.6001V40.8006Z" fill="#2079BB"/>
<path id="Vector_17" d="M68.002 61.2025H61.2024V68.0021H68.002V61.2025Z" fill="#F69A9C"/>
<path id="Vector_18" d="M74.8016 20.4019H54.4028V27.2015H74.8016V20.4019Z" fill="#F3A71D"/>
<path id="Vector_19" d="M95.2005 40.8006H81.6013V61.1994H95.2005V40.8006Z" fill="#31A05F"/>
</g>
</g>
</g>
</svg>
