<?xml version="1.0" encoding="UTF-8"?>
<svg xmlns="http://www.w3.org/2000/svg" version="1.1" viewBox="0 0 595.28 841.89">
  <defs>
    <style>
      .cls-1 {
        fill: #a8cee4;
      }

      .cls-2 {
        fill: #bfd6e2;
      }
    </style>
  </defs>
  <!-- Generator: Adobe Illustrator 28.7.1, SVG Export Plug-In . SVG Version: 1.2.0 Build 142)  -->
  <g>
    <g id="Layer_1">
      <g>
        <rect class="cls-1" x="235.36" y="220.11" width="3.89" height="3.89"/>
        <rect class="cls-1" x="239.25" y="220.11" width="3.89" height="3.89"/>
        <rect class="cls-1" x="243.14" y="220.11" width="3.89" height="3.89"/>
        <rect class="cls-1" x="247.04" y="220.11" width="3.89" height="3.89"/>
        <rect class="cls-1" x="250.93" y="220.11" width="3.89" height="3.89"/>
        <rect class="cls-1" x="231.47" y="224" width="3.89" height="3.89"/>
        <rect class="cls-1" x="254.82" y="224" width="3.89" height="3.89"/>
        <rect class="cls-1" x="227.57" y="227.9" width="3.89" height="3.89"/>
        <rect class="cls-1" x="258.71" y="227.9" width="3.89" height="3.89"/>
        <rect class="cls-1" x="227.57" y="231.79" width="3.89" height="3.89"/>
        <rect class="cls-1" x="258.71" y="231.79" width="3.89" height="3.89"/>
        <rect class="cls-1" x="266.5" y="231.79" width="3.89" height="3.89"/>
        <rect class="cls-1" x="270.39" y="231.79" width="3.89" height="3.89"/>
        <rect class="cls-1" x="274.28" y="231.79" width="3.89" height="3.89"/>
        <rect class="cls-1" x="219.79" y="235.68" width="3.89" height="3.89"/>
        <rect class="cls-1" x="223.68" y="235.68" width="3.89" height="3.89"/>
        <rect class="cls-1" x="262.61" y="235.68" width="3.89" height="3.89"/>
        <rect class="cls-1" x="278.18" y="235.68" width="3.89" height="3.89"/>
        <rect class="cls-1" x="282.07" y="235.68" width="3.89" height="3.89"/>
        <rect class="cls-1" x="285.96" y="235.68" width="3.89" height="3.89"/>
        <rect class="cls-1" x="215.9" y="239.57" width="3.89" height="3.89"/>
        <rect class="cls-1" x="289.85" y="239.57" width="3.89" height="3.89"/>
        <rect class="cls-1" x="212" y="243.47" width="3.89" height="3.89"/>
        <rect class="cls-1" x="293.75" y="243.47" width="3.89" height="3.89"/>
        <rect class="cls-1" x="212" y="247.36" width="3.89" height="3.89"/>
        <rect class="cls-1" x="293.75" y="247.36" width="3.89" height="3.89"/>
        <rect class="cls-1" x="212" y="251.25" width="3.89" height="3.89"/>
        <rect class="cls-1" x="293.75" y="251.25" width="3.89" height="3.89"/>
        <rect class="cls-1" x="212" y="255.14" width="3.89" height="3.89"/>
        <rect class="cls-2" x="215.9" y="255.14" width="3.89" height="3.89"/>
        <rect class="cls-2" x="289.85" y="255.14" width="3.89" height="3.89"/>
        <rect class="cls-1" x="293.75" y="255.14" width="3.89" height="3.89"/>
        <rect class="cls-1" x="215.9" y="259.04" width="3.89" height="3.89"/>
        <rect class="cls-2" x="219.79" y="259.04" width="3.89" height="3.89"/>
        <rect class="cls-2" x="223.68" y="259.04" width="3.89" height="3.89"/>
        <rect class="cls-2" x="227.57" y="259.04" width="3.89" height="3.89"/>
        <rect class="cls-2" x="231.47" y="259.04" width="3.89" height="3.89"/>
        <rect class="cls-2" x="235.36" y="259.04" width="3.89" height="3.89"/>
        <rect class="cls-2" x="239.25" y="259.04" width="3.89" height="3.89"/>
        <rect class="cls-2" x="243.14" y="259.04" width="3.89" height="3.89"/>
        <rect class="cls-2" x="247.04" y="259.04" width="3.89" height="3.89"/>
        <rect class="cls-2" x="250.93" y="259.04" width="3.89" height="3.89"/>
        <rect class="cls-2" x="254.82" y="259.04" width="3.89" height="3.89"/>
        <rect class="cls-2" x="258.71" y="259.04" width="3.89" height="3.89"/>
        <rect class="cls-2" x="262.61" y="259.04" width="3.89" height="3.89"/>
        <rect class="cls-2" x="266.5" y="259.04" width="3.89" height="3.89"/>
        <rect class="cls-2" x="270.39" y="259.04" width="3.89" height="3.89"/>
        <rect class="cls-2" x="274.28" y="259.04" width="3.89" height="3.89"/>
        <rect class="cls-2" x="278.18" y="259.04" width="3.89" height="3.89"/>
        <rect class="cls-2" x="282.07" y="259.04" width="3.89" height="3.89"/>
        <rect class="cls-2" x="285.96" y="259.04" width="3.89" height="3.89"/>
        <rect class="cls-1" x="289.85" y="259.04" width="3.89" height="3.89"/>
        <rect class="cls-1" x="219.79" y="262.93" width="3.89" height="3.89"/>
        <rect class="cls-1" x="223.68" y="262.93" width="3.89" height="3.89"/>
        <rect class="cls-1" x="227.57" y="262.93" width="3.89" height="3.89"/>
        <rect class="cls-1" x="231.47" y="262.93" width="3.89" height="3.89"/>
        <rect class="cls-1" x="235.36" y="262.93" width="3.89" height="3.89"/>
        <rect class="cls-1" x="239.25" y="262.93" width="3.89" height="3.89"/>
        <rect class="cls-1" x="243.14" y="262.93" width="3.89" height="3.89"/>
        <rect class="cls-1" x="247.04" y="262.93" width="3.89" height="3.89"/>
        <rect class="cls-1" x="250.93" y="262.93" width="3.89" height="3.89"/>
        <rect class="cls-1" x="254.82" y="262.93" width="3.89" height="3.89"/>
        <rect class="cls-1" x="258.71" y="262.93" width="3.89" height="3.89"/>
        <rect class="cls-1" x="262.61" y="262.93" width="3.89" height="3.89"/>
        <rect class="cls-1" x="266.5" y="262.93" width="3.89" height="3.89"/>
        <rect class="cls-1" x="270.39" y="262.93" width="3.89" height="3.89"/>
        <rect class="cls-1" x="274.28" y="262.93" width="3.89" height="3.89"/>
        <rect class="cls-2" x="266.5" y="259.04" width="3.89" height="3.89"/>
        <rect class="cls-2" x="270.39" y="259.04" width="3.89" height="3.89"/>
        <rect class="cls-2" x="274.28" y="259.04" width="3.89" height="3.89"/>
        <rect class="cls-1" x="278.18" y="262.93" width="3.89" height="3.89"/>
        <rect class="cls-1" x="282.07" y="262.93" width="3.89" height="3.89"/>
        <rect class="cls-1" x="285.96" y="262.93" width="3.89" height="3.89"/>
      </g>
    </g>
  </g>
</svg>