<svg width="73" height="73" viewBox="0 0 73 73" fill="none" xmlns="http://www.w3.org/2000/svg">
<path d="M0 27.9098L39.5389 67.4366L44.1891 62.785L41.8633 60.4599L44.1884 58.1341L41.8626 55.809L44.1877 53.4832L41.8619 51.158L44.187 48.8322L48.8386 53.4824L51.1637 51.1566L55.8154 55.8068L58.1405 53.481L60.4663 55.8061L65.1165 51.1545L62.7907 48.8294L65.1158 46.5036L62.79 44.1785L60.4641 41.8534L58.139 44.1792L53.4874 39.529L51.1623 41.8548L48.8365 39.5297L51.1616 37.2039L53.4867 34.878L58.1369 30.2264L53.4853 25.5762L51.1602 27.902L48.8344 25.5769L46.5092 27.9027L44.1834 25.5776L41.8583 27.9034L39.5325 25.5783L37.2074 27.9041L34.8816 25.579L32.5565 27.9048L30.2307 25.5797L27.9056 27.9056L25.5797 25.5804L23.2546 27.9063L20.9288 25.5812L18.6037 27.907L16.2779 25.5819L13.9528 27.9077L11.627 25.5826L9.30185 27.9084L6.97603 25.5833L4.65092 27.9091L2.32511 25.584L0 27.9098Z" fill="#74ABC7"/>
<path d="M6.90796 30.1655L39.4694 62.717L41.7945 60.3912L39.4687 58.0661L41.7938 55.7402L39.468 53.4151L41.7931 51.0893L39.4673 48.7642L41.7924 46.4384L44.1182 48.7635L46.4433 46.4377L51.0949 51.0879L53.4201 48.7621L58.0717 53.4123L62.7219 48.7606L58.0703 44.1104L55.7452 46.4362L51.0935 41.786L48.7684 44.1119L44.1168 39.4616L53.4143 30.1612L51.0885 27.8361L48.7663 30.1591L46.4405 27.834L44.1154 30.1598L41.7895 27.8347L39.4644 30.1605L37.1386 27.8354L34.8135 30.1612L32.4877 27.8361L30.1626 30.1619L27.8368 27.8368L25.5117 30.1626L23.1858 27.8375L20.8607 30.1633L18.5349 27.8382L16.2098 30.164L13.884 27.8389L11.5589 30.1648L9.23307 27.8396L6.90796 30.1655Z" fill="white"/>
</svg>
