<?xml version="1.0" encoding="UTF-8"?>
<svg xmlns="http://www.w3.org/2000/svg" version="1.1" viewBox="0 0 595.28 841.89">
  <defs>
    <style>
      .cls-1 {
        fill: #fff;
      }

      .cls-2 {
        fill: #74abc7;
      }
    </style>
  </defs>
  <!-- Generator: Adobe Illustrator 28.7.1, SVG Export Plug-In . SVG Version: 1.2.0 Build 142)  -->
  <g>
    <g id="Layer_1">
      <path class="cls-2" d="M219.01,301.73v137.87h16.22v-8.11h8.11v-8.11h8.11v-8.11h8.11v16.22h8.11v16.22h8.11v8.11h16.22v-8.11h8.11v-8.11h0s0-8.11,0-8.11h-8.11v-16.22h-8.11v-8.11h8.11s8.11,0,8.11,0h16.22v-16.22h-8.11v-8.11h-8.11v-8.11h-8.11v-8.11h-8.11v-8.11h-8.11v-8.11h-8.11v-8.11h-8.11v-8.11h-8.11v-8.11h-8.11v-8.11h-8.11v-8.11h-8.11v-8.11h-8.11ZM219.01,301.73"/>
      <polygon class="cls-1" points="227.12 317.71 227.12 431.25 235.23 431.25 235.23 423.14 235.23 423.14 243.34 423.14 243.34 415.03 251.45 415.03 251.45 406.92 251.45 406.92 259.56 406.92 259.56 415.03 267.67 415.03 267.67 431.25 275.78 431.25 275.78 431.25 275.78 431.25 275.78 447.47 292 447.47 292 431.25 283.89 431.25 283.89 415.03 275.78 415.03 275.78 398.81 308.21 398.81 308.21 390.7 300.11 390.7 300.11 382.59 292 382.59 292 374.48 283.89 374.48 283.89 366.37 275.78 366.37 275.78 366.37 275.78 358.26 267.67 358.26 267.67 350.15 259.56 350.15 259.56 350.15 259.56 342.04 251.45 342.04 251.45 333.93 243.34 333.93 243.34 333.93 243.34 325.82 235.23 325.82 235.23 317.71 227.12 317.71"/>
    </g>
  </g>
</svg>