<?xml version="1.0" encoding="UTF-8"?>
<svg id="Layer_1" xmlns="http://www.w3.org/2000/svg" version="1.1" viewBox="0 0 1400.3 3310">
  <!-- Generator: Adobe Illustrator 29.0.0, SVG Export Plug-In . SVG Version: 2.1.0 Build 186)  -->
  <defs>
    <style>
      .st0 {
        fill: #99b8f9;
      }

      .st1 {
        fill: #fff;
      }
    </style>
  </defs>
  <g id="Layer_11" data-name="Layer_1">
    <g>
      <rect class="st0" x="59.3" y="33.7" width="1283" height="2763.5"/>
      <rect class="st1" x="72.5" y="161.9" width="1255.9" height="2613.1"/>
      <rect class="st1" x="72.4" y="108.1" width="1256.8" height="40"/>
      <g>
        <g>
          <path class="st0" d="M103,131.8h-2.2v2.3h-2.3v2.3h-11.5v-15.9h11.4v2.2h2.3v2.3h2.3v6.9h0ZM98.4,131.8v-6.9h-2.3v-2.1h-4.5v11.3h4.6v-2.3h2.2,0Z"/>
          <path class="st0" d="M119.9,136.4h-13.7v-2.2h4.5v-11.4h-4.5v-2.3h13.7v2.2h-4.5v11.4h4.5v2.3Z"/>
          <path class="st0" d="M138.2,134.1h-2.2v2.3h-11.5v-2.2h-2.3v-2.3h4.6v2.2h6.8v-4.5h-9.1v-2.3h-2.3v-4.6h2.2v-2.3h9.2v2.2h2.3v2.3h-4.5v-2.2h-4.6v4.4h9.1v2.3h2.3v4.6h0Z"/>
          <path class="st0" d="M155.8,124.9h-4.5v-2.2h-4.5v2.2h-2.3v6.8h2.2v2.3h4.5v-2.2h4.6v2.2h-2.2v2.3h-9.2v-2.2h-2.3v-2.3h-2.3v-6.9h2.2v-2.2h2.3v-2.3h9.2v2.2h2.3v2.3h0Z"/>
        </g>
        <g>
          <path class="st0" d="M229.3,134.1h-2.2v2.3h-11.5v-2.2h-2.3v-11.5h2.2v-2.3h11.5v2.2h2.3v11.5ZM224.7,134.1v-11.3h-6.8v11.3h6.8Z"/>
          <path class="st0" d="M246.9,129.5h-2.2v2.3h-9.2v4.6h-4.6v-15.9h13.7v2.2h2.3v6.9ZM242.4,129.5v-6.8h-6.8v6.8h6.8Z"/>
          <path class="st0" d="M261.1,122.6h-4.5v13.7h-4.6v-13.6h-4.6v-2.3h13.7v2.2h0Z"/>
          <path class="st0" d="M281.5,136.4h-13.7v-2.2h4.5v-11.4h-4.5v-2.3h13.7v2.2h-4.5v11.4h4.5v2.3Z"/>
          <path class="st0" d="M299.8,134.1h-2.2v2.3h-11.5v-2.2h-2.3v-11.5h2.2v-2.3h11.5v2.2h2.3v11.5h0ZM295.2,134.1v-11.3h-6.8v11.3h6.8Z"/>
          <path class="st0" d="M317.4,136.4h-4.5v-2.2h-2.3v-2.3h-2.3v-2.3h-2.2v6.8h-4.6v-15.9h4.5v2.2h2.3v2.3h2.3v2.3h2.2v-6.8h4.6v15.9h0Z"/>
        </g>
        <g>
          <path class="st0" d="M390.9,129.5h-2.2v2.3h-2.3v2.3h-2.3v2.3h-2.3v-2.2h-2.3v-2.3h-2.2v-2.3h-2.3v-9.2h4.5v6.7h2.3v2.4h2.2v-2.2h2.3v-6.8h4.6v9.1h0Z"/>
          <path class="st0" d="M407.9,136.4h-13.7v-2.2h4.5v-11.4h-4.5v-2.3h13.7v2.2h-4.5v11.4h4.5v2.3Z"/>
          <path class="st0" d="M426.4,136.2h-16.1v-16.1h16.1v2.2h-11.5v4.6h6.9v2.4h-6.9v4.6h11.5v2.3Z"/>
          <path class="st0" d="M443.8,136.4h-4.5v-2.2h-2.3v-2.4h-2.2v2.2h-2.3v2.3h-4.6v-15.9h4.5v6.8h2.3v-2.2h2.3v2.2h2.2v-6.8h4.6v15.9h0Z"/>
        </g>
        <g>
          <path class="st0" d="M517.3,136.4h-4.5v-6.8h-6.8v6.8h-4.6v-15.9h4.5v6.8h6.8v-6.8h4.6v15.9Z"/>
          <path class="st0" d="M535.2,136.2h-16.1v-16.1h16.1v2.2h-11.5v4.6h6.9v2.4h-6.9v4.6h11.5v2.3Z"/>
          <path class="st0" d="M549.1,136.4h-13.7v-15.9h4.5v13.6h9.2v2.3h0Z"/>
          <path class="st0" d="M570.1,129.5h-2.2v2.3h-9.2v4.6h-4.6v-15.9h13.7v2.2h2.3v6.9h0ZM565.5,129.5v-6.8h-6.8v6.8h6.8Z"/>
        </g>
      </g>
      <g>
        <rect class="st1" x="1305" y="61.3" width="5.7" height="5.7"/>
        <rect class="st1" x="1299.3" y="55.6" width="5.7" height="5.7"/>
        <rect class="st1" x="1322.1" y="55.6" width="5.7" height="5.7"/>
        <rect class="st1" x="1299.3" y="78.4" width="5.7" height="5.7"/>
        <rect class="st1" x="1322.1" y="78.4" width="5.7" height="5.7"/>
        <rect class="st1" x="1310.7" y="67" width="5.7" height="5.7"/>
        <rect class="st1" x="1316.4" y="61.3" width="5.7" height="5.7"/>
        <rect class="st1" x="1305" y="72.7" width="5.7" height="5.7"/>
        <rect class="st1" x="1316.4" y="72.7" width="5.7" height="5.7"/>
      </g>
      <g>
        <path class="st1" d="M82.9,57.3h18.5v3.4h-15.1v8.4h15.1v3.4h-15.1v10.1h15.1v3.4h-18.5v-28.6ZM101.4,60.6h3.4v8.4h-3.4v-8.4ZM101.4,72.4h3.4v10.1h-3.4v-10.1Z"/>
        <path class="st1" d="M113.6,69v5h11.8v-5h3.4v8.4h-15.1v5h-3.4v-13.4h3.4ZM113.6,65.7h11.8v3.4h-11.8v-3.4ZM125.4,82.5v3.4h-11.8v-3.4h11.8ZM125.4,79.1h3.4v3.4h-3.4v-3.4Z"/>
        <path class="st1" d="M137.2,72.4h-3.4v-3.4h3.4v3.4ZM133.8,75.7h3.4v6.7h-3.4v-6.7ZM137.2,65.7h10.1v3.4h-10.1v-3.4ZM147.3,82.5h-3.4v-3.4h3.4v-3.4h-10.1v-3.4h10.1v-3.4h3.4v16.8h-3.4v-3.4ZM137.2,82.5h6.7v3.4h-6.7v-3.4Z"/>
        <path class="st1" d="M159.4,69v13.4h-3.4v-13.4h3.4ZM169.5,65.7v3.4h-10.1v-3.4h10.1ZM169.5,85.8h-10.1v-3.4h10.1v3.4ZM172.9,69v3.4h-3.4v-3.4h3.4ZM172.9,79.1v3.4h-3.4v-3.4h3.4Z"/>
        <path class="st1" d="M177.7,57.3h3.4v11.8h3.4v3.4h-3.4v13.4h-3.4v-28.6ZM191.1,65.7v3.4h-6.7v-3.4h6.7ZM194.5,69v16.8h-3.4v-16.8h3.4Z"/>
        <path class="st1" d="M207.2,57.3h3.4v6.7h-3.4v-6.7ZM210.6,64h3.4v8.4h-3.4v-8.4ZM214,72.4h3.4v8.4h-3.4v-8.4ZM217.3,80.8h3.4v5h-3.4v-5ZM220.7,72.4h3.4v8.4h-3.4v-8.4ZM224,64h3.4v8.4h-3.4v-8.4ZM227.4,57.3h3.4v6.7h-3.4v-6.7Z"/>
        <path class="st1" d="M236.7,69v13.4h-3.4v-13.4h3.4ZM236.7,65.7h11.8v3.4h-11.8v-3.4ZM236.7,82.5h11.8v3.4h-11.8v-3.4ZM251.8,69v13.4h-3.4v-13.4h3.4Z"/>
        <path class="st1" d="M257.5,57.3h3.4v28.6h-3.4v-28.6Z"/>
        <path class="st1" d="M267.2,57.3h3.4v28.6h-3.4v-28.6Z"/>
        <path class="st1" d="M279.6,69v5h11.8v-5h3.4v8.4h-15.1v5h-3.4v-13.4h3.4ZM279.6,65.7h11.8v3.4h-11.8v-3.4ZM291.4,82.5v3.4h-11.8v-3.4h11.8ZM291.4,79.1h3.4v3.4h-3.4v-3.4Z"/>
        <path class="st1" d="M302.7,65.7v10.1h-3.4v-10.1h3.4ZM299.3,90.9h6.7v3.4h-6.7v-3.4ZM306.1,75.7v8.4h-3.4v-8.4h3.4ZM309.4,84.2v6.7h-3.4v-6.7h3.4ZM312.8,75.7v8.4h-3.4v-8.4h3.4ZM316.1,65.7v10.1h-3.4v-10.1h3.4Z"/>
        <path class="st1" d="M324.7,57.3v11.8h3.4v3.4h-3.4v6.7h3.4v3.4h-3.4v3.4h-3.4v-28.6h3.4ZM336.4,65.7v3.4h-8.4v-3.4h8.4ZM336.4,85.8h-8.4v-3.4h8.4v3.4ZM336.4,69h3.4v13.4h-3.4v-13.4Z"/>
        <path class="st1" d="M348.2,72.4h-3.4v-3.4h3.4v3.4ZM344.9,75.7h3.4v6.7h-3.4v-6.7ZM348.2,65.7h10.1v3.4h-10.1v-3.4ZM358.3,82.5h-3.4v-3.4h3.4v-3.4h-10.1v-3.4h10.1v-3.4h3.4v16.8h-3.4v-3.4ZM348.2,82.5h6.7v3.4h-6.7v-3.4Z"/>
        <path class="st1" d="M367.7,57.3h3.4v28.6h-3.4v-28.6Z"/>
        <path class="st1" d="M377.4,57.3h3.4v28.6h-3.4v-28.6Z"/>
        <path class="st1" d="M403.8,60.6h-10.1v-3.4h23.5v3.4h-10.1v25.2h-3.4v-25.2Z"/>
        <path class="st1" d="M420.7,69v13.4h-3.4v-13.4h3.4ZM420.7,65.7h11.8v3.4h-11.8v-3.4ZM420.7,82.5h11.8v3.4h-11.8v-3.4ZM435.8,69v13.4h-3.4v-13.4h3.4Z"/>
        <path class="st1" d="M441.2,65.7h3.4v16.8h-3.4v-16.8ZM451.3,85.8h-6.7v-3.4h6.7v3.4ZM454.7,82.5h-3.4v-3.4h3.4v-13.4h3.4v20.2h-3.4v-3.4Z"/>
        <path class="st1" d="M464.3,65.7h3.4v3.4h3.4v3.4h-3.4v13.4h-3.4v-20.2ZM471.1,65.7h5v3.4h-5v-3.4Z"/>
        <path class="st1" d="M480.1,65.7h3.4v3.4h3.4v3.4h-3.4v13.4h-3.4v-20.2ZM486.8,65.7h6.7v3.4h-6.7v-3.4ZM496.9,69v16.8h-3.4v-16.8h3.4Z"/>
        <path class="st1" d="M505.6,72.4h-3.4v-3.4h3.4v3.4ZM502.3,75.7h3.4v6.7h-3.4v-6.7ZM505.6,65.7h10.1v3.4h-10.1v-3.4ZM515.7,82.5h-3.4v-3.4h3.4v-3.4h-10.1v-3.4h10.1v-3.4h3.4v16.8h-3.4v-3.4ZM505.6,82.5h6.7v3.4h-6.7v-3.4Z"/>
        <path class="st1" d="M525.1,65.7h3.4v3.4h3.4v3.4h-3.4v13.4h-3.4v-20.2ZM531.8,65.7h6.7v3.4h-6.7v-3.4ZM545.3,69v3.4h-3.4v13.4h-3.4v-16.8h6.7ZM545.3,65.7h6.7v3.4h-6.7v-3.4ZM555.4,69v16.8h-3.4v-16.8h3.4Z"/>
        <path class="st1" d="M564.1,69v5h11.8v-5h3.4v8.4h-15.1v5h-3.4v-13.4h3.4ZM564.1,65.7h11.8v3.4h-11.8v-3.4ZM575.9,82.5v3.4h-11.8v-3.4h11.8ZM575.9,79.1h3.4v3.4h-3.4v-3.4Z"/>
        <path class="st1" d="M585,65.7h3.4v3.4h3.4v3.4h-3.4v13.4h-3.4v-20.2ZM591.7,65.7h6.7v3.4h-6.7v-3.4ZM601.8,69v16.8h-3.4v-16.8h3.4Z"/>
        <path class="st1" d="M609.1,65.7v-5h3.4v5h6.7v3.4h-6.7v13.4h-3.4v-13.4h-3.4v-3.4h3.4ZM619.1,82.5v3.4h-6.7v-3.4h6.7Z"/>
        <path class="st1" d="M633.5,57.3h16.8v3.4h-13.4v11.8h13.4v3.4h-13.4v10.1h-3.4v-28.6ZM653.7,60.6v11.8h-3.4v-11.8h3.4Z"/>
        <path class="st1" d="M661.5,69v13.4h-3.4v-13.4h3.4ZM661.5,65.7h11.8v3.4h-11.8v-3.4ZM661.5,82.5h11.8v3.4h-11.8v-3.4ZM676.6,69v13.4h-3.4v-13.4h3.4Z"/>
        <path class="st1" d="M684.5,72.4h-3.4v-3.4h3.4v3.4ZM684.5,79.1v3.4h-3.4v-3.4h3.4ZM684.5,65.7h10.1v3.4h-10.1v-3.4ZM689.6,72.4v3.4h-5v-3.4h5ZM684.5,82.5h10.1v3.4h-10.1v-3.4ZM694.6,75.7v3.4h-5v-3.4h5ZM698,69v3.4h-3.4v-3.4h3.4ZM698,79.1v3.4h-3.4v-3.4h3.4Z"/>
        <path class="st1" d="M704.4,65.7v-5h3.4v5h6.7v3.4h-6.7v13.4h-3.4v-13.4h-3.4v-3.4h3.4ZM714.5,82.5v3.4h-6.7v-3.4h6.7Z"/>
        <path class="st1" d="M721.9,69v5h11.8v-5h3.4v8.4h-15.1v5h-3.4v-13.4h3.4ZM721.9,65.7h11.8v3.4h-11.8v-3.4ZM733.6,82.5v3.4h-11.8v-3.4h11.8ZM733.6,79.1h3.4v3.4h-3.4v-3.4Z"/>
        <path class="st1" d="M742.7,65.7h3.4v3.4h3.4v3.4h-3.4v13.4h-3.4v-20.2ZM749.4,65.7h5v3.4h-5v-3.4Z"/>
      </g>
    </g>
  </g>
</svg>