<?xml version="1.0" encoding="UTF-8"?>
<svg xmlns="http://www.w3.org/2000/svg" version="1.1" viewBox="0 0 595.28 841.89">
  <defs>
    <style>
      .cls-1 {
        fill: #fff;
      }

      .cls-2 {
        fill: #abdfec;
      }
    </style>
  </defs>
  <!-- Generator: Adobe Illustrator 28.7.1, SVG Export Plug-In . SVG Version: 1.2.0 Build 142)  -->
  <g>
    <g id="Layer_1">
      <g>
        <path class="cls-2" d="M36.3,107.1v322.12h524.92V107.1H36.3ZM102.68,116.92h1.6v-2.4h1.6v2.4h3.2v1.6h-3.2v6.4h3.2v1.6h-3.2v-1.6h-1.6v-6.4h-1.6v-1.6ZM93.38,118.52h1.6v-1.6h4.8v1.6h1.6v1.6h-1.6v-1.6h-4.8v6.4h4.8v-1.6h1.6v1.6h-1.6v1.6h-4.8v-1.6h-1.6v-6.4ZM82.14,118.52h1.6v-1.6h5.6v1.6h1.6v4h-7.2v2.4h5.6v-1.6h1.6v1.6h-1.6v1.6h-5.6v-1.6h-1.6v-6.4ZM77.82,113.72h1.6v1.6h-1.6v-1.6ZM75.42,128.92h2.4v-12h1.6v12h-1.6v1.6h-2.4v-1.6ZM65.9,118.52h1.6v-1.6h5.6v1.6h1.6v6.4h-1.6v1.6h-5.6v-1.6h-1.6v-6.4ZM58.78,116.92h1.6v1.6h1.6v-1.6h2.4v1.6h-2.4v1.6h-1.6v6.4h-1.6v-9.6ZM46.6,112.92h8v1.6h1.6v5.6h-1.6v1.6h-6.4v4.8h-1.6v-13.6ZM550.84,420.94H44.43v-251.89h506.41v251.89ZM550.84,162.25H44.43v-25.56h506.41v25.56ZM550.84,116.78h-3.29v3.29h-3.29v3.29h3.29v3.29h3.29v3.29h-3.29v-3.29h-3.29v-3.29h-3.29v3.29h-3.29v3.29h-3.29v-3.29h3.29v-3.29h3.29v-3.29h-3.29v-3.29h-3.29v-3.29h3.29v3.29h3.29v3.29h3.29v-3.29h3.29v-3.29h3.29v3.29Z"/>
        <rect class="cls-2" x="48.2" y="114.52" width="6.4" height="5.6"/>
        <rect class="cls-2" x="67.5" y="118.52" width="5.6" height="6.4"/>
        <rect class="cls-2" x="83.74" y="118.52" width="5.6" height="2.4"/>
        <rect class="cls-1" x="117.24" y="146.52" width="3.54" height="5.91"/>
        <rect class="cls-1" x="126.43" y="146.52" width="3.54" height="3.52"/>
        <rect class="cls-1" x="153.97" y="146.52" width="3.54" height="5.91"/>
        <rect class="cls-1" x="294.87" y="146.52" width="3.54" height="3.52"/>
        <path class="cls-1" d="M44.43,162.25h506.41v-25.56H44.43v25.56ZM292.48,145.31h7.13v1.13h1.19v3.59h-1.14v1.2h-4.79v2.39h-2.39v-8.31ZM282.7,145.31h2.35v7.11h4.77v1.2h-7.13v-8.31ZM274.17,145.16h8.41v1.17h-5.99v2.39h3.59v1.24h-3.59v2.4h5.99v1.2h-8.41v-8.4ZM264.94,145.31h2.35v3.54h3.57v-3.54h2.39v8.31h-2.35v-3.57h-3.54v3.57h-2.42v-8.31ZM226.62,145.31h2.35v3.54h1.2v-1.15h1.22v1.15h1.15v-3.54h2.39v8.31h-2.35v-1.13h-1.19v-1.24h-1.17v1.17h-1.19v1.2h-2.42v-8.31ZM217.49,145.16h8.41v1.17h-5.99v2.39h3.59v1.24h-3.59v2.4h5.99v1.2h-8.41v-8.4ZM209.09,152.46h2.35v-5.94h-2.35v-1.2h7.13v1.15h-2.35v5.96h2.35v1.2h-7.13v-1.17ZM199.08,145.31h2.35v3.51h1.22v1.24h1.14v-1.17h1.22v-3.57h2.39v4.74h-1.15v1.19h-1.19v1.19h-1.2v1.2h-1.2v-1.13h-1.22v-1.2h-1.17v-1.19h-1.19v-4.79ZM160.77,145.31h2.35v1.13h1.22v1.19h1.2v1.22h1.15v-3.54h2.39v8.31h-2.35v-1.13h-1.19v-1.2h-1.2v-1.22h-1.15v3.56h-2.42v-8.31ZM151.58,146.52h1.14v-1.2h5.99v1.13h1.19v5.98h-1.14v1.2h-5.98v-1.13h-1.2v-5.98ZM143.24,152.46h2.35v-5.94h-2.35v-1.2h7.13v1.15h-2.35v5.96h2.35v1.2h-7.13v-1.17ZM132.62,145.31h7.13v1.15h-2.34v7.16h-2.39v-7.11h-2.4v-1.2ZM124.04,145.31h7.13v1.13h1.19v3.59h-1.14v1.2h-4.79v2.39h-2.39v-8.31ZM114.86,146.52h1.14v-1.2h5.99v1.13h1.19v5.98h-1.14v1.2h-5.98v-1.13h-1.2v-5.98ZM76.54,147.65h1.14v-1.14h1.2v-1.2h4.79v1.13h1.19v1.2h-2.35v-1.14h-2.35v1.14h-1.22v3.56h1.17v1.22h2.37v-1.15h2.39v1.15h-1.14v1.2h-4.79v-1.13h-1.19v-1.22h-1.2v-3.62ZM67.36,151.29h2.39v1.13h3.54v-2.32h-4.72v-1.2h-1.2v-2.39h1.14v-1.2h4.79v1.13h1.2v1.2h-2.35v-1.14h-2.39v2.3h4.74v1.22h1.19v2.39h-1.14v1.2h-5.98v-1.13h-1.2v-1.2ZM59.02,152.46h2.35v-5.94h-2.35v-1.2h7.13v1.15h-2.35v5.96h2.35v1.2h-7.13v-1.17ZM49,145.31h5.93v1.13h1.2v1.19h1.19v3.61h-1.14v1.19h-1.19v1.2h-5.99v-8.31Z"/>
        <polygon class="cls-1" points="53.74 146.52 51.39 146.52 51.39 152.43 53.79 152.43 53.79 151.24 54.93 151.24 54.93 147.64 53.74 147.64 53.74 146.52"/>
        <path class="cls-2" d="M54.99,152.43h1.19v-1.19h1.14v-3.61h-1.19v-1.19h-1.2v-1.13h-5.93v8.31h5.99v-1.2ZM54.93,151.24h-1.14v1.19h-2.4v-5.91h2.35v1.12h1.19v3.61Z"/>
        <polygon class="cls-2" points="66.14 152.43 63.79 152.43 63.79 146.47 66.14 146.47 66.14 145.31 59.02 145.31 59.02 146.52 61.37 146.52 61.37 152.46 59.02 152.46 59.02 153.63 66.14 153.63 66.14 152.43"/>
        <polygon class="cls-2" points="68.57 153.63 74.54 153.63 74.54 152.43 75.68 152.43 75.68 150.04 74.49 150.04 74.49 148.82 69.75 148.82 69.75 146.52 72.14 146.52 72.14 147.65 74.49 147.65 74.49 146.45 73.29 146.45 73.29 145.31 68.5 145.31 68.5 146.52 67.36 146.52 67.36 148.9 68.57 148.9 68.57 150.11 73.29 150.11 73.29 152.43 69.75 152.43 69.75 151.29 67.36 151.29 67.36 152.49 68.57 152.49 68.57 153.63"/>
        <polygon class="cls-2" points="77.75 152.49 78.93 152.49 78.93 153.63 83.72 153.63 83.72 152.43 84.86 152.43 84.86 151.27 82.47 151.27 82.47 152.43 80.1 152.43 80.1 151.21 78.93 151.21 78.93 147.65 80.15 147.65 80.15 146.52 82.5 146.52 82.5 147.65 84.86 147.65 84.86 146.45 83.67 146.45 83.67 145.31 78.88 145.31 78.88 146.52 77.68 146.52 77.68 147.65 76.54 147.65 76.54 151.27 77.75 151.27 77.75 152.49"/>
        <path class="cls-2" d="M116.06,153.63h5.98v-1.2h1.14v-5.98h-1.19v-1.13h-5.99v1.2h-1.14v5.98h1.2v1.13ZM117.24,146.52h3.54v5.91h-3.54v-5.91Z"/>
        <path class="cls-2" d="M126.43,151.24h4.79v-1.2h1.14v-3.59h-1.19v-1.13h-7.13v8.31h2.39v-2.39ZM126.43,146.52h3.54v3.52h-3.54v-3.52Z"/>
        <polygon class="cls-2" points="135.02 153.63 137.41 153.63 137.41 146.47 139.75 146.47 139.75 145.31 132.62 145.31 132.62 146.52 135.02 146.52 135.02 153.63"/>
        <polygon class="cls-2" points="150.37 152.43 148.01 152.43 148.01 146.47 150.37 146.47 150.37 145.31 143.24 145.31 143.24 146.52 145.59 146.52 145.59 152.46 143.24 152.46 143.24 153.63 150.37 153.63 150.37 152.43"/>
        <path class="cls-2" d="M152.79,153.63h5.98v-1.2h1.14v-5.98h-1.19v-1.13h-5.99v1.2h-1.14v5.98h1.2v1.13ZM153.97,146.52h3.54v5.91h-3.54v-5.91Z"/>
        <polygon class="cls-2" points="163.19 150.07 164.34 150.07 164.34 151.29 165.54 151.29 165.54 152.49 166.73 152.49 166.73 153.63 169.08 153.63 169.08 145.31 166.69 145.31 166.69 148.85 165.54 148.85 165.54 147.64 164.34 147.64 164.34 146.45 163.12 146.45 163.12 145.31 160.77 145.31 160.77 153.63 163.19 153.63 163.19 150.07"/>
        <polygon class="cls-2" points="200.26 151.29 201.43 151.29 201.43 152.49 202.65 152.49 202.65 153.63 203.85 153.63 203.85 152.43 205.06 152.43 205.06 151.24 206.24 151.24 206.24 150.06 207.39 150.06 207.39 145.31 205.01 145.31 205.01 148.89 203.79 148.89 203.79 150.06 202.65 150.06 202.65 148.82 201.43 148.82 201.43 145.31 199.08 145.31 199.08 150.11 200.26 150.11 200.26 151.29"/>
        <polygon class="cls-2" points="216.22 152.43 213.87 152.43 213.87 146.47 216.22 146.47 216.22 145.31 209.09 145.31 209.09 146.52 211.45 146.52 211.45 152.46 209.09 152.46 209.09 153.63 216.22 153.63 216.22 152.43"/>
        <polygon class="cls-2" points="225.91 152.36 219.91 152.36 219.91 149.96 223.5 149.96 223.5 148.72 219.91 148.72 219.91 146.33 225.91 146.33 225.91 145.16 217.49 145.16 217.49 153.56 225.91 153.56 225.91 152.36"/>
        <polygon class="cls-2" points="229.04 152.43 230.23 152.43 230.23 151.26 231.4 151.26 231.4 152.49 232.58 152.49 232.58 153.63 234.94 153.63 234.94 145.31 232.55 145.31 232.55 148.85 231.4 148.85 231.4 147.7 230.18 147.7 230.18 148.85 228.98 148.85 228.98 145.31 226.62 145.31 226.62 153.63 229.04 153.63 229.04 152.43"/>
        <polygon class="cls-2" points="267.36 150.06 270.9 150.06 270.9 153.63 273.25 153.63 273.25 145.31 270.86 145.31 270.86 148.85 267.29 148.85 267.29 145.31 264.94 145.31 264.94 153.63 267.36 153.63 267.36 150.06"/>
        <polygon class="cls-2" points="282.58 152.36 276.59 152.36 276.59 149.96 280.18 149.96 280.18 148.72 276.59 148.72 276.59 146.33 282.58 146.33 282.58 145.16 274.17 145.16 274.17 153.56 282.58 153.56 282.58 152.36"/>
        <polygon class="cls-2" points="289.83 152.43 285.05 152.43 285.05 145.31 282.7 145.31 282.7 153.63 289.83 153.63 289.83 152.43"/>
        <path class="cls-2" d="M294.87,151.24h4.79v-1.2h1.14v-3.59h-1.19v-1.13h-7.13v8.31h2.39v-2.39ZM294.87,146.52h3.54v3.52h-3.54v-3.52Z"/>
        <rect class="cls-1" x="537.68" y="116.78" width="3.29" height="3.29"/>
        <rect class="cls-1" x="534.39" y="113.49" width="3.29" height="3.29"/>
        <rect class="cls-1" x="547.55" y="113.49" width="3.29" height="3.29"/>
        <rect class="cls-1" x="534.39" y="126.65" width="3.29" height="3.29"/>
        <rect class="cls-1" x="547.55" y="126.65" width="3.29" height="3.29"/>
        <rect class="cls-1" x="540.97" y="120.07" width="3.29" height="3.29"/>
        <rect class="cls-1" x="544.26" y="116.78" width="3.29" height="3.29"/>
        <rect class="cls-1" x="537.68" y="123.36" width="3.29" height="3.29"/>
        <rect class="cls-1" x="544.26" y="123.36" width="3.29" height="3.29"/>
        <rect class="cls-1" x="54.6" y="114.52" width="1.6" height="5.6"/>
        <polygon class="cls-1" points="48.2 121.72 54.6 121.72 54.6 120.12 48.2 120.12 48.2 114.52 54.6 114.52 54.6 112.92 46.6 112.92 46.6 126.52 48.2 126.52 48.2 121.72"/>
        <rect class="cls-1" x="61.98" y="116.92" width="2.4" height="1.6"/>
        <polygon class="cls-1" points="60.38 120.12 61.98 120.12 61.98 118.52 60.38 118.52 60.38 116.92 58.78 116.92 58.78 126.52 60.38 126.52 60.38 120.12"/>
        <rect class="cls-1" x="65.9" y="118.52" width="1.6" height="6.4"/>
        <rect class="cls-1" x="67.5" y="116.92" width="5.6" height="1.6"/>
        <rect class="cls-1" x="73.1" y="118.52" width="1.6" height="6.4"/>
        <rect class="cls-1" x="67.5" y="124.92" width="5.6" height="1.6"/>
        <rect class="cls-1" x="77.82" y="113.72" width="1.6" height="1.6"/>
        <rect class="cls-1" x="75.42" y="128.92" width="2.4" height="1.6"/>
        <rect class="cls-1" x="77.82" y="116.92" width="1.6" height="12"/>
        <rect class="cls-1" x="83.74" y="116.92" width="5.6" height="1.6"/>
        <polygon class="cls-1" points="83.74 122.52 90.94 122.52 90.94 118.52 89.34 118.52 89.34 120.92 83.74 120.92 83.74 118.52 82.14 118.52 82.14 124.92 83.74 124.92 83.74 122.52"/>
        <rect class="cls-1" x="89.34" y="123.32" width="1.6" height="1.6"/>
        <rect class="cls-1" x="83.74" y="124.92" width="5.6" height="1.6"/>
        <rect class="cls-1" x="93.38" y="118.52" width="1.6" height="6.4"/>
        <rect class="cls-1" x="99.78" y="118.52" width="1.6" height="1.6"/>
        <rect class="cls-1" x="94.98" y="116.92" width="4.8" height="1.6"/>
        <rect class="cls-1" x="99.78" y="123.32" width="1.6" height="1.6"/>
        <rect class="cls-1" x="94.98" y="124.92" width="4.8" height="1.6"/>
        <rect class="cls-1" x="105.88" y="124.92" width="3.2" height="1.6"/>
        <polygon class="cls-1" points="104.28 124.92 105.88 124.92 105.88 118.52 109.08 118.52 109.08 116.92 105.88 116.92 105.88 114.52 104.28 114.52 104.28 116.92 102.68 116.92 102.68 118.52 104.28 118.52 104.28 124.92"/>
      </g>
    </g>
  </g>
</svg>