<?xml version="1.0" encoding="UTF-8"?>
<svg xmlns="http://www.w3.org/2000/svg" version="1.1" viewBox="0 0 595.28 841.89">
  <defs>
    <style>
      .cls-1 {
        fill: #010101;
      }

      .cls-2 {
        fill: #c8c7c6;
      }
    </style>
  </defs>
  <!-- Generator: Adobe Illustrator 28.7.1, SVG Export Plug-In . SVG Version: 1.2.0 Build 142)  -->
  <g>
    <g id="Layer_1">
      <g>
        <rect class="cls-1" x="198.71" y="287.32" width="8.41" height="8.41"/>
        <rect class="cls-1" x="207.13" y="287.32" width="8.41" height="8.41"/>
        <rect class="cls-1" x="215.54" y="287.32" width="8.41" height="8.41"/>
        <rect class="cls-1" x="223.95" y="287.32" width="8.41" height="8.41"/>
        <rect class="cls-1" x="232.36" y="287.32" width="8.41" height="8.41"/>
        <rect class="cls-1" x="240.77" y="287.32" width="8.41" height="8.41"/>
        <rect class="cls-1" x="249.18" y="287.32" width="8.41" height="8.41"/>
        <rect class="cls-1" x="257.59" y="287.32" width="8.41" height="8.41"/>
        <rect class="cls-1" x="266" y="287.32" width="8.41" height="8.41"/>
        <rect class="cls-1" x="274.41" y="287.32" width="8.41" height="8.41"/>
        <rect class="cls-1" x="282.82" y="287.32" width="8.41" height="8.41"/>
        <rect class="cls-1" x="291.24" y="287.32" width="8.41" height="8.41"/>
        <rect class="cls-1" x="299.65" y="287.32" width="8.41" height="8.41"/>
        <rect class="cls-1" x="308.06" y="287.32" width="8.41" height="8.41"/>
        <rect class="cls-1" x="316.47" y="287.32" width="8.41" height="8.41"/>
        <rect class="cls-1" x="324.88" y="287.32" width="8.41" height="8.41"/>
        <rect class="cls-1" x="333.29" y="287.32" width="8.41" height="8.41"/>
        <rect class="cls-1" x="341.7" y="287.32" width="8.41" height="8.41"/>
        <rect class="cls-1" x="350.11" y="287.32" width="8.41" height="8.41"/>
        <rect class="cls-1" x="358.52" y="287.32" width="8.41" height="8.41"/>
        <rect class="cls-1" x="366.93" y="287.32" width="8.41" height="8.41"/>
        <rect class="cls-1" x="375.34" y="287.32" width="8.41" height="8.41"/>
        <rect class="cls-1" x="383.76" y="287.32" width="8.41" height="8.41"/>
        <rect class="cls-1" x="392.17" y="287.32" width="8.41" height="8.41"/>
        <rect class="cls-1" x="400.58" y="287.32" width="8.41" height="8.41"/>
        <rect class="cls-1" x="408.99" y="287.32" width="8.41" height="8.41"/>
        <rect class="cls-1" x="417.4" y="287.32" width="8.41" height="8.41"/>
        <rect class="cls-1" x="425.81" y="287.32" width="8.41" height="8.41"/>
        <rect class="cls-1" x="190.3" y="295.73" width="8.41" height="8.41"/>
        <rect class="cls-1" x="434.22" y="295.73" width="8.41" height="8.41"/>
        <rect class="cls-1" x="181.89" y="304.15" width="8.41" height="8.41"/>
        <rect class="cls-1" x="442.63" y="304.15" width="8.41" height="8.41"/>
        <rect class="cls-1" x="181.89" y="312.56" width="8.41" height="8.41"/>
        <rect class="cls-1" x="442.63" y="312.56" width="8.41" height="8.41"/>
        <rect class="cls-1" x="181.89" y="320.97" width="8.41" height="8.41"/>
        <rect class="cls-1" x="442.63" y="320.97" width="8.41" height="8.41"/>
        <rect class="cls-1" x="181.89" y="329.38" width="8.41" height="8.41"/>
        <rect class="cls-1" x="442.63" y="329.38" width="8.41" height="8.41"/>
        <rect class="cls-1" x="181.89" y="337.79" width="8.41" height="8.41"/>
        <rect class="cls-2" x="190.3" y="337.79" width="8.41" height="8.41"/>
        <rect class="cls-2" x="434.22" y="337.79" width="8.41" height="8.41"/>
        <rect class="cls-1" x="442.63" y="337.79" width="8.41" height="8.41"/>
        <rect class="cls-1" x="190.3" y="346.2" width="8.41" height="8.41"/>
        <rect class="cls-2" x="198.71" y="346.2" width="8.41" height="8.41"/>
        <rect class="cls-2" x="207.13" y="346.2" width="8.41" height="8.41"/>
        <rect class="cls-2" x="215.54" y="346.2" width="8.41" height="8.41"/>
        <rect class="cls-2" x="223.95" y="346.2" width="8.41" height="8.41"/>
        <rect class="cls-2" x="232.36" y="346.2" width="8.41" height="8.41"/>
        <rect class="cls-2" x="240.77" y="346.2" width="8.41" height="8.41"/>
        <rect class="cls-2" x="249.18" y="346.2" width="8.41" height="8.41"/>
        <rect class="cls-2" x="257.59" y="346.2" width="8.41" height="8.41"/>
        <rect class="cls-2" x="266" y="346.2" width="8.41" height="8.41"/>
        <rect class="cls-2" x="274.41" y="346.2" width="8.41" height="8.41"/>
        <rect class="cls-2" x="282.82" y="346.2" width="8.41" height="8.41"/>
        <rect class="cls-2" x="291.24" y="346.2" width="8.41" height="8.41"/>
        <rect class="cls-2" x="299.65" y="346.2" width="8.41" height="8.41"/>
        <rect class="cls-2" x="308.06" y="346.2" width="8.41" height="8.41"/>
        <rect class="cls-2" x="316.47" y="346.2" width="8.41" height="8.41"/>
        <rect class="cls-2" x="324.88" y="346.2" width="8.41" height="8.41"/>
        <rect class="cls-2" x="333.29" y="346.2" width="8.41" height="8.41"/>
        <rect class="cls-2" x="341.7" y="346.2" width="8.41" height="8.41"/>
        <rect class="cls-2" x="350.11" y="346.2" width="8.41" height="8.41"/>
        <rect class="cls-2" x="358.52" y="346.2" width="8.41" height="8.41"/>
        <rect class="cls-2" x="366.93" y="346.2" width="8.41" height="8.41"/>
        <rect class="cls-2" x="375.34" y="346.2" width="8.41" height="8.41"/>
        <rect class="cls-2" x="383.76" y="346.2" width="8.41" height="8.41"/>
        <rect class="cls-2" x="392.17" y="346.2" width="8.41" height="8.41"/>
        <rect class="cls-2" x="400.58" y="346.2" width="8.41" height="8.41"/>
        <rect class="cls-2" x="408.99" y="346.2" width="8.41" height="8.41"/>
        <rect class="cls-2" x="417.4" y="346.2" width="8.41" height="8.41"/>
        <rect class="cls-2" x="425.81" y="346.2" width="8.41" height="8.41"/>
        <rect class="cls-1" x="434.22" y="346.2" width="8.41" height="8.41"/>
        <rect class="cls-1" x="198.71" y="354.61" width="8.41" height="8.41"/>
        <rect class="cls-1" x="207.13" y="354.61" width="8.41" height="8.41"/>
        <rect class="cls-1" x="215.54" y="354.61" width="8.41" height="8.41"/>
        <rect class="cls-1" x="223.95" y="354.61" width="8.41" height="8.41"/>
        <rect class="cls-1" x="232.36" y="354.61" width="8.41" height="8.41"/>
        <rect class="cls-1" x="240.77" y="354.61" width="8.41" height="8.41"/>
        <rect class="cls-1" x="249.18" y="354.61" width="8.41" height="8.41"/>
        <rect class="cls-1" x="257.59" y="354.61" width="8.41" height="8.41"/>
        <rect class="cls-1" x="266" y="354.61" width="8.41" height="8.41"/>
        <rect class="cls-1" x="274.41" y="354.61" width="8.41" height="8.41"/>
        <rect class="cls-1" x="282.82" y="354.61" width="8.41" height="8.41"/>
        <rect class="cls-1" x="291.24" y="354.61" width="8.41" height="8.41"/>
        <rect class="cls-1" x="299.65" y="354.61" width="8.41" height="8.41"/>
        <rect class="cls-1" x="308.06" y="354.61" width="8.41" height="8.41"/>
        <rect class="cls-1" x="316.47" y="354.61" width="8.41" height="8.41"/>
        <rect class="cls-1" x="324.88" y="354.61" width="8.41" height="8.41"/>
        <rect class="cls-1" x="333.29" y="354.61" width="8.41" height="8.41"/>
        <rect class="cls-1" x="341.7" y="354.61" width="8.41" height="8.41"/>
        <rect class="cls-1" x="350.11" y="354.61" width="8.41" height="8.41"/>
        <rect class="cls-1" x="358.52" y="354.61" width="8.41" height="8.41"/>
        <rect class="cls-1" x="366.93" y="354.61" width="8.41" height="8.41"/>
        <rect class="cls-1" x="375.34" y="354.61" width="8.41" height="8.41"/>
        <rect class="cls-1" x="383.76" y="354.61" width="8.41" height="8.41"/>
        <rect class="cls-1" x="392.17" y="354.61" width="8.41" height="8.41"/>
        <rect class="cls-1" x="400.58" y="354.61" width="8.41" height="8.41"/>
        <rect class="cls-1" x="408.99" y="354.61" width="8.41" height="8.41"/>
        <rect class="cls-1" x="417.4" y="354.61" width="8.41" height="8.41"/>
        <rect class="cls-1" x="425.81" y="354.61" width="8.41" height="8.41"/>
      </g>
    </g>
  </g>
</svg>