<?xml version="1.0" encoding="UTF-8"?>
<svg xmlns="http://www.w3.org/2000/svg" version="1.1" viewBox="0 0 595.28 841.89">
  <defs>
    <style>
      .cls-1 {
        fill: #abe1fa;
      }

      .cls-2 {
        fill: #fff;
      }

      .cls-3 {
        fill: #82abbf;
      }
    </style>
  </defs>
  <!-- Generator: Adobe Illustrator 28.7.1, SVG Export Plug-In . SVG Version: 1.2.0 Build 142)  -->
  <g>
    <g id="Layer_1">
      <g>
        <rect class="cls-1" x="205.02" y="384.1" width="8.53" height="7.3"/>
        <rect class="cls-1" x="213.55" y="384.1" width="8.53" height="7.3"/>
        <rect class="cls-1" x="222.08" y="384.1" width="8.53" height="7.3"/>
        <rect class="cls-1" x="230.6" y="384.1" width="8.53" height="7.3"/>
        <rect class="cls-1" x="239.13" y="384.1" width="8.53" height="7.3"/>
        <rect class="cls-1" x="247.66" y="384.1" width="8.53" height="7.3"/>
        <rect class="cls-1" x="256.19" y="384.1" width="8.53" height="7.3"/>
        <rect class="cls-1" x="264.71" y="384.1" width="8.53" height="7.3"/>
        <rect class="cls-1" x="273.24" y="384.1" width="8.53" height="7.3"/>
        <rect class="cls-1" x="281.77" y="384.1" width="8.53" height="7.3"/>
        <rect class="cls-1" x="290.29" y="384.1" width="8.53" height="7.3"/>
        <rect class="cls-1" x="205.02" y="391.4" width="8.53" height="7.3"/>
        <line class="cls-2" x1="247.66" y1="391.4" x2="256.19" y2="391.4"/>
        <line class="cls-2" x1="256.19" y1="391.4" x2="264.71" y2="391.4"/>
        <line class="cls-2" x1="264.71" y1="391.4" x2="273.24" y2="391.4"/>
        <line class="cls-2" x1="273.24" y1="391.4" x2="281.77" y2="391.4"/>
        <polyline class="cls-2" points="281.77 391.4 290.29 391.4 290.29 398.7"/>
        <rect class="cls-1" x="290.29" y="391.4" width="8.53" height="7.3"/>
        <rect class="cls-1" x="298.82" y="391.4" width="8.53" height="7.3"/>
        <rect class="cls-1" x="205.02" y="398.7" width="8.53" height="7.3"/>
        <line class="cls-2" x1="213.55" y1="405.99" x2="213.55" y2="398.7"/>
        <line class="cls-2" x1="290.29" y1="398.7" x2="290.29" y2="405.99"/>
        <rect class="cls-1" x="290.29" y="398.7" width="8.53" height="7.3"/>
        <rect class="cls-2" x="298.82" y="398.7" width="8.53" height="7.3"/>
        <rect class="cls-1" x="307.35" y="398.7" width="8.53" height="7.3"/>
        <rect class="cls-1" x="205.02" y="405.99" width="8.53" height="7.3"/>
        <line class="cls-2" x1="213.55" y1="413.29" x2="213.55" y2="405.99"/>
        <line class="cls-2" x1="290.29" y1="405.99" x2="290.29" y2="413.29"/>
        <rect class="cls-1" x="290.29" y="405.99" width="8.53" height="7.3"/>
        <rect class="cls-1" x="298.82" y="405.99" width="8.53" height="7.3"/>
        <rect class="cls-1" x="307.35" y="405.99" width="8.53" height="7.3"/>
        <rect class="cls-1" x="315.87" y="405.99" width="8.53" height="7.3"/>
        <rect class="cls-1" x="205.02" y="413.29" width="8.53" height="7.3"/>
        <line class="cls-2" x1="213.55" y1="420.59" x2="213.55" y2="413.29"/>
        <rect class="cls-1" x="315.87" y="413.29" width="8.53" height="7.3"/>
        <rect class="cls-1" x="205.02" y="420.59" width="8.53" height="7.3"/>
        <line class="cls-2" x1="213.55" y1="427.89" x2="213.55" y2="420.59"/>
        <rect class="cls-1" x="315.87" y="420.59" width="8.53" height="7.3"/>
        <rect class="cls-1" x="205.02" y="427.89" width="8.53" height="7.3"/>
        <line class="cls-2" x1="213.55" y1="435.19" x2="213.55" y2="427.89"/>
        <rect class="cls-1" x="315.87" y="427.89" width="8.53" height="7.3"/>
        <rect class="cls-1" x="205.02" y="435.19" width="8.53" height="7.3"/>
        <line class="cls-2" x1="213.55" y1="442.49" x2="213.55" y2="435.19"/>
        <rect class="cls-1" x="315.87" y="435.19" width="8.53" height="7.3"/>
        <rect class="cls-1" x="205.02" y="442.49" width="8.53" height="7.3"/>
        <line class="cls-2" x1="213.55" y1="449.79" x2="213.55" y2="442.49"/>
        <rect class="cls-1" x="315.87" y="442.49" width="8.53" height="7.3"/>
        <rect class="cls-1" x="205.02" y="449.79" width="8.53" height="7.3"/>
        <line class="cls-2" x1="213.55" y1="457.09" x2="213.55" y2="449.79"/>
        <rect class="cls-1" x="315.87" y="449.79" width="8.53" height="7.3"/>
        <rect class="cls-1" x="205.02" y="457.09" width="8.53" height="7.3"/>
        <line class="cls-2" x1="213.55" y1="464.39" x2="213.55" y2="457.09"/>
        <rect class="cls-1" x="315.87" y="457.09" width="8.53" height="7.3"/>
        <rect class="cls-1" x="205.02" y="464.39" width="8.53" height="7.3"/>
        <line class="cls-2" x1="213.55" y1="471.69" x2="213.55" y2="464.39"/>
        <rect class="cls-1" x="315.87" y="464.39" width="8.53" height="7.3"/>
        <rect class="cls-1" x="205.02" y="471.69" width="8.53" height="7.3"/>
        <line class="cls-2" x1="213.55" y1="478.98" x2="213.55" y2="471.69"/>
        <rect class="cls-1" x="315.87" y="471.69" width="8.53" height="7.3"/>
        <rect class="cls-1" x="205.02" y="478.98" width="8.53" height="7.3"/>
        <line class="cls-2" x1="213.55" y1="486.28" x2="213.55" y2="478.98"/>
        <rect class="cls-1" x="315.87" y="478.98" width="8.53" height="7.3"/>
        <rect class="cls-1" x="205.02" y="486.28" width="8.53" height="7.3"/>
        <rect class="cls-1" x="315.87" y="486.28" width="8.53" height="7.3"/>
        <rect class="cls-1" x="205.02" y="493.58" width="8.53" height="7.3"/>
        <rect class="cls-1" x="315.87" y="493.58" width="8.53" height="7.3"/>
        <rect class="cls-1" x="205.02" y="500.88" width="8.53" height="7.3"/>
        <rect class="cls-1" x="315.87" y="500.88" width="8.53" height="7.3"/>
        <rect class="cls-1" x="205.02" y="508.18" width="8.53" height="7.3"/>
        <rect class="cls-3" x="213.55" y="508.18" width="8.53" height="7.3"/>
        <rect class="cls-3" x="222.08" y="508.18" width="8.53" height="7.3"/>
        <rect class="cls-3" x="230.6" y="508.18" width="8.53" height="7.3"/>
        <rect class="cls-3" x="239.13" y="508.18" width="8.53" height="7.3"/>
        <rect class="cls-3" x="247.66" y="508.18" width="8.53" height="7.3"/>
        <rect class="cls-3" x="256.19" y="508.18" width="8.53" height="7.3"/>
        <rect class="cls-3" x="264.71" y="508.18" width="8.53" height="7.3"/>
        <rect class="cls-3" x="273.24" y="508.18" width="8.53" height="7.3"/>
        <rect class="cls-3" x="281.77" y="508.18" width="8.53" height="7.3"/>
        <rect class="cls-3" x="290.29" y="508.18" width="8.53" height="7.3"/>
        <rect class="cls-3" x="298.82" y="508.18" width="8.53" height="7.3"/>
        <rect class="cls-3" x="307.35" y="508.18" width="8.53" height="7.3"/>
        <rect class="cls-1" x="315.87" y="508.18" width="8.53" height="7.3"/>
        <rect class="cls-1" x="205.02" y="515.48" width="8.53" height="7.3"/>
        <rect class="cls-1" x="213.55" y="515.48" width="8.53" height="7.3"/>
        <rect class="cls-1" x="222.08" y="515.48" width="8.53" height="7.3"/>
        <rect class="cls-1" x="230.6" y="515.48" width="8.53" height="7.3"/>
        <rect class="cls-1" x="239.13" y="515.48" width="8.53" height="7.3"/>
        <rect class="cls-1" x="247.66" y="515.48" width="8.53" height="7.3"/>
        <rect class="cls-1" x="256.19" y="515.48" width="8.53" height="7.3"/>
        <rect class="cls-1" x="264.71" y="515.48" width="8.53" height="7.3"/>
        <rect class="cls-1" x="273.24" y="515.48" width="8.53" height="7.3"/>
        <rect class="cls-1" x="281.77" y="515.48" width="8.53" height="7.3"/>
        <rect class="cls-1" x="290.29" y="515.48" width="8.53" height="7.3"/>
        <rect class="cls-1" x="298.82" y="515.48" width="8.53" height="7.3"/>
        <rect class="cls-1" x="307.35" y="515.48" width="8.53" height="7.3"/>
        <rect class="cls-1" x="315.87" y="515.48" width="8.53" height="7.3"/>
      </g>
    </g>
  </g>
</svg>