<svg width="509" height="90" viewBox="0 0 509 90" fill="none" xmlns="http://www.w3.org/2000/svg">
<g id="Text-Bubble">
<g id="Group">
<path id="Vector" d="M494.405 0H498.052V3.88998H494.405V0Z" fill="#4B9AD4"/>
<path id="Vector_2" d="M490.759 0H494.405V3.88998H490.759V0Z" fill="#4B9AD4"/>
<path id="Vector_3" d="M487.103 0H490.75V3.88998H487.103V0Z" fill="#4B9AD4"/>
<path id="Vector_4" d="M483.457 0H487.103V3.88998H483.457V0Z" fill="#4B9AD4"/>
<path id="Vector_5" d="M479.81 0H483.457V3.88998H479.81V0Z" fill="#4B9AD4"/>
<path id="Vector_6" d="M476.164 0H479.811V3.88998H476.164V0Z" fill="#4B9AD4"/>
<path id="Vector_7" d="M472.508 0H476.155V3.88998H472.508V0Z" fill="#4B9AD4"/>
<path id="Vector_8" d="M468.862 0H472.508V3.88998H468.862V0Z" fill="#4B9AD4"/>
<path id="Vector_9" d="M465.215 0H468.862V3.88998H465.215V0Z" fill="#4B9AD4"/>
<path id="Vector_10" d="M461.569 0H465.216V3.88998H461.569V0Z" fill="#4B9AD4"/>
<path id="Vector_11" d="M457.913 0H461.56V3.88998H457.913V0Z" fill="#4B9AD4"/>
<path id="Vector_12" d="M454.267 0H457.914V3.88998H454.267V0Z" fill="#4B9AD4"/>
<path id="Vector_13" d="M450.621 0H454.267V3.88998H450.621V0Z" fill="#4B9AD4"/>
<path id="Vector_14" d="M446.974 0H450.621V3.88998H446.974V0Z" fill="#4B9AD4"/>
<path id="Vector_15" d="M443.319 0H446.965V3.88998H443.319V0Z" fill="#4B9AD4"/>
<path id="Vector_16" d="M439.672 0H443.319V3.88998H439.672V0Z" fill="#4B9AD4"/>
<path id="Vector_17" d="M436.026 0H439.672V3.88998H436.026V0Z" fill="#4B9AD4"/>
<path id="Vector_18" d="M432.38 0H436.026V3.88998H432.38V0Z" fill="#4B9AD4"/>
<path id="Vector_19" d="M428.724 0H432.37V3.88998H428.724V0Z" fill="#4B9AD4"/>
<path id="Vector_20" d="M425.078 0H428.724V3.88998H425.078V0Z" fill="#4B9AD4"/>
<path id="Vector_21" d="M421.431 0H425.077V3.88998H421.431V0Z" fill="#4B9AD4"/>
<path id="Vector_22" d="M417.785 0H421.431V3.88998H417.785V0Z" fill="#4B9AD4"/>
<path id="Vector_23" d="M414.129 0H417.775V3.88998H414.129V0Z" fill="#4B9AD4"/>
<path id="Vector_24" d="M410.483 0H414.129V3.88998H410.483V0Z" fill="#4B9AD4"/>
<path id="Vector_25" d="M406.836 0H410.483V3.88998H406.836V0Z" fill="#4B9AD4"/>
<path id="Vector_26" d="M403.19 0H406.836V3.88998H403.19V0Z" fill="#4B9AD4"/>
<path id="Vector_27" d="M399.534 0H403.181V3.88998H399.534V0Z" fill="#4B9AD4"/>
<path id="Vector_28" d="M395.888 0H399.534V3.88998H395.888V0Z" fill="#4B9AD4"/>
<path id="Vector_29" d="M392.242 0H395.888V3.88998H392.242V0Z" fill="#4B9AD4"/>
<path id="Vector_30" d="M388.595 0H392.241V3.88998H388.595V0Z" fill="#4B9AD4"/>
<path id="Vector_31" d="M412.31 0H415.957V3.88998H412.31V0Z" fill="#4B9AD4"/>
<path id="Vector_32" d="M384.939 0H388.586V3.88998H384.939V0Z" fill="#4B9AD4"/>
<path id="Vector_33" d="M381.293 0H384.939V3.88998H381.293V0Z" fill="#4B9AD4"/>
<path id="Vector_34" d="M377.647 0H381.293V3.88998H377.647V0Z" fill="#4B9AD4"/>
<path id="Vector_35" d="M374 0H377.646V3.88998H374V0Z" fill="#4B9AD4"/>
<path id="Vector_36" d="M370.345 0H373.991V3.88998H370.345V0Z" fill="#4B9AD4"/>
<path id="Vector_37" d="M366.698 0H370.345V3.88998H366.698V0Z" fill="#4B9AD4"/>
<path id="Vector_38" d="M363.052 0H366.698V3.88998H363.052V0Z" fill="#4B9AD4"/>
<path id="Vector_39" d="M359.406 0H363.052V3.88998H359.406V0Z" fill="#4B9AD4"/>
<path id="Vector_40" d="M355.75 0H359.396V3.88998H355.75V0Z" fill="#4B9AD4"/>
<path id="Vector_41" d="M352.103 0H355.75V3.88998H352.103V0Z" fill="#4B9AD4"/>
<path id="Vector_42" d="M348.457 0H352.103V3.88998H348.457V0Z" fill="#4B9AD4"/>
<path id="Vector_43" d="M344.811 0H348.457V3.88998H344.811V0Z" fill="#4B9AD4"/>
<path id="Vector_44" d="M140.483 0H144.13V3.88998H140.483V0Z" fill="#4B9AD4"/>
<path id="Vector_45" d="M372.172 0H375.819V3.88998H372.172V0Z" fill="#4B9AD4"/>
<path id="Vector_46" d="M341.155 0H344.801V3.88998H341.155V0Z" fill="#4B9AD4"/>
<path id="Vector_47" d="M337.508 0H341.155V3.88998H337.508V0Z" fill="#4B9AD4"/>
<path id="Vector_48" d="M333.862 0H337.509V3.88998H333.862V0Z" fill="#4B9AD4"/>
<path id="Vector_49" d="M330.216 0H333.862V3.88998H330.216V0Z" fill="#4B9AD4"/>
<path id="Vector_50" d="M326.56 0H330.207V3.88998H326.56V0Z" fill="#4B9AD4"/>
<path id="Vector_51" d="M322.914 0H326.56V3.88998H322.914V0Z" fill="#4B9AD4"/>
<path id="Vector_52" d="M319.267 0H322.914V3.88998H319.267V0Z" fill="#4B9AD4"/>
<path id="Vector_53" d="M315.621 0H319.268V3.88998H315.621V0Z" fill="#4B9AD4"/>
<path id="Vector_54" d="M311.965 0H315.612V3.88998H311.965V0Z" fill="#4B9AD4"/>
<path id="Vector_55" d="M308.319 0H311.965V3.88998H308.319V0Z" fill="#4B9AD4"/>
<path id="Vector_56" d="M304.672 0H308.319V3.88998H304.672V0Z" fill="#4B9AD4"/>
<path id="Vector_57" d="M301.026 0H304.673V3.88998H301.026V0Z" fill="#4B9AD4"/>
<path id="Vector_58" d="M297.37 0H301.017V3.88998H297.37V0Z" fill="#4B9AD4"/>
<path id="Vector_59" d="M293.724 0H297.371V3.88998H293.724V0Z" fill="#4B9AD4"/>
<path id="Vector_60" d="M290.078 0H293.724V3.88998H290.078V0Z" fill="#4B9AD4"/>
<path id="Vector_61" d="M286.431 0H290.078V3.88998H286.431V0Z" fill="#4B9AD4"/>
<path id="Vector_62" d="M282.776 0H286.422V3.88998H282.776V0Z" fill="#4B9AD4"/>
<path id="Vector_63" d="M279.129 0H282.776V3.88998H279.129V0Z" fill="#4B9AD4"/>
<path id="Vector_64" d="M275.483 0H279.129V3.88998H275.483V0Z" fill="#4B9AD4"/>
<path id="Vector_65" d="M271.837 0H275.483V3.88998H271.837V0Z" fill="#4B9AD4"/>
<path id="Vector_66" d="M268.181 0H271.827V3.88998H268.181V0Z" fill="#4B9AD4"/>
<path id="Vector_67" d="M264.535 0H268.181V3.88998H264.535V0Z" fill="#4B9AD4"/>
<path id="Vector_68" d="M260.888 0H264.534V3.88998H260.888V0Z" fill="#4B9AD4"/>
<path id="Vector_69" d="M257.242 0H260.888V3.88998H257.242V0Z" fill="#4B9AD4"/>
<path id="Vector_70" d="M253.586 0H257.232V3.88998H253.586V0Z" fill="#4B9AD4"/>
<path id="Vector_71" d="M249.94 0H253.586V3.88998H249.94V0Z" fill="#4B9AD4"/>
<path id="Vector_72" d="M246.294 0H249.94V3.88998H246.294V0Z" fill="#4B9AD4"/>
<path id="Vector_73" d="M270.009 0H273.655V3.88998H270.009V0Z" fill="#4B9AD4"/>
<path id="Vector_74" d="M242.647 0H246.293V3.88998H242.647V0Z" fill="#4B9AD4"/>
<path id="Vector_75" d="M238.991 0H242.638V3.88998H238.991V0Z" fill="#4B9AD4"/>
<path id="Vector_76" d="M235.345 0H238.991V3.88998H235.345V0Z" fill="#4B9AD4"/>
<path id="Vector_77" d="M231.699 0H235.345V3.88998H231.699V0Z" fill="#4B9AD4"/>
<path id="Vector_78" d="M228.052 0H231.698V3.88998H228.052V0Z" fill="#4B9AD4"/>
<path id="Vector_79" d="M224.396 0H228.043V3.88998H224.396V0Z" fill="#4B9AD4"/>
<path id="Vector_80" d="M220.75 0H224.396V3.88998H220.75V0Z" fill="#4B9AD4"/>
<path id="Vector_81" d="M217.104 0H220.75V3.88998H217.104V0Z" fill="#4B9AD4"/>
<path id="Vector_82" d="M213.457 0H217.104V3.88998H213.457V0Z" fill="#4B9AD4"/>
<path id="Vector_83" d="M209.802 0H213.448V3.88998H209.802V0Z" fill="#4B9AD4"/>
<path id="Vector_84" d="M206.155 0H209.802V3.88998H206.155V0Z" fill="#4B9AD4"/>
<path id="Vector_85" d="M202.509 0H206.155V3.88998H202.509V0Z" fill="#4B9AD4"/>
<path id="Vector_86" d="M229.871 0H233.517V3.88998H229.871V0Z" fill="#4B9AD4"/>
<path id="Vector_87" d="M198.863 0H202.509V3.88998H198.863V0Z" fill="#4B9AD4"/>
<path id="Vector_88" d="M195.207 0H198.853V3.88998H195.207V0Z" fill="#4B9AD4"/>
<path id="Vector_89" d="M191.56 0H195.207V3.88998H191.56V0Z" fill="#4B9AD4"/>
<path id="Vector_90" d="M187.914 0H191.561V3.88998H187.914V0Z" fill="#4B9AD4"/>
<path id="Vector_91" d="M184.268 0H187.914V3.88998H184.268V0Z" fill="#4B9AD4"/>
<path id="Vector_92" d="M180.612 0H184.258V3.88998H180.612V0Z" fill="#4B9AD4"/>
<path id="Vector_93" d="M176.965 0H180.612V3.88998H176.965V0Z" fill="#4B9AD4"/>
<path id="Vector_94" d="M173.319 0H176.966V3.88998H173.319V0Z" fill="#4B9AD4"/>
<path id="Vector_95" d="M169.673 0H173.319V3.88998H169.673V0Z" fill="#4B9AD4"/>
<path id="Vector_96" d="M166.017 0H169.664V3.88998H166.017V0Z" fill="#4B9AD4"/>
<path id="Vector_97" d="M162.371 0H166.017V3.88998H162.371V0Z" fill="#4B9AD4"/>
<path id="Vector_98" d="M158.724 0H162.371V3.88998H158.724V0Z" fill="#4B9AD4"/>
<path id="Vector_99" d="M155.078 0H158.725V3.88998H155.078V0Z" fill="#4B9AD4"/>
<path id="Vector_100" d="M151.422 0H155.069V3.88998H151.422V0Z" fill="#4B9AD4"/>
<path id="Vector_101" d="M147.776 0H151.422V3.88998H147.776V0Z" fill="#4B9AD4"/>
<path id="Vector_102" d="M144.13 0H147.776V3.88998H144.13V0Z" fill="#4B9AD4"/>
<path id="Vector_103" d="M171.492 0H175.138V3.88998H171.492V0Z" fill="#4B9AD4"/>
<path id="Vector_104" d="M52.9144 0H56.5608V3.88998H52.9144V0Z" fill="#4B9AD4"/>
<path id="Vector_105" d="M136.828 0H140.474V3.88998H136.828V0Z" fill="#4B9AD4"/>
<path id="Vector_106" d="M133.181 0H136.828V3.88998H133.181V0Z" fill="#4B9AD4"/>
<path id="Vector_107" d="M129.535 0H133.181V3.88998H129.535V0Z" fill="#4B9AD4"/>
<path id="Vector_108" d="M125.888 0H129.535V3.88998H125.888V0Z" fill="#4B9AD4"/>
<path id="Vector_109" d="M122.233 0H125.879V3.88998H122.233V0Z" fill="#4B9AD4"/>
<path id="Vector_110" d="M118.586 0H122.233V3.88998H118.586V0Z" fill="#4B9AD4"/>
<path id="Vector_111" d="M114.94 0H118.586V3.88998H114.94V0Z" fill="#4B9AD4"/>
<path id="Vector_112" d="M111.294 0H114.94V3.88998H111.294V0Z" fill="#4B9AD4"/>
<path id="Vector_113" d="M107.638 0H111.284V3.88998H107.638V0Z" fill="#4B9AD4"/>
<path id="Vector_114" d="M103.992 0H107.638V3.88998H103.992V0Z" fill="#4B9AD4"/>
<path id="Vector_115" d="M100.345 0H103.991V3.88998H100.345V0Z" fill="#4B9AD4"/>
<path id="Vector_116" d="M96.6989 0H100.345V3.88998H96.6989V0Z" fill="#4B9AD4"/>
<path id="Vector_117" d="M93.0431 0H96.6895V3.88998H93.0431V0Z" fill="#4B9AD4"/>
<path id="Vector_118" d="M89.3969 0H93.0432V3.88998H89.3969V0Z" fill="#4B9AD4"/>
<path id="Vector_119" d="M85.7506 0H89.397V3.88998H85.7506V0Z" fill="#4B9AD4"/>
<path id="Vector_120" d="M82.1041 0H85.7505V3.88998H82.1041V0Z" fill="#4B9AD4"/>
<path id="Vector_121" d="M78.4484 0H82.0947V3.88998H78.4484V0Z" fill="#4B9AD4"/>
<path id="Vector_122" d="M74.8019 0H78.4482V3.88998H74.8019V0Z" fill="#4B9AD4"/>
<path id="Vector_123" d="M71.1557 0H74.802V3.88998H71.1557V0Z" fill="#4B9AD4"/>
<path id="Vector_124" d="M67.5094 0H71.1558V3.88998H67.5094V0Z" fill="#4B9AD4"/>
<path id="Vector_125" d="M63.8534 0H67.4998V3.88998H63.8534V0Z" fill="#4B9AD4"/>
<path id="Vector_126" d="M60.2071 0H63.8535V3.88998H60.2071V0Z" fill="#4B9AD4"/>
<path id="Vector_127" d="M56.5607 0H60.207V3.88998H56.5607V0Z" fill="#4B9AD4"/>
<path id="Vector_128" d="M83.9225 0H87.5688V3.88998H83.9225V0Z" fill="#4B9AD4"/>
<path id="Vector_129" d="M12.7762 0H16.4226V3.88998H12.7762V0Z" fill="#4B9AD4"/>
<path id="Vector_130" d="M10.9486 0H14.595V3.88998H10.9486V0Z" fill="#4B9AD4"/>
<path id="Vector_131" d="M49.2587 0H52.905V3.88998H49.2587V0Z" fill="#4B9AD4"/>
<path id="Vector_132" d="M45.6124 0H49.2588V3.88998H45.6124V0Z" fill="#4B9AD4"/>
<path id="Vector_133" d="M41.966 0H45.6123V3.88998H41.966V0Z" fill="#4B9AD4"/>
<path id="Vector_134" d="M38.3197 0H41.9661V3.88998H38.3197V0Z" fill="#4B9AD4"/>
<path id="Vector_135" d="M34.6639 0H38.3103V3.88998H34.6639V0Z" fill="#4B9AD4"/>
<path id="Vector_136" d="M31.0174 0H34.6638V3.88998H31.0174V0Z" fill="#4B9AD4"/>
<path id="Vector_137" d="M27.3713 0H31.0176V3.88998H27.3713V0Z" fill="#4B9AD4"/>
<path id="Vector_138" d="M23.7247 0H27.3711V3.88998H23.7247V0Z" fill="#4B9AD4"/>
<path id="Vector_139" d="M20.069 0H23.7153V3.88998H20.069V0Z" fill="#4B9AD4"/>
<path id="Vector_140" d="M16.4225 0H20.0688V3.88998H16.4225V0Z" fill="#4B9AD4"/>
<path id="Vector_141" d="M43.7845 0H47.4309V3.88998H43.7845V0Z" fill="#4B9AD4"/>
<path id="Vector_142" d="M498.051 3.88998H501.698V7.78H498.051V3.88998Z" fill="#4B9AD4"/>
<path id="Vector_143" d="M7.30211 3.89999H10.9485V7.78998H7.30211V3.89999Z" fill="#4B9AD4"/>
<path id="Vector_144" d="M501.698 7.78998H505.344V11.68H501.698V7.78998Z" fill="#4B9AD4"/>
<path id="Vector_145" d="M3.65587 7.78998H7.30225V11.68H3.65587V7.78998Z" fill="#4B9AD4"/>
<path id="Vector_146" d="M505.354 11.68H509V15.57H505.354V11.68Z" fill="#4B9AD4"/>
<path id="Vector_147" d="M0.000110626 11.68H3.64648V15.57H0.000110626V11.68Z" fill="#4B9AD4"/>
<path id="Vector_148" d="M505.354 15.57H509V19.46H505.354V15.57Z" fill="#4B9AD4"/>
<path id="Vector_149" d="M0.000110626 15.57H3.64648V19.46H0.000110626V15.57Z" fill="#4B9AD4"/>
<path id="Vector_150" d="M505.354 19.46H509V23.35H505.354V19.46Z" fill="#4B9AD4"/>
<path id="Vector_151" d="M0.000110626 19.47H3.64648V23.36H0.000110626V19.47Z" fill="#4B9AD4"/>
<path id="Vector_152" d="M505.354 23.36H509V27.25H505.354V23.36Z" fill="#4B9AD4"/>
<path id="Vector_153" d="M0.000110626 23.36H3.64648V27.25H0.000110626V23.36Z" fill="#4B9AD4"/>
<path id="Vector_154" d="M505.354 27.25H509V31.14H505.354V27.25Z" fill="#4B9AD4"/>
<path id="Vector_155" d="M0.000110626 27.25H3.64648V31.14H0.000110626V27.25Z" fill="#4B9AD4"/>
<path id="Vector_156" d="M505.354 31.14H509V35.03H505.354V31.14Z" fill="#4B9AD4"/>
<path id="Vector_157" d="M0.000110626 31.14H3.64648V35.03H0.000110626V31.14Z" fill="#4B9AD4"/>
<path id="Vector_158" d="M505.354 35.03H509V38.92H505.354V35.03Z" fill="#4B9AD4"/>
<path id="Vector_159" d="M0.000110626 35.04H3.64648V38.93H0.000110626V35.04Z" fill="#4B9AD4"/>
<path id="Vector_160" d="M505.354 38.93H509V42.82H505.354V38.93Z" fill="#4B9AD4"/>
<path id="Vector_161" d="M0.000110626 38.93H3.64648V42.82H0.000110626V38.93Z" fill="#4B9AD4"/>
<path id="Vector_162" d="M505.354 42.82H509V46.71H505.354V42.82Z" fill="#4B9AD4"/>
<path id="Vector_163" d="M0.000110626 42.82H3.64648V46.71H0.000110626V42.82Z" fill="#4B9AD4"/>
<path id="Vector_164" d="M505.354 46.71H509V50.6H505.354V46.71Z" fill="#4B9AD4"/>
<path id="Vector_165" d="M0.000110626 46.71H3.64648V50.6H0.000110626V46.71Z" fill="#4B9AD4"/>
<path id="Vector_166" d="M505.354 50.6H509V54.49H505.354V50.6Z" fill="#4B9AD4"/>
<path id="Vector_167" d="M0.000110626 50.61H3.64648V54.5H0.000110626V50.61Z" fill="#4B9AD4"/>
<path id="Vector_168" d="M505.354 54.5H509V58.39H505.354V54.5Z" fill="#4B9AD4"/>
<path id="Vector_169" d="M0.000110626 54.5H3.64648V58.39H0.000110626V54.5Z" fill="#4B9AD4"/>
<path id="Vector_170" d="M505.354 58.39H509V62.28H505.354V58.39Z" fill="#4B9AD4"/>
<path id="Vector_171" d="M501.698 58.39H505.344V62.28H501.698V58.39Z" fill="#ABD6F3"/>
<path id="Vector_172" d="M3.65587 58.39H7.30225V62.28H3.65587V58.39Z" fill="#ABD6F3"/>
<path id="Vector_173" d="M0.000110626 58.39H3.64648V62.28H0.000110626V58.39Z" fill="#4B9AD4"/>
<path id="Vector_174" d="M501.698 62.28H505.344V66.17H501.698V62.28Z" fill="#4B9AD4"/>
<path id="Vector_175" d="M498.051 62.28H501.698V66.17H498.051V62.28Z" fill="#ABD6F3"/>
<path id="Vector_176" d="M7.30211 62.28H10.9485V66.17H7.30211V62.28Z" fill="#ABD6F3"/>
<path id="Vector_177" d="M3.65587 62.28H7.30225V66.17H3.65587V62.28Z" fill="#4B9AD4"/>
<path id="Vector_178" d="M498.051 66.17H501.698V70.06H498.051V66.17Z" fill="#4B9AD4"/>
<path id="Vector_179" d="M494.405 66.17H498.052V70.06H494.405V66.17Z" fill="#ABD6F3"/>
<path id="Vector_180" d="M490.759 66.17H494.405V70.06H490.759V66.17Z" fill="#ABD6F3"/>
<path id="Vector_181" d="M487.103 66.17H490.75V70.06H487.103V66.17Z" fill="#ABD6F3"/>
<path id="Vector_182" d="M468.862 66.17H472.508V70.06H468.862V66.17Z" fill="#ABD6F3"/>
<path id="Vector_183" d="M465.215 66.17H468.862V70.06H465.215V66.17Z" fill="#ABD6F3"/>
<path id="Vector_184" d="M461.569 66.17H465.216V70.06H461.569V66.17Z" fill="#ABD6F3"/>
<path id="Vector_185" d="M457.913 66.17H461.56V70.06H457.913V66.17Z" fill="#ABD6F3"/>
<path id="Vector_186" d="M454.267 66.17H457.914V70.06H454.267V66.17Z" fill="#ABD6F3"/>
<path id="Vector_187" d="M450.621 66.17H454.267V70.06H450.621V66.17Z" fill="#ABD6F3"/>
<path id="Vector_188" d="M446.974 66.17H450.621V70.06H446.974V66.17Z" fill="#ABD6F3"/>
<path id="Vector_189" d="M443.319 66.17H446.965V70.06H443.319V66.17Z" fill="#ABD6F3"/>
<path id="Vector_190" d="M439.672 66.17H443.319V70.06H439.672V66.17Z" fill="#ABD6F3"/>
<path id="Vector_191" d="M436.026 66.17H439.672V70.06H436.026V66.17Z" fill="#ABD6F3"/>
<path id="Vector_192" d="M432.38 66.17H436.026V70.06H432.38V66.17Z" fill="#ABD6F3"/>
<path id="Vector_193" d="M428.724 66.17H432.37V70.06H428.724V66.17Z" fill="#ABD6F3"/>
<path id="Vector_194" d="M425.078 66.17H428.724V70.06H425.078V66.17Z" fill="#ABD6F3"/>
<path id="Vector_195" d="M421.431 66.17H425.077V70.06H421.431V66.17Z" fill="#ABD6F3"/>
<path id="Vector_196" d="M417.785 66.17H421.431V70.06H417.785V66.17Z" fill="#ABD6F3"/>
<path id="Vector_197" d="M414.129 66.17H417.775V70.06H414.129V66.17Z" fill="#ABD6F3"/>
<path id="Vector_198" d="M410.483 66.17H414.129V70.06H410.483V66.17Z" fill="#ABD6F3"/>
<path id="Vector_199" d="M406.836 66.17H410.483V70.06H406.836V66.17Z" fill="#ABD6F3"/>
<path id="Vector_200" d="M403.19 66.17H406.836V70.06H403.19V66.17Z" fill="#ABD6F3"/>
<path id="Vector_201" d="M399.534 66.17H403.181V70.06H399.534V66.17Z" fill="#ABD6F3"/>
<path id="Vector_202" d="M395.888 66.17H399.534V70.06H395.888V66.17Z" fill="#ABD6F3"/>
<path id="Vector_203" d="M392.242 66.17H395.888V70.06H392.242V66.17Z" fill="#ABD6F3"/>
<path id="Vector_204" d="M388.595 66.17H392.241V70.06H388.595V66.17Z" fill="#ABD6F3"/>
<path id="Vector_205" d="M384.939 66.17H388.586V70.06H384.939V66.17Z" fill="#ABD6F3"/>
<path id="Vector_206" d="M7.30211 66.18H10.9485V70.07H7.30211V66.18Z" fill="#4B9AD4"/>
<path id="Vector_207" d="M494.405 70.07H498.052V73.96H494.405V70.07Z" fill="#4B9AD4"/>
<path id="Vector_208" d="M490.759 70.07H494.405V73.96H490.759V70.07Z" fill="#4B9AD4"/>
<path id="Vector_209" d="M487.103 70.07H490.75V73.96H487.103V70.07Z" fill="#4B9AD4"/>
<path id="Vector_210" d="M472.508 70.07H476.155V73.96H472.508V70.07Z" fill="#ABD6F3"/>
<path id="Vector_211" d="M468.862 70.07H472.508V73.96H468.862V70.07Z" fill="#4B9AD4"/>
<path id="Vector_212" d="M465.215 70.07H468.862V73.96H465.215V70.07Z" fill="#4B9AD4"/>
<path id="Vector_213" d="M461.569 70.07H465.216V73.96H461.569V70.07Z" fill="#4B9AD4"/>
<path id="Vector_214" d="M457.913 70.07H461.56V73.96H457.913V70.07Z" fill="#4B9AD4"/>
<path id="Vector_215" d="M454.267 70.07H457.914V73.96H454.267V70.07Z" fill="#4B9AD4"/>
<path id="Vector_216" d="M450.621 70.07H454.267V73.96H450.621V70.07Z" fill="#4B9AD4"/>
<path id="Vector_217" d="M446.974 70.07H450.621V73.96H446.974V70.07Z" fill="#4B9AD4"/>
<path id="Vector_218" d="M443.319 70.07H446.965V73.96H443.319V70.07Z" fill="#4B9AD4"/>
<path id="Vector_219" d="M439.672 70.07H443.319V73.96H439.672V70.07Z" fill="#4B9AD4"/>
<path id="Vector_220" d="M436.026 70.07H439.672V73.96H436.026V70.07Z" fill="#4B9AD4"/>
<path id="Vector_221" d="M432.38 70.07H436.026V73.96H432.38V70.07Z" fill="#4B9AD4"/>
<path id="Vector_222" d="M428.724 70.07H432.37V73.96H428.724V70.07Z" fill="#4B9AD4"/>
<path id="Vector_223" d="M425.078 70.07H428.724V73.96H425.078V70.07Z" fill="#4B9AD4"/>
<path id="Vector_224" d="M421.431 70.07H425.077V73.96H421.431V70.07Z" fill="#4B9AD4"/>
<path id="Vector_225" d="M417.785 70.07H421.431V73.96H417.785V70.07Z" fill="#4B9AD4"/>
<path id="Vector_226" d="M414.129 70.07H417.775V73.96H414.129V70.07Z" fill="#4B9AD4"/>
<path id="Vector_227" d="M410.483 70.07H414.129V73.96H410.483V70.07Z" fill="#4B9AD4"/>
<path id="Vector_228" d="M406.836 70.07H410.483V73.96H406.836V70.07Z" fill="#4B9AD4"/>
<path id="Vector_229" d="M403.19 70.07H406.836V73.96H403.19V70.07Z" fill="#4B9AD4"/>
<path id="Vector_230" d="M399.534 70.07H403.181V73.96H399.534V70.07Z" fill="#4B9AD4"/>
<path id="Vector_231" d="M395.888 70.07H399.534V73.96H395.888V70.07Z" fill="#4B9AD4"/>
<path id="Vector_232" d="M392.242 70.07H395.888V73.96H392.242V70.07Z" fill="#4B9AD4"/>
<path id="Vector_233" d="M388.595 70.07H392.241V73.96H388.595V70.07Z" fill="#4B9AD4"/>
<path id="Vector_234" d="M384.939 70.07H388.586V73.96H384.939V70.07Z" fill="#4B9AD4"/>
<path id="Vector_235" d="M381.293 66.17H384.939V70.06H381.293V66.17Z" fill="#ABD6F3"/>
<path id="Vector_236" d="M377.647 66.17H381.293V70.06H377.647V66.17Z" fill="#ABD6F3"/>
<path id="Vector_237" d="M374 66.17H377.646V70.06H374V66.17Z" fill="#ABD6F3"/>
<path id="Vector_238" d="M370.345 66.17H373.991V70.06H370.345V66.17Z" fill="#ABD6F3"/>
<path id="Vector_239" d="M366.698 66.17H370.345V70.06H366.698V66.17Z" fill="#ABD6F3"/>
<path id="Vector_240" d="M363.052 66.17H366.698V70.06H363.052V66.17Z" fill="#ABD6F3"/>
<path id="Vector_241" d="M359.406 66.17H363.052V70.06H359.406V66.17Z" fill="#ABD6F3"/>
<path id="Vector_242" d="M355.759 66.17H359.406V70.06H355.759V66.17Z" fill="#ABD6F3"/>
<path id="Vector_243" d="M352.103 66.17H355.75V70.06H352.103V66.17Z" fill="#ABD6F3"/>
<path id="Vector_244" d="M348.457 66.17H352.103V70.06H348.457V66.17Z" fill="#ABD6F3"/>
<path id="Vector_245" d="M344.811 66.17H348.457V70.06H344.811V66.17Z" fill="#ABD6F3"/>
<path id="Vector_246" d="M341.155 66.17H344.801V70.06H341.155V66.17Z" fill="#ABD6F3"/>
<path id="Vector_247" d="M381.293 70.07H384.939V73.96H381.293V70.07Z" fill="#4B9AD4"/>
<path id="Vector_248" d="M377.647 70.07H381.293V73.96H377.647V70.07Z" fill="#4B9AD4"/>
<path id="Vector_249" d="M374 70.07H377.646V73.96H374V70.07Z" fill="#4B9AD4"/>
<path id="Vector_250" d="M370.345 70.07H373.991V73.96H370.345V70.07Z" fill="#4B9AD4"/>
<path id="Vector_251" d="M366.698 70.07H370.345V73.96H366.698V70.07Z" fill="#4B9AD4"/>
<path id="Vector_252" d="M363.052 70.07H366.698V73.96H363.052V70.07Z" fill="#4B9AD4"/>
<path id="Vector_253" d="M359.406 70.07H363.052V73.96H359.406V70.07Z" fill="#4B9AD4"/>
<path id="Vector_254" d="M355.759 70.07H359.406V73.96H355.759V70.07Z" fill="#4B9AD4"/>
<path id="Vector_255" d="M352.103 70.07H355.75V73.96H352.103V70.07Z" fill="#4B9AD4"/>
<path id="Vector_256" d="M348.457 70.07H352.103V73.96H348.457V70.07Z" fill="#4B9AD4"/>
<path id="Vector_257" d="M344.811 70.07H348.457V73.96H344.811V70.07Z" fill="#4B9AD4"/>
<path id="Vector_258" d="M341.155 70.07H344.801V73.96H341.155V70.07Z" fill="#4B9AD4"/>
<path id="Vector_259" d="M339.336 66.18H342.983V70.07H339.336V66.18Z" fill="#ABD6F3"/>
<path id="Vector_260" d="M335.69 66.18H339.336V70.07H335.69V66.18Z" fill="#ABD6F3"/>
<path id="Vector_261" d="M332.035 66.18H335.681V70.07H332.035V66.18Z" fill="#ABD6F3"/>
<path id="Vector_262" d="M328.388 66.18H332.034V70.07H328.388V66.18Z" fill="#ABD6F3"/>
<path id="Vector_263" d="M324.742 66.18H328.388V70.07H324.742V66.18Z" fill="#ABD6F3"/>
<path id="Vector_264" d="M321.095 66.18H324.742V70.07H321.095V66.18Z" fill="#ABD6F3"/>
<path id="Vector_265" d="M317.44 66.18H321.086V70.07H317.44V66.18Z" fill="#ABD6F3"/>
<path id="Vector_266" d="M313.793 66.18H317.439V70.07H313.793V66.18Z" fill="#ABD6F3"/>
<path id="Vector_267" d="M310.147 66.18H313.793V70.07H310.147V66.18Z" fill="#ABD6F3"/>
<path id="Vector_268" d="M306.501 66.18H310.147V70.07H306.501V66.18Z" fill="#ABD6F3"/>
<path id="Vector_269" d="M302.845 66.18H306.491V70.07H302.845V66.18Z" fill="#ABD6F3"/>
<path id="Vector_270" d="M299.198 66.18H302.845V70.07H299.198V66.18Z" fill="#ABD6F3"/>
<path id="Vector_271" d="M295.552 66.18H299.198V70.07H295.552V66.18Z" fill="#ABD6F3"/>
<path id="Vector_272" d="M291.906 66.18H295.552V70.07H291.906V66.18Z" fill="#ABD6F3"/>
<path id="Vector_273" d="M288.25 66.18H291.896V70.07H288.25V66.18Z" fill="#ABD6F3"/>
<path id="Vector_274" d="M284.604 66.18H288.25V70.07H284.604V66.18Z" fill="#ABD6F3"/>
<path id="Vector_275" d="M280.957 66.18H284.604V70.07H280.957V66.18Z" fill="#ABD6F3"/>
<path id="Vector_276" d="M277.311 66.18H280.957V70.07H277.311V66.18Z" fill="#ABD6F3"/>
<path id="Vector_277" d="M273.655 66.18H277.302V70.07H273.655V66.18Z" fill="#ABD6F3"/>
<path id="Vector_278" d="M270.009 66.18H273.655V70.07H270.009V66.18Z" fill="#ABD6F3"/>
<path id="Vector_279" d="M266.362 66.18H270.009V70.07H266.362V66.18Z" fill="#ABD6F3"/>
<path id="Vector_280" d="M262.716 66.18H266.363V70.07H262.716V66.18Z" fill="#ABD6F3"/>
<path id="Vector_281" d="M259.06 66.18H262.707V70.07H259.06V66.18Z" fill="#ABD6F3"/>
<path id="Vector_282" d="M339.336 70.07H342.983V73.96H339.336V70.07Z" fill="#4B9AD4"/>
<path id="Vector_283" d="M335.69 70.07H339.336V73.96H335.69V70.07Z" fill="#4B9AD4"/>
<path id="Vector_284" d="M332.035 70.07H335.681V73.96H332.035V70.07Z" fill="#4B9AD4"/>
<path id="Vector_285" d="M328.388 70.07H332.034V73.96H328.388V70.07Z" fill="#4B9AD4"/>
<path id="Vector_286" d="M324.742 70.07H328.388V73.96H324.742V70.07Z" fill="#4B9AD4"/>
<path id="Vector_287" d="M321.095 70.07H324.742V73.96H321.095V70.07Z" fill="#4B9AD4"/>
<path id="Vector_288" d="M317.44 70.07H321.086V73.96H317.44V70.07Z" fill="#4B9AD4"/>
<path id="Vector_289" d="M313.793 70.07H317.439V73.96H313.793V70.07Z" fill="#4B9AD4"/>
<path id="Vector_290" d="M310.147 70.07H313.793V73.96H310.147V70.07Z" fill="#4B9AD4"/>
<path id="Vector_291" d="M306.501 70.07H310.147V73.96H306.501V70.07Z" fill="#4B9AD4"/>
<path id="Vector_292" d="M302.845 70.07H306.491V73.96H302.845V70.07Z" fill="#4B9AD4"/>
<path id="Vector_293" d="M299.198 70.07H302.845V73.96H299.198V70.07Z" fill="#4B9AD4"/>
<path id="Vector_294" d="M295.552 70.07H299.198V73.96H295.552V70.07Z" fill="#4B9AD4"/>
<path id="Vector_295" d="M291.906 70.07H295.552V73.96H291.906V70.07Z" fill="#4B9AD4"/>
<path id="Vector_296" d="M288.25 70.07H291.896V73.96H288.25V70.07Z" fill="#4B9AD4"/>
<path id="Vector_297" d="M284.604 70.07H288.25V73.96H284.604V70.07Z" fill="#4B9AD4"/>
<path id="Vector_298" d="M280.957 70.07H284.604V73.96H280.957V70.07Z" fill="#4B9AD4"/>
<path id="Vector_299" d="M277.311 70.07H280.957V73.96H277.311V70.07Z" fill="#4B9AD4"/>
<path id="Vector_300" d="M273.655 70.07H277.302V73.96H273.655V70.07Z" fill="#4B9AD4"/>
<path id="Vector_301" d="M270.009 70.07H273.655V73.96H270.009V70.07Z" fill="#4B9AD4"/>
<path id="Vector_302" d="M266.362 70.07H270.009V73.96H266.362V70.07Z" fill="#4B9AD4"/>
<path id="Vector_303" d="M262.716 70.07H266.363V73.96H262.716V70.07Z" fill="#4B9AD4"/>
<path id="Vector_304" d="M259.06 70.07H262.707V73.96H259.06V70.07Z" fill="#4B9AD4"/>
<path id="Vector_305" d="M255.414 66.18H259.06V70.07H255.414V66.18Z" fill="#ABD6F3"/>
<path id="Vector_306" d="M251.767 66.18H255.414V70.07H251.767V66.18Z" fill="#ABD6F3"/>
<path id="Vector_307" d="M248.121 66.18H251.768V70.07H248.121V66.18Z" fill="#ABD6F3"/>
<path id="Vector_308" d="M244.465 66.18H248.112V70.07H244.465V66.18Z" fill="#ABD6F3"/>
<path id="Vector_309" d="M240.819 66.18H244.466V70.07H240.819V66.18Z" fill="#ABD6F3"/>
<path id="Vector_310" d="M237.173 66.18H240.819V70.07H237.173V66.18Z" fill="#ABD6F3"/>
<path id="Vector_311" d="M233.527 66.18H237.173V70.07H233.527V66.18Z" fill="#ABD6F3"/>
<path id="Vector_312" d="M229.871 66.18H233.517V70.07H229.871V66.18Z" fill="#ABD6F3"/>
<path id="Vector_313" d="M226.224 66.18H229.871V70.07H226.224V66.18Z" fill="#ABD6F3"/>
<path id="Vector_314" d="M222.578 66.18H226.224V70.07H222.578V66.18Z" fill="#ABD6F3"/>
<path id="Vector_315" d="M218.932 66.18H222.578V70.07H218.932V66.18Z" fill="#ABD6F3"/>
<path id="Vector_316" d="M215.276 66.18H218.922V70.07H215.276V66.18Z" fill="#ABD6F3"/>
<path id="Vector_317" d="M255.414 70.07H259.06V73.96H255.414V70.07Z" fill="#4B9AD4"/>
<path id="Vector_318" d="M251.767 70.07H255.414V73.96H251.767V70.07Z" fill="#4B9AD4"/>
<path id="Vector_319" d="M248.121 70.07H251.768V73.96H248.121V70.07Z" fill="#4B9AD4"/>
<path id="Vector_320" d="M244.465 70.07H248.112V73.96H244.465V70.07Z" fill="#4B9AD4"/>
<path id="Vector_321" d="M240.819 70.07H244.466V73.96H240.819V70.07Z" fill="#4B9AD4"/>
<path id="Vector_322" d="M237.173 70.07H240.819V73.96H237.173V70.07Z" fill="#4B9AD4"/>
<path id="Vector_323" d="M233.527 70.07H237.173V73.96H233.527V70.07Z" fill="#4B9AD4"/>
<path id="Vector_324" d="M229.871 70.07H233.517V73.96H229.871V70.07Z" fill="#4B9AD4"/>
<path id="Vector_325" d="M226.224 70.07H229.871V73.96H226.224V70.07Z" fill="#4B9AD4"/>
<path id="Vector_326" d="M222.578 70.07H226.224V73.96H222.578V70.07Z" fill="#4B9AD4"/>
<path id="Vector_327" d="M218.932 70.07H222.578V73.96H218.932V70.07Z" fill="#4B9AD4"/>
<path id="Vector_328" d="M215.276 70.07H218.922V73.96H215.276V70.07Z" fill="#4B9AD4"/>
<path id="Vector_329" d="M211.63 66.17H215.276V70.06H211.63V66.17Z" fill="#ABD6F3"/>
<path id="Vector_330" d="M207.983 66.17H211.629V70.06H207.983V66.17Z" fill="#ABD6F3"/>
<path id="Vector_331" d="M204.337 66.17H207.983V70.06H204.337V66.17Z" fill="#ABD6F3"/>
<path id="Vector_332" d="M200.681 66.17H204.327V70.06H200.681V66.17Z" fill="#ABD6F3"/>
<path id="Vector_333" d="M197.035 66.17H200.681V70.06H197.035V66.17Z" fill="#ABD6F3"/>
<path id="Vector_334" d="M193.388 66.17H197.035V70.06H193.388V66.17Z" fill="#ABD6F3"/>
<path id="Vector_335" d="M189.742 66.17H193.388V70.06H189.742V66.17Z" fill="#ABD6F3"/>
<path id="Vector_336" d="M186.086 66.17H189.733V70.06H186.086V66.17Z" fill="#ABD6F3"/>
<path id="Vector_337" d="M182.44 66.17H186.086V70.06H182.44V66.17Z" fill="#ABD6F3"/>
<path id="Vector_338" d="M178.794 66.17H182.44V70.06H178.794V66.17Z" fill="#ABD6F3"/>
<path id="Vector_339" d="M175.147 66.17H178.793V70.06H175.147V66.17Z" fill="#ABD6F3"/>
<path id="Vector_340" d="M171.492 66.17H175.138V70.06H171.492V66.17Z" fill="#ABD6F3"/>
<path id="Vector_341" d="M211.63 70.07H215.276V73.96H211.63V70.07Z" fill="#4B9AD4"/>
<path id="Vector_342" d="M207.983 70.07H211.629V73.96H207.983V70.07Z" fill="#4B9AD4"/>
<path id="Vector_343" d="M204.337 70.07H207.983V73.96H204.337V70.07Z" fill="#4B9AD4"/>
<path id="Vector_344" d="M200.681 70.07H204.327V73.96H200.681V70.07Z" fill="#4B9AD4"/>
<path id="Vector_345" d="M197.035 70.07H200.681V73.96H197.035V70.07Z" fill="#4B9AD4"/>
<path id="Vector_346" d="M193.388 70.07H197.035V73.96H193.388V70.07Z" fill="#4B9AD4"/>
<path id="Vector_347" d="M189.742 70.07H193.388V73.96H189.742V70.07Z" fill="#4B9AD4"/>
<path id="Vector_348" d="M186.086 70.07H189.733V73.96H186.086V70.07Z" fill="#4B9AD4"/>
<path id="Vector_349" d="M182.44 70.07H186.086V73.96H182.44V70.07Z" fill="#4B9AD4"/>
<path id="Vector_350" d="M178.794 70.07H182.44V73.96H178.794V70.07Z" fill="#4B9AD4"/>
<path id="Vector_351" d="M175.147 70.07H178.793V73.96H175.147V70.07Z" fill="#4B9AD4"/>
<path id="Vector_352" d="M171.492 70.07H175.138V73.96H171.492V70.07Z" fill="#4B9AD4"/>
<path id="Vector_353" d="M168.942 66.18H172.588V70.07H168.942V66.18Z" fill="#ABD6F3"/>
<path id="Vector_354" d="M165.295 66.18H168.942V70.07H165.295V66.18Z" fill="#ABD6F3"/>
<path id="Vector_355" d="M161.649 66.18H165.295V70.07H161.649V66.18Z" fill="#ABD6F3"/>
<path id="Vector_356" d="M157.993 66.18H161.64V70.07H157.993V66.18Z" fill="#ABD6F3"/>
<path id="Vector_357" d="M168.942 70.07H172.588V73.96H168.942V70.07Z" fill="#4B9AD4"/>
<path id="Vector_358" d="M165.295 70.07H168.942V73.96H165.295V70.07Z" fill="#4B9AD4"/>
<path id="Vector_359" d="M161.649 70.07H165.295V73.96H161.649V70.07Z" fill="#4B9AD4"/>
<path id="Vector_360" d="M157.993 70.07H161.64V73.96H157.993V70.07Z" fill="#4B9AD4"/>
<path id="Vector_361" d="M155.078 66.17H158.725V70.06H155.078V66.17Z" fill="#ABD6F3"/>
<path id="Vector_362" d="M151.422 66.17H155.069V70.06H151.422V66.17Z" fill="#ABD6F3"/>
<path id="Vector_363" d="M147.776 66.17H151.422V70.06H147.776V66.17Z" fill="#ABD6F3"/>
<path id="Vector_364" d="M144.13 66.17H147.776V70.06H144.13V66.17Z" fill="#ABD6F3"/>
<path id="Vector_365" d="M140.483 66.17H144.13V70.06H140.483V66.17Z" fill="#ABD6F3"/>
<path id="Vector_366" d="M155.078 70.07H158.725V73.96H155.078V70.07Z" fill="#4B9AD4"/>
<path id="Vector_367" d="M151.422 70.07H155.069V73.96H151.422V70.07Z" fill="#4B9AD4"/>
<path id="Vector_368" d="M147.776 70.07H151.422V73.96H147.776V70.07Z" fill="#4B9AD4"/>
<path id="Vector_369" d="M144.13 70.07H147.776V73.96H144.13V70.07Z" fill="#4B9AD4"/>
<path id="Vector_370" d="M140.483 70.07H144.13V73.96H140.483V70.07Z" fill="#4B9AD4"/>
<path id="Vector_371" d="M137.746 66.18H141.393V70.07H137.746V66.18Z" fill="#ABD6F3"/>
<path id="Vector_372" d="M134.09 66.18H137.737V70.07H134.09V66.18Z" fill="#ABD6F3"/>
<path id="Vector_373" d="M137.746 70.07H141.393V73.96H137.746V70.07Z" fill="#4B9AD4"/>
<path id="Vector_374" d="M134.09 70.07H137.737V73.96H134.09V70.07Z" fill="#4B9AD4"/>
<path id="Vector_375" d="M130.444 66.18H134.091V70.07H130.444V66.18Z" fill="#ABD6F3"/>
<path id="Vector_376" d="M126.798 66.18H130.444V70.07H126.798V66.18Z" fill="#ABD6F3"/>
<path id="Vector_377" d="M123.152 66.18H126.798V70.07H123.152V66.18Z" fill="#ABD6F3"/>
<path id="Vector_378" d="M119.496 66.18H123.142V70.07H119.496V66.18Z" fill="#ABD6F3"/>
<path id="Vector_379" d="M115.849 66.18H119.496V70.07H115.849V66.18Z" fill="#ABD6F3"/>
<path id="Vector_380" d="M112.203 66.18H115.849V70.07H112.203V66.18Z" fill="#ABD6F3"/>
<path id="Vector_381" d="M108.557 66.18H112.203V70.07H108.557V66.18Z" fill="#ABD6F3"/>
<path id="Vector_382" d="M104.901 66.18H108.547V70.07H104.901V66.18Z" fill="#ABD6F3"/>
<path id="Vector_383" d="M101.255 66.18H104.901V70.07H101.255V66.18Z" fill="#ABD6F3"/>
<path id="Vector_384" d="M97.608 66.18H101.254V70.07H97.608V66.18Z" fill="#ABD6F3"/>
<path id="Vector_385" d="M93.9618 66.18H97.6082V70.07H93.9618V66.18Z" fill="#ABD6F3"/>
<path id="Vector_386" d="M90.306 66.18H93.9524V70.07H90.306V66.18Z" fill="#ABD6F3"/>
<path id="Vector_387" d="M130.444 70.07H134.091V73.96H130.444V70.07Z" fill="#4B9AD4"/>
<path id="Vector_388" d="M126.798 70.07H130.444V73.96H126.798V70.07Z" fill="#4B9AD4"/>
<path id="Vector_389" d="M123.152 70.07H126.798V73.96H123.152V70.07Z" fill="#4B9AD4"/>
<path id="Vector_390" d="M119.496 70.07H123.142V73.96H119.496V70.07Z" fill="#4B9AD4"/>
<path id="Vector_391" d="M115.849 70.07H119.496V73.96H115.849V70.07Z" fill="#4B9AD4"/>
<path id="Vector_392" d="M112.203 70.07H115.849V73.96H112.203V70.07Z" fill="#4B9AD4"/>
<path id="Vector_393" d="M108.557 70.07H112.203V73.96H108.557V70.07Z" fill="#4B9AD4"/>
<path id="Vector_394" d="M104.901 70.07H108.547V73.96H104.901V70.07Z" fill="#4B9AD4"/>
<path id="Vector_395" d="M101.255 70.07H104.901V73.96H101.255V70.07Z" fill="#4B9AD4"/>
<path id="Vector_396" d="M97.608 70.07H101.254V73.96H97.608V70.07Z" fill="#4B9AD4"/>
<path id="Vector_397" d="M93.9618 70.07H97.6082V73.96H93.9618V70.07Z" fill="#4B9AD4"/>
<path id="Vector_398" d="M90.306 70.07H93.9524V73.96H90.306V70.07Z" fill="#4B9AD4"/>
<path id="Vector_399" d="M87.7565 66.18H91.4028V70.07H87.7565V66.18Z" fill="#ABD6F3"/>
<path id="Vector_400" d="M84.11 66.18H87.7563V70.07H84.11V66.18Z" fill="#ABD6F3"/>
<path id="Vector_401" d="M80.4635 66.18H84.1099V70.07H80.4635V66.18Z" fill="#ABD6F3"/>
<path id="Vector_402" d="M76.808 66.18H80.4543V70.07H76.808V66.18Z" fill="#ABD6F3"/>
<path id="Vector_403" d="M87.7565 70.07H91.4028V73.96H87.7565V70.07Z" fill="#4B9AD4"/>
<path id="Vector_404" d="M84.11 70.07H87.7563V73.96H84.11V70.07Z" fill="#4B9AD4"/>
<path id="Vector_405" d="M80.4635 70.07H84.1099V73.96H80.4635V70.07Z" fill="#4B9AD4"/>
<path id="Vector_406" d="M76.808 70.07H80.4543V73.96H76.808V70.07Z" fill="#4B9AD4"/>
<path id="Vector_407" d="M73.8927 66.18H77.5391V70.07H73.8927V66.18Z" fill="#ABD6F3"/>
<path id="Vector_408" d="M70.2465 66.18H73.8928V70.07H70.2465V66.18Z" fill="#ABD6F3"/>
<path id="Vector_409" d="M66.5904 66.18H70.2368V70.07H66.5904V66.18Z" fill="#ABD6F3"/>
<path id="Vector_410" d="M62.9442 66.18H66.5906V70.07H62.9442V66.18Z" fill="#ABD6F3"/>
<path id="Vector_411" d="M59.2977 66.18H62.9441V70.07H59.2977V66.18Z" fill="#ABD6F3"/>
<path id="Vector_412" d="M73.8927 70.07H77.5391V73.96H73.8927V70.07Z" fill="#4B9AD4"/>
<path id="Vector_413" d="M70.2465 70.07H73.8928V73.96H70.2465V70.07Z" fill="#4B9AD4"/>
<path id="Vector_414" d="M66.5904 70.07H70.2368V73.96H66.5904V70.07Z" fill="#4B9AD4"/>
<path id="Vector_415" d="M62.9442 70.07H66.5906V73.96H62.9442V70.07Z" fill="#4B9AD4"/>
<path id="Vector_416" d="M59.2977 70.07H62.9441V73.96H59.2977V70.07Z" fill="#4B9AD4"/>
<path id="Vector_417" d="M56.1952 66.18H59.8416V70.07H56.1952V66.18Z" fill="#ABD6F3"/>
<path id="Vector_418" d="M52.5487 66.18H56.1951V70.07H52.5487V66.18Z" fill="#ABD6F3"/>
<path id="Vector_419" d="M48.9025 66.18H52.5488V70.07H48.9025V66.18Z" fill="#ABD6F3"/>
<path id="Vector_420" d="M45.2467 66.18H48.8931V70.07H45.2467V66.18Z" fill="#ABD6F3"/>
<path id="Vector_421" d="M56.1952 70.07H59.8416V73.96H56.1952V70.07Z" fill="#4B9AD4"/>
<path id="Vector_422" d="M52.5487 70.07H56.1951V73.96H52.5487V70.07Z" fill="#4B9AD4"/>
<path id="Vector_423" d="M48.9025 70.07H52.5488V73.96H48.9025V70.07Z" fill="#4B9AD4"/>
<path id="Vector_424" d="M45.2467 70.07H48.8931V73.96H45.2467V70.07Z" fill="#4B9AD4"/>
<path id="Vector_425" d="M42.3317 66.18H45.978V70.07H42.3317V66.18Z" fill="#ABD6F3"/>
<path id="Vector_426" d="M38.6757 66.18H42.322V70.07H38.6757V66.18Z" fill="#ABD6F3"/>
<path id="Vector_427" d="M35.0294 66.18H38.6758V70.07H35.0294V66.18Z" fill="#ABD6F3"/>
<path id="Vector_428" d="M31.3832 66.18H35.0295V70.07H31.3832V66.18Z" fill="#ABD6F3"/>
<path id="Vector_429" d="M27.7367 66.18H31.3831V70.07H27.7367V66.18Z" fill="#ABD6F3"/>
<path id="Vector_430" d="M42.3317 70.07H45.978V73.96H42.3317V70.07Z" fill="#4B9AD4"/>
<path id="Vector_431" d="M38.6757 70.07H42.322V73.96H38.6757V70.07Z" fill="#4B9AD4"/>
<path id="Vector_432" d="M35.0294 70.07H38.6758V73.96H35.0294V70.07Z" fill="#4B9AD4"/>
<path id="Vector_433" d="M31.3832 70.07H35.0295V73.96H31.3832V70.07Z" fill="#4B9AD4"/>
<path id="Vector_434" d="M27.7367 70.07H31.3831V73.96H27.7367V70.07Z" fill="#4B9AD4"/>
<path id="Vector_435" d="M25.5433 66.18H29.1897V70.07H25.5433V66.18Z" fill="#ABD6F3"/>
<path id="Vector_436" d="M21.8968 66.18H25.5432V70.07H21.8968V66.18Z" fill="#ABD6F3"/>
<path id="Vector_437" d="M18.2504 66.18H21.8967V70.07H18.2504V66.18Z" fill="#ABD6F3"/>
<path id="Vector_438" d="M14.5949 66.18H18.2412V70.07H14.5949V66.18Z" fill="#ABD6F3"/>
<path id="Vector_439" d="M25.5433 70.07H29.1897V73.96H25.5433V70.07Z" fill="#4B9AD4"/>
<path id="Vector_440" d="M21.8968 70.07H25.5432V73.96H21.8968V70.07Z" fill="#4B9AD4"/>
<path id="Vector_441" d="M18.2504 70.07H21.8967V73.96H18.2504V70.07Z" fill="#4B9AD4"/>
<path id="Vector_442" d="M14.5949 70.07H18.2412V73.96H14.5949V70.07Z" fill="#4B9AD4"/>
<path id="Vector_443" d="M10.9486 66.18H14.595V70.07H10.9486V66.18Z" fill="#ABD6F3"/>
<path id="Vector_444" d="M10.9486 70.07H14.595V73.96H10.9486V70.07Z" fill="#4B9AD4"/>
<path id="Vector_445" d="M487.103 73.96H490.75V77.85H487.103V73.96Z" fill="#4B9AD4"/>
<path id="Vector_446" d="M476.164 73.96H479.811V77.85H476.164V73.96Z" fill="#ABD6F3"/>
<path id="Vector_447" d="M472.508 73.96H476.155V77.85H472.508V73.96Z" fill="#4B9AD4"/>
<path id="Vector_448" d="M487.103 77.85H490.75V81.74H487.103V77.85Z" fill="#4B9AD4"/>
<path id="Vector_449" d="M479.81 77.85H483.457V81.74H479.81V77.85Z" fill="#ABD6F3"/>
<path id="Vector_450" d="M476.164 77.85H479.811V81.74H476.164V77.85Z" fill="#4B9AD4"/>
<path id="Vector_451" d="M487.103 81.74H490.75V85.63H487.103V81.74Z" fill="#4B9AD4"/>
<path id="Vector_452" d="M483.457 81.74H487.103V85.63H483.457V81.74Z" fill="#ABD6F3"/>
<path id="Vector_453" d="M479.81 81.74H483.457V85.63H479.81V81.74Z" fill="#4B9AD4"/>
<path id="Vector_454" d="M487.103 85.64H490.75V89.53H487.103V85.64Z" fill="#4B9AD4"/>
<path id="Vector_455" d="M483.457 85.64H487.103V89.53H483.457V85.64Z" fill="#4B9AD4"/>
</g>
</g>
</svg>
