<?xml version="1.0" encoding="UTF-8"?>
<svg xmlns="http://www.w3.org/2000/svg" version="1.1" viewBox="0 0 595.28 841.89">
  <defs>
    <style>
      .cls-1 {
        fill: #fff;
      }

      .cls-2 {
        fill: #abdfec;
      }
    </style>
  </defs>
  <!-- Generator: Adobe Illustrator 28.7.1, SVG Export Plug-In . SVG Version: 1.2.0 Build 142)  -->
  <g>
    <g id="Layer_1">
      <g>
        <rect class="cls-2" x="36.3" y="107.1" width="524.92" height="322.12"/>
        <rect class="cls-1" x="44.43" y="136.69" width="506.41" height="25.56"/>
        <rect class="cls-1" x="44.43" y="170.31" width="506.41" height="250.64"/>
        <g>
          <path class="cls-2" d="M57.31,151.24h-1.14v1.19h-1.19v1.2h-5.99v-8.31h5.93v1.13h1.2v1.19h1.19v3.61ZM54.93,151.24v-3.61h-1.19v-1.12h-2.35v5.91h2.4v-1.19h1.14Z"/>
          <path class="cls-2" d="M66.14,153.63h-7.13v-1.17h2.35v-5.94h-2.35v-1.2h7.13v1.15h-2.35v5.96h2.35v1.2Z"/>
          <path class="cls-2" d="M75.68,152.43h-1.14v1.2h-5.98v-1.13h-1.2v-1.2h2.39v1.13h3.54v-2.32h-4.72v-1.2h-1.2v-2.39h1.14v-1.2h4.79v1.13h1.2v1.2h-2.35v-1.14h-2.39v2.3h4.74v1.22h1.19v2.39Z"/>
          <path class="cls-2" d="M84.86,147.65h-2.35v-1.14h-2.35v1.14h-1.22v3.56h1.17v1.22h2.37v-1.15h2.39v1.15h-1.14v1.2h-4.79v-1.13h-1.19v-1.22h-1.2v-3.62h1.14v-1.14h1.2v-1.2h4.79v1.13h1.19v1.2Z"/>
        </g>
        <g>
          <path class="cls-2" d="M123.17,152.43h-1.14v1.2h-5.98v-1.13h-1.2v-5.98h1.14v-1.2h5.99v1.13h1.19v5.98ZM120.78,152.43v-5.91h-3.54v5.91h3.54Z"/>
          <path class="cls-2" d="M132.35,150.04h-1.14v1.2h-4.79v2.39h-2.39v-8.31h7.13v1.13h1.19v3.59ZM129.97,150.04v-3.52h-3.54v3.52h3.54Z"/>
          <path class="cls-2" d="M139.75,146.47h-2.34v7.16h-2.39v-7.11h-2.4v-1.2h7.13v1.15Z"/>
          <path class="cls-2" d="M150.37,153.63h-7.13v-1.17h2.35v-5.94h-2.35v-1.2h7.13v1.15h-2.35v5.96h2.35v1.2Z"/>
          <path class="cls-2" d="M159.9,152.43h-1.14v1.2h-5.98v-1.13h-1.2v-5.98h1.14v-1.2h5.99v1.13h1.19v5.98ZM157.51,152.43v-5.91h-3.54v5.91h3.54Z"/>
          <path class="cls-2" d="M169.08,153.63h-2.35v-1.13h-1.19v-1.2h-1.2v-1.22h-1.15v3.56h-2.42v-8.31h2.35v1.13h1.22v1.19h1.2v1.22h1.15v-3.54h2.39v8.31Z"/>
        </g>
        <g>
          <path class="cls-2" d="M207.39,150.06h-1.15v1.19h-1.19v1.19h-1.2v1.2h-1.2v-1.13h-1.22v-1.2h-1.17v-1.19h-1.19v-4.79h2.35v3.51h1.22v1.24h1.14v-1.17h1.22v-3.57h2.39v4.74Z"/>
          <path class="cls-2" d="M216.22,153.63h-7.13v-1.17h2.35v-5.94h-2.35v-1.2h7.13v1.15h-2.35v5.96h2.35v1.2Z"/>
          <path class="cls-2" d="M225.91,153.56h-8.41v-8.4h8.41v1.17h-5.99v2.39h3.59v1.24h-3.59v2.4h5.99v1.2Z"/>
          <path class="cls-2" d="M234.94,153.63h-2.35v-1.13h-1.19v-1.24h-1.17v1.17h-1.19v1.2h-2.42v-8.31h2.35v3.54h1.2v-1.15h1.22v1.15h1.15v-3.54h2.39v8.31Z"/>
        </g>
        <g>
          <path class="cls-2" d="M273.25,153.63h-2.35v-3.57h-3.54v3.57h-2.42v-8.31h2.35v3.54h3.57v-3.54h2.39v8.31Z"/>
          <path class="cls-2" d="M282.58,153.56h-8.41v-8.4h8.41v1.17h-5.99v2.39h3.59v1.24h-3.59v2.4h5.99v1.2Z"/>
          <path class="cls-2" d="M289.83,153.63h-7.13v-8.31h2.35v7.11h4.77v1.2Z"/>
          <path class="cls-2" d="M300.79,150.04h-1.14v1.2h-4.79v2.39h-2.39v-8.31h7.13v1.13h1.19v3.59ZM298.41,150.04v-3.52h-3.54v3.52h3.54Z"/>
        </g>
        <g>
          <rect class="cls-1" x="537.68" y="116.78" width="3.29" height="3.29"/>
          <rect class="cls-1" x="534.39" y="113.49" width="3.29" height="3.29"/>
          <rect class="cls-1" x="547.55" y="113.49" width="3.29" height="3.29"/>
          <rect class="cls-1" x="534.39" y="126.65" width="3.29" height="3.29"/>
          <rect class="cls-1" x="547.55" y="126.65" width="3.29" height="3.29"/>
          <rect class="cls-1" x="540.97" y="120.07" width="3.29" height="3.29"/>
          <rect class="cls-1" x="544.26" y="116.78" width="3.29" height="3.29"/>
          <rect class="cls-1" x="537.68" y="123.36" width="3.29" height="3.29"/>
          <rect class="cls-1" x="544.26" y="123.36" width="3.29" height="3.29"/>
        </g>
        <g>
          <path class="cls-1" d="M46.88,116.92v10.4h-1.6v-10.4h1.6ZM48.47,127.31v1.6h-1.6v-1.6h1.6ZM53.27,128.92v1.6h-4.8v-1.6h4.8ZM54.88,128.92h-1.6v-1.6h1.6v1.6ZM56.47,116.92v10.4h-1.6v-10.4h1.6Z"/>
          <path class="cls-1" d="M61.01,116.92v2.4h-1.6v-2.4h1.6ZM61.01,130.52h-1.6v-2.4h1.6v2.4ZM62.61,119.31v1.6h-1.6v-1.6h1.6ZM62.61,128.12h-1.6v-1.6h1.6v1.6ZM64.21,120.92v1.6h-1.6v-1.6h1.6ZM64.21,126.52h-1.6v-1.6h1.6v1.6ZM65.81,122.52v2.4h-1.6v-2.4h1.6ZM65.81,120.92h1.6v1.6h-1.6v-1.6ZM65.81,124.92h1.6v1.6h-1.6v-1.6ZM69.01,119.31v1.6h-1.6v-1.6h1.6ZM67.41,126.52h1.6v1.6h-1.6v-1.6ZM70.61,116.92v2.4h-1.6v-2.4h1.6ZM69.01,128.12h1.6v2.4h-1.6v-2.4Z"/>
          <path class="cls-1" d="M77.65,120.12h1.6v7.2h-1.6v-7.2ZM79.25,118.52h1.6v1.6h-1.6v-1.6ZM79.25,127.31h1.6v1.6h-1.6v-1.6ZM80.85,116.92h5.6v1.6h-5.6v-1.6ZM80.85,128.92h5.6v1.6h-5.6v-1.6ZM86.45,118.52h1.6v1.6h-1.6v-1.6ZM86.45,127.31h1.6v1.6h-1.6v-1.6ZM88.05,120.12h1.6v1.6h-1.6v-1.6ZM88.05,125.72h1.6v1.6h-1.6v-1.6Z"/>
          <path class="cls-1" d="M93.55,124.12h-1.6v-1.6h1.6v1.6ZM91.95,125.72h1.6v3.2h-1.6v-3.2ZM93.55,120.92h4.8v1.6h-4.8v-1.6ZM98.35,128.92h-1.6v-1.6h1.6v-1.6h-4.8v-1.6h4.8v-1.6h1.6v8h-1.6v-1.6ZM93.55,128.92h3.2v1.6h-3.2v-1.6Z"/>
          <path class="cls-1" d="M103.87,124.12h-1.6v-1.6h1.6v1.6ZM103.87,127.31v1.6h-1.6v-1.6h1.6ZM103.87,120.92h4.8v1.6h-4.8v-1.6ZM106.27,124.12v1.6h-2.4v-1.6h2.4ZM103.87,128.92h4.8v1.6h-4.8v-1.6ZM108.67,125.72v1.6h-2.4v-1.6h2.4ZM110.27,122.52v1.6h-1.6v-1.6h1.6ZM110.27,127.31v1.6h-1.6v-1.6h1.6Z"/>
          <path class="cls-1" d="M114.05,122.52v2.4h5.6v-2.4h1.6v4h-7.2v2.4h-1.6v-6.4h1.6ZM114.05,120.92h5.6v1.6h-5.6v-1.6ZM119.65,128.92v1.6h-5.6v-1.6h5.6ZM119.65,127.31h1.6v1.6h-1.6v-1.6Z"/>
          <path class="cls-1" d="M129.97,121.72h-1.6v-3.2h1.6v3.2ZM128.37,126.52h1.6v2.4h-1.6v-2.4ZM129.97,116.92h6.4v1.6h-6.4v-1.6ZM129.97,121.72h3.2v1.6h-3.2v-1.6ZM136.37,130.52h-6.4v-1.6h6.4v1.6ZM133.17,123.31h3.2v1.6h-3.2v-1.6ZM136.37,118.52h1.6v2.4h-1.6v-2.4ZM137.97,124.92v4h-1.6v-4h1.6Z"/>
          <path class="cls-1" d="M141.67,120.92v-2.4h1.6v2.4h3.2v1.6h-3.2v6.4h-1.6v-6.4h-1.6v-1.6h1.6ZM146.47,128.92v1.6h-3.2v-1.6h3.2Z"/>
          <path class="cls-1" d="M148.63,120.92h1.6v8h-1.6v-8ZM153.43,130.52h-3.2v-1.6h3.2v1.6ZM155.03,128.92h-1.6v-1.6h1.6v-6.4h1.6v9.6h-1.6v-1.6Z"/>
          <path class="cls-1" d="M159.35,122.52h1.6v6.4h-1.6v-6.4ZM160.95,120.92h4v1.6h-4v-1.6ZM160.95,128.92h4v1.6h-4v-1.6ZM168.15,116.92v13.6h-1.6v-1.6h-1.6v-1.6h1.6v-3.2h-1.6v-1.6h1.6v-5.6h1.6Z"/>
          <path class="cls-1" d="M172.21,120.92v4.8h-1.6v-4.8h1.6ZM170.61,132.92h3.2v1.6h-3.2v-1.6ZM173.81,125.72v4h-1.6v-4h1.6ZM175.41,129.72v3.2h-1.6v-3.2h1.6ZM177.01,125.72v4h-1.6v-4h1.6ZM178.61,120.92v4.8h-1.6v-4.8h1.6Z"/>
        </g>
      </g>
    </g>
  </g>
</svg>