<?xml version="1.0" encoding="UTF-8"?>
<svg xmlns="http://www.w3.org/2000/svg" version="1.1" viewBox="0 0 1024 768">
  <defs>
    <style>
      .cls-1 {
        fill: #a98ac4;
      }

      .cls-2 {
        fill: #d4aaf2;
      }
    </style>
  </defs>
  <!-- Generator: Adobe Illustrator 28.7.1, SVG Export Plug-In . SVG Version: 1.2.0 Build 142)  -->
  <g>
    <g id="Layer_1">
      <g>
        <rect class="cls-2" x="68.4" y="13.98" width="17.05" height="17.05"/>
        <rect class="cls-2" x="85.45" y="13.98" width="17.05" height="17.05"/>
        <rect class="cls-2" x="102.5" y="13.98" width="17.05" height="17.05"/>
        <rect class="cls-2" x="119.55" y="13.98" width="17.05" height="17.05"/>
        <rect class="cls-2" x="136.6" y="13.98" width="17.05" height="17.05"/>
        <rect class="cls-2" x="153.65" y="13.98" width="17.05" height="17.05"/>
        <rect class="cls-2" x="170.7" y="13.98" width="17.05" height="17.05"/>
        <rect class="cls-2" x="187.76" y="13.98" width="17.05" height="17.05"/>
        <rect class="cls-2" x="204.81" y="13.98" width="17.05" height="17.05"/>
        <rect class="cls-2" x="221.86" y="13.98" width="17.05" height="17.05"/>
        <rect class="cls-2" x="238.91" y="13.98" width="17.05" height="17.05"/>
        <rect class="cls-2" x="255.96" y="13.98" width="17.05" height="17.05"/>
        <rect class="cls-2" x="273.01" y="13.98" width="17.05" height="17.05"/>
        <rect class="cls-2" x="290.06" y="13.98" width="17.05" height="17.05"/>
        <rect class="cls-2" x="307.11" y="13.98" width="17.05" height="17.05"/>
        <rect class="cls-2" x="324.16" y="13.98" width="17.05" height="17.05"/>
        <rect class="cls-2" x="341.21" y="13.98" width="17.05" height="17.05"/>
        <rect class="cls-2" x="358.26" y="13.98" width="17.05" height="17.05"/>
        <rect class="cls-2" x="375.31" y="13.98" width="17.05" height="17.05"/>
        <rect class="cls-2" x="392.36" y="13.98" width="17.05" height="17.05"/>
        <rect class="cls-2" x="409.42" y="13.98" width="17.05" height="17.05"/>
        <rect class="cls-2" x="426.46" y="13.98" width="17.05" height="17.05"/>
        <rect class="cls-2" x="443.52" y="13.98" width="17.05" height="17.05"/>
        <rect class="cls-2" x="460.57" y="13.98" width="17.05" height="17.05"/>
        <rect class="cls-2" x="477.62" y="13.98" width="17.05" height="17.05"/>
        <rect class="cls-2" x="494.67" y="13.98" width="17.05" height="17.05"/>
        <rect class="cls-2" x="511.72" y="13.98" width="17.05" height="17.05"/>
        <rect class="cls-2" x="528.77" y="13.98" width="17.05" height="17.05"/>
        <rect class="cls-2" x="545.82" y="13.98" width="17.05" height="17.05"/>
        <rect class="cls-2" x="562.87" y="13.98" width="17.05" height="17.05"/>
        <rect class="cls-2" x="579.92" y="13.98" width="17.05" height="17.05"/>
        <rect class="cls-2" x="596.97" y="13.98" width="17.05" height="17.05"/>
        <rect class="cls-2" x="614.02" y="13.98" width="17.05" height="17.05"/>
        <rect class="cls-2" x="631.07" y="13.98" width="17.05" height="17.05"/>
        <rect class="cls-2" x="648.12" y="13.98" width="17.05" height="17.05"/>
        <rect class="cls-2" x="665.17" y="13.98" width="17.05" height="17.05"/>
        <rect class="cls-2" x="682.23" y="13.98" width="17.05" height="17.05"/>
        <rect class="cls-2" x="699.28" y="13.98" width="17.05" height="17.05"/>
        <rect class="cls-2" x="716.33" y="13.98" width="17.05" height="17.05"/>
        <rect class="cls-2" x="733.38" y="13.98" width="17.05" height="17.05"/>
        <rect class="cls-2" x="750.43" y="13.98" width="17.05" height="17.05"/>
        <rect class="cls-2" x="767.48" y="13.98" width="17.05" height="17.05"/>
        <rect class="cls-2" x="784.53" y="13.98" width="17.05" height="17.05"/>
        <rect class="cls-2" x="801.58" y="13.98" width="17.05" height="17.05"/>
        <rect class="cls-2" x="818.63" y="13.98" width="17.05" height="17.05"/>
        <rect class="cls-2" x="835.68" y="13.98" width="17.05" height="17.05"/>
        <rect class="cls-2" x="852.73" y="13.98" width="17.05" height="17.05"/>
        <rect class="cls-2" x="869.78" y="13.98" width="17.05" height="17.05"/>
        <rect class="cls-2" x="886.83" y="13.98" width="17.05" height="17.05"/>
        <rect class="cls-2" x="903.88" y="13.98" width="17.05" height="17.05"/>
        <rect class="cls-2" x="920.94" y="13.98" width="17.05" height="17.05"/>
        <rect class="cls-2" x="937.99" y="13.98" width="17.05" height="17.05"/>
        <rect class="cls-2" x="51.35" y="31.02" width="17.05" height="17.05"/>
        <rect class="cls-2" x="953.58" y="30.53" width="17.05" height="17.05"/>
        <rect class="cls-2" x="34.3" y="48.07" width="17.05" height="17.05"/>
        <rect class="cls-2" x="970.63" y="47.58" width="17.05" height="17.05"/>
        <rect class="cls-2" x="17.15" y="422.2" width="17.05" height="17.05"/>
        <rect class="cls-2" x="987.59" y="421.71" width="17.05" height="17.05"/>
        <rect class="cls-2" x="17.15" y="439.25" width="17.05" height="17.05"/>
        <rect class="cls-2" x="987.59" y="438.76" width="17.05" height="17.05"/>
        <rect class="cls-2" x="17.15" y="456.31" width="17.05" height="17.05"/>
        <rect class="cls-2" x="987.59" y="455.81" width="17.05" height="17.05"/>
        <rect class="cls-2" x="17.15" y="473.36" width="17.05" height="17.05"/>
        <rect class="cls-2" x="17.25" y="131.69" width="17.05" height="17.05"/>
        <rect class="cls-2" x="17.25" y="268.74" width="17.05" height="17.05"/>
        <rect class="cls-2" x="17.25" y="97.59" width="17.05" height="17.05"/>
        <rect class="cls-2" x="17.25" y="114.64" width="17.05" height="17.05"/>
        <rect class="cls-2" x="17.25" y="63.49" width="17.05" height="17.05"/>
        <rect class="cls-2" x="17.25" y="80.54" width="17.05" height="17.05"/>
        <rect class="cls-2" x="17.25" y="285.8" width="17.05" height="17.05"/>
        <rect class="cls-2" x="17.15" y="405.15" width="17.05" height="17.05"/>
        <rect class="cls-2" x="17.15" y="336.95" width="17.05" height="17.05"/>
        <rect class="cls-2" x="17.15" y="354" width="17.05" height="17.05"/>
        <rect class="cls-2" x="17.15" y="371.05" width="17.05" height="17.05"/>
        <rect class="cls-2" x="17.15" y="388.1" width="17.05" height="17.05"/>
        <rect class="cls-2" x="17.15" y="319.9" width="17.05" height="17.05"/>
        <rect class="cls-2" x="17.25" y="302.85" width="17.05" height="17.05"/>
        <rect class="cls-2" x="17.34" y="132.34" width="17.05" height="17.05"/>
        <rect class="cls-2" x="17.34" y="149.39" width="17.05" height="17.05"/>
        <rect class="cls-2" x="17.25" y="200.54" width="17.05" height="17.05"/>
        <rect class="cls-2" x="17.25" y="217.59" width="17.05" height="17.05"/>
        <rect class="cls-2" x="17.25" y="234.64" width="17.05" height="17.05"/>
        <rect class="cls-2" x="17.25" y="251.69" width="17.05" height="17.05"/>
        <rect class="cls-2" x="17.25" y="183.49" width="17.05" height="17.05"/>
        <rect class="cls-2" x="17.34" y="166.44" width="17.05" height="17.05"/>
        <rect class="cls-2" x="987.59" y="472.86" width="17.05" height="17.05"/>
        <rect class="cls-2" x="17.15" y="490.41" width="17.05" height="17.05"/>
        <rect class="cls-2" x="987.59" y="489.91" width="17.05" height="17.05"/>
        <rect class="cls-2" x="987.68" y="116.15" width="17.05" height="17.05"/>
        <rect class="cls-2" x="987.68" y="133.2" width="17.05" height="17.05"/>
        <rect class="cls-2" x="987.68" y="269.25" width="17.05" height="17.05"/>
        <rect class="cls-2" x="987.68" y="64.99" width="17.05" height="17.05"/>
        <rect class="cls-2" x="987.68" y="82.04" width="17.05" height="17.05"/>
        <rect class="cls-2" x="987.68" y="99.1" width="17.05" height="17.05"/>
        <rect class="cls-2" x="987.68" y="286.3" width="17.05" height="17.05"/>
        <rect class="cls-2" x="987.59" y="404.66" width="17.05" height="17.05"/>
        <rect class="cls-2" x="987.68" y="337.27" width="17.05" height="17.05"/>
        <rect class="cls-2" x="987.68" y="354.32" width="17.05" height="17.05"/>
        <rect class="cls-2" x="987.68" y="371.37" width="17.05" height="17.05"/>
        <rect class="cls-2" x="987.68" y="388.42" width="17.05" height="17.05"/>
        <rect class="cls-2" x="987.68" y="320.22" width="17.05" height="17.05"/>
        <rect class="cls-2" x="987.68" y="303.35" width="17.05" height="17.05"/>
        <rect class="cls-2" x="987.59" y="166.94" width="17.05" height="17.05"/>
        <rect class="cls-2" x="987.68" y="150.25" width="17.05" height="17.05"/>
        <rect class="cls-2" x="987.59" y="183.99" width="17.05" height="17.05"/>
        <rect class="cls-2" x="987.59" y="233.31" width="17.05" height="18.89"/>
        <rect class="cls-2" x="987.68" y="252.2" width="17.05" height="17.05"/>
        <rect class="cls-2" x="987.59" y="217.91" width="17.05" height="17.05"/>
        <rect class="cls-2" x="987.59" y="201.04" width="17.05" height="17.05"/>
        <rect class="cls-2" x="17.15" y="507.46" width="17.05" height="17.05"/>
        <rect class="cls-2" x="987.59" y="506.96" width="17.05" height="17.05"/>
        <rect class="cls-2" x="17.15" y="524.51" width="17.05" height="17.05"/>
        <rect class="cls-2" x="987.59" y="524.02" width="17.05" height="17.05"/>
        <rect class="cls-2" x="17.15" y="541.56" width="17.05" height="17.05"/>
        <rect class="cls-2" x="987.59" y="541.07" width="17.05" height="17.05"/>
        <rect class="cls-2" x="17.15" y="558.61" width="17.05" height="17.05"/>
        <rect class="cls-2" x="987.59" y="558.12" width="17.05" height="17.05"/>
        <rect class="cls-2" x="17.15" y="575.66" width="17.05" height="17.05"/>
        <rect class="cls-2" x="987.59" y="575.17" width="17.05" height="17.05"/>
        <rect class="cls-2" x="17.15" y="592.71" width="17.05" height="17.05"/>
        <rect class="cls-2" x="987.59" y="592.22" width="17.05" height="17.05"/>
        <rect class="cls-2" x="17.15" y="609.76" width="17.05" height="17.05"/>
        <rect class="cls-2" x="987.59" y="609.27" width="17.05" height="17.05"/>
        <rect class="cls-2" x="17.15" y="626.81" width="17.05" height="17.05"/>
        <rect class="cls-1" x="34.21" y="626.81" width="17.05" height="17.05"/>
        <rect class="cls-1" x="970.54" y="627.32" width="17.05" height="17.05"/>
        <rect class="cls-2" x="987.59" y="626.32" width="17.05" height="17.05"/>
        <rect class="cls-2" x="34.21" y="643.86" width="17.05" height="17.05"/>
        <rect class="cls-1" x="51.26" y="643.86" width="17.05" height="17.05"/>
        <rect class="cls-1" x="953.49" y="644.37" width="17.05" height="17.05"/>
        <rect class="cls-2" x="970.54" y="644.37" width="17.05" height="17.05"/>
        <rect class="cls-2" x="51.26" y="660.91" width="17.05" height="17.05"/>
        <rect class="cls-1" x="68.31" y="660.91" width="17.05" height="17.05"/>
        <rect class="cls-1" x="85.36" y="660.91" width="17.05" height="17.05"/>
        <rect class="cls-1" x="102.41" y="660.91" width="17.05" height="17.05"/>
        <rect class="cls-1" x="187.66" y="660.91" width="17.05" height="17.05"/>
        <rect class="cls-1" x="204.71" y="660.91" width="17.05" height="17.05"/>
        <rect class="cls-1" x="221.77" y="660.91" width="17.05" height="17.05"/>
        <rect class="cls-1" x="238.81" y="660.91" width="17.05" height="17.05"/>
        <rect class="cls-1" x="255.87" y="660.91" width="17.05" height="17.05"/>
        <rect class="cls-1" x="272.92" y="660.91" width="17.05" height="17.05"/>
        <rect class="cls-1" x="289.97" y="660.91" width="17.05" height="17.05"/>
        <rect class="cls-1" x="307.02" y="660.91" width="17.05" height="17.05"/>
        <rect class="cls-1" x="324.07" y="660.91" width="17.05" height="17.05"/>
        <rect class="cls-1" x="341.12" y="660.91" width="17.05" height="17.05"/>
        <rect class="cls-1" x="358.17" y="660.91" width="17.05" height="17.05"/>
        <rect class="cls-1" x="375.22" y="660.91" width="17.05" height="17.05"/>
        <rect class="cls-1" x="392.27" y="660.91" width="17.05" height="17.05"/>
        <rect class="cls-1" x="409.32" y="660.91" width="17.05" height="17.05"/>
        <rect class="cls-1" x="426.37" y="660.91" width="17.05" height="17.05"/>
        <rect class="cls-1" x="443.42" y="660.91" width="17.05" height="17.05"/>
        <rect class="cls-1" x="460.47" y="660.91" width="17.05" height="17.05"/>
        <rect class="cls-1" x="477.53" y="660.91" width="17.05" height="17.05"/>
        <rect class="cls-1" x="494.58" y="660.91" width="17.05" height="17.05"/>
        <rect class="cls-1" x="511.63" y="660.91" width="17.05" height="17.05"/>
        <rect class="cls-1" x="528.68" y="660.91" width="17.05" height="17.05"/>
        <rect class="cls-1" x="545.73" y="660.91" width="17.05" height="17.05"/>
        <rect class="cls-1" x="562.78" y="660.91" width="17.05" height="17.05"/>
        <rect class="cls-1" x="579.83" y="660.91" width="17.05" height="17.05"/>
        <rect class="cls-2" x="953.49" y="661.42" width="17.05" height="17.05"/>
        <rect class="cls-2" x="68.31" y="677.97" width="17.05" height="17.05"/>
        <rect class="cls-2" x="85.36" y="677.97" width="17.05" height="17.05"/>
        <rect class="cls-2" x="102.41" y="677.97" width="17.05" height="17.05"/>
        <rect class="cls-1" x="170.61" y="677.97" width="17.05" height="17.05"/>
        <rect class="cls-2" x="187.66" y="677.97" width="17.05" height="17.05"/>
        <rect class="cls-2" x="204.71" y="677.97" width="17.05" height="17.05"/>
        <rect class="cls-2" x="221.77" y="677.97" width="17.05" height="17.05"/>
        <rect class="cls-2" x="238.81" y="677.97" width="17.05" height="17.05"/>
        <rect class="cls-2" x="255.87" y="677.97" width="17.05" height="17.05"/>
        <rect class="cls-2" x="272.92" y="677.97" width="17.05" height="17.05"/>
        <rect class="cls-2" x="289.97" y="677.97" width="17.05" height="17.05"/>
        <rect class="cls-2" x="307.02" y="677.97" width="17.05" height="17.05"/>
        <rect class="cls-2" x="324.07" y="677.97" width="17.05" height="17.05"/>
        <rect class="cls-2" x="341.12" y="677.97" width="17.05" height="17.05"/>
        <rect class="cls-2" x="358.17" y="677.97" width="17.05" height="17.05"/>
        <rect class="cls-2" x="375.22" y="677.97" width="17.05" height="17.05"/>
        <rect class="cls-2" x="392.27" y="677.97" width="17.05" height="17.05"/>
        <rect class="cls-2" x="409.32" y="677.97" width="17.05" height="17.05"/>
        <rect class="cls-2" x="426.37" y="677.97" width="17.05" height="17.05"/>
        <rect class="cls-2" x="443.42" y="677.97" width="17.05" height="17.05"/>
        <rect class="cls-2" x="460.47" y="677.97" width="17.05" height="17.05"/>
        <rect class="cls-2" x="477.53" y="677.97" width="17.05" height="17.05"/>
        <rect class="cls-2" x="494.58" y="677.97" width="17.05" height="17.05"/>
        <rect class="cls-2" x="511.63" y="677.97" width="17.05" height="17.05"/>
        <rect class="cls-2" x="528.68" y="677.97" width="17.05" height="17.05"/>
        <rect class="cls-2" x="545.73" y="677.97" width="17.05" height="17.05"/>
        <rect class="cls-2" x="562.78" y="677.97" width="17.05" height="17.05"/>
        <rect class="cls-2" x="579.83" y="677.97" width="17.05" height="17.05"/>
        <rect class="cls-1" x="596.88" y="660.91" width="17.05" height="17.05"/>
        <rect class="cls-1" x="613.93" y="660.91" width="17.05" height="17.05"/>
        <rect class="cls-1" x="630.98" y="660.91" width="17.05" height="17.05"/>
        <rect class="cls-1" x="648.03" y="660.91" width="17.05" height="17.05"/>
        <rect class="cls-1" x="665.08" y="660.91" width="17.05" height="17.05"/>
        <rect class="cls-1" x="682.13" y="660.91" width="17.05" height="17.05"/>
        <rect class="cls-1" x="699.19" y="660.91" width="17.05" height="17.05"/>
        <rect class="cls-1" x="716.23" y="660.91" width="17.05" height="17.05"/>
        <rect class="cls-1" x="733.29" y="660.91" width="17.05" height="17.05"/>
        <rect class="cls-1" x="750.34" y="660.91" width="17.05" height="17.05"/>
        <rect class="cls-1" x="767.39" y="660.91" width="17.05" height="17.05"/>
        <rect class="cls-1" x="784.44" y="660.91" width="17.05" height="17.05"/>
        <rect class="cls-2" x="596.88" y="677.97" width="17.05" height="17.05"/>
        <rect class="cls-2" x="613.93" y="677.97" width="17.05" height="17.05"/>
        <rect class="cls-2" x="630.98" y="677.97" width="17.05" height="17.05"/>
        <rect class="cls-2" x="648.03" y="677.97" width="17.05" height="17.05"/>
        <rect class="cls-2" x="665.08" y="677.97" width="17.05" height="17.05"/>
        <rect class="cls-2" x="682.13" y="677.97" width="17.05" height="17.05"/>
        <rect class="cls-2" x="699.19" y="677.97" width="17.05" height="17.05"/>
        <rect class="cls-2" x="716.23" y="677.97" width="17.05" height="17.05"/>
        <rect class="cls-2" x="733.29" y="677.97" width="17.05" height="17.05"/>
        <rect class="cls-2" x="750.34" y="677.97" width="17.05" height="17.05"/>
        <rect class="cls-2" x="767.39" y="677.97" width="17.05" height="17.05"/>
        <rect class="cls-2" x="784.44" y="677.97" width="17.05" height="17.05"/>
        <rect class="cls-1" x="801.49" y="660.91" width="17.05" height="17.05"/>
        <rect class="cls-1" x="818.54" y="660.91" width="17.05" height="17.05"/>
        <rect class="cls-1" x="835.59" y="660.91" width="17.05" height="17.05"/>
        <rect class="cls-1" x="852.64" y="660.91" width="17.05" height="17.05"/>
        <rect class="cls-1" x="869.69" y="660.91" width="17.05" height="17.05"/>
        <rect class="cls-1" x="886.74" y="660.91" width="17.05" height="17.05"/>
        <rect class="cls-1" x="903.79" y="660.91" width="17.05" height="17.05"/>
        <rect class="cls-1" x="920.84" y="660.91" width="17.05" height="17.05"/>
        <rect class="cls-1" x="937.9" y="660.91" width="17.05" height="17.05"/>
        <rect class="cls-2" x="801.49" y="677.97" width="17.05" height="17.05"/>
        <rect class="cls-2" x="818.54" y="677.97" width="17.05" height="17.05"/>
        <rect class="cls-2" x="835.59" y="677.97" width="17.05" height="17.05"/>
        <rect class="cls-2" x="852.64" y="677.97" width="17.05" height="17.05"/>
        <rect class="cls-2" x="869.69" y="677.97" width="17.05" height="17.05"/>
        <rect class="cls-2" x="886.74" y="677.97" width="17.05" height="17.05"/>
        <rect class="cls-2" x="903.79" y="677.97" width="17.05" height="17.05"/>
        <rect class="cls-2" x="920.84" y="677.97" width="17.05" height="17.05"/>
        <rect class="cls-2" x="937.9" y="677.97" width="17.05" height="17.05"/>
        <rect class="cls-2" x="102.41" y="695.02" width="17.05" height="17.05"/>
        <rect class="cls-1" x="153.56" y="695.02" width="17.05" height="17.05"/>
        <rect class="cls-2" x="170.61" y="695.02" width="17.05" height="17.05"/>
        <rect class="cls-2" x="102.41" y="712.07" width="17.05" height="17.05"/>
        <rect class="cls-1" x="136.51" y="712.07" width="17.05" height="17.05"/>
        <rect class="cls-2" x="153.56" y="712.07" width="17.05" height="17.05"/>
        <rect class="cls-2" x="102.41" y="729.12" width="17.05" height="17.05"/>
        <rect class="cls-1" x="119.46" y="729.12" width="17.05" height="17.05"/>
        <rect class="cls-2" x="136.51" y="729.12" width="17.05" height="17.05"/>
        <rect class="cls-2" x="102.41" y="746.17" width="17.05" height="17.05"/>
        <rect class="cls-2" x="119.46" y="746.17" width="17.05" height="17.05"/>
      </g>
    </g>
  </g>
</svg>